G04 #@! TF.GenerationSoftware,KiCad,Pcbnew,(5.1.6)-1*
G04 #@! TF.CreationDate,2020-07-20T19:56:41+03:00*
G04 #@! TF.ProjectId,CPC_MultiROM_01,4350435f-4d75-46c7-9469-524f4d5f3031,rev?*
G04 #@! TF.SameCoordinates,Original*
G04 #@! TF.FileFunction,Legend,Top*
G04 #@! TF.FilePolarity,Positive*
%FSLAX46Y46*%
G04 Gerber Fmt 4.6, Leading zero omitted, Abs format (unit mm)*
G04 Created by KiCad (PCBNEW (5.1.6)-1) date 2020-07-20 19:56:41*
%MOMM*%
%LPD*%
G01*
G04 APERTURE LIST*
%ADD10C,0.150000*%
%ADD11C,0.120000*%
G04 APERTURE END LIST*
D10*
X125552380Y-64111904D02*
X125552380Y-64588095D01*
X126028571Y-64635714D01*
X125980952Y-64588095D01*
X125933333Y-64492857D01*
X125933333Y-64254761D01*
X125980952Y-64159523D01*
X126028571Y-64111904D01*
X126123809Y-64064285D01*
X126361904Y-64064285D01*
X126457142Y-64111904D01*
X126504761Y-64159523D01*
X126552380Y-64254761D01*
X126552380Y-64492857D01*
X126504761Y-64588095D01*
X126457142Y-64635714D01*
X125935714Y-61559523D02*
X126602380Y-61559523D01*
X125554761Y-61797619D02*
X126269047Y-62035714D01*
X126269047Y-61416666D01*
X125602380Y-59483333D02*
X125602380Y-58864285D01*
X125983333Y-59197619D01*
X125983333Y-59054761D01*
X126030952Y-58959523D01*
X126078571Y-58911904D01*
X126173809Y-58864285D01*
X126411904Y-58864285D01*
X126507142Y-58911904D01*
X126554761Y-58959523D01*
X126602380Y-59054761D01*
X126602380Y-59340476D01*
X126554761Y-59435714D01*
X126507142Y-59483333D01*
X125647619Y-56985714D02*
X125600000Y-56938095D01*
X125552380Y-56842857D01*
X125552380Y-56604761D01*
X125600000Y-56509523D01*
X125647619Y-56461904D01*
X125742857Y-56414285D01*
X125838095Y-56414285D01*
X125980952Y-56461904D01*
X126552380Y-57033333D01*
X126552380Y-56414285D01*
X126552380Y-53814285D02*
X126552380Y-54385714D01*
X126552380Y-54100000D02*
X125552380Y-54100000D01*
X125695238Y-54195238D01*
X125790476Y-54290476D01*
X125838095Y-54385714D01*
X155785714Y-108452380D02*
X155214285Y-108452380D01*
X155500000Y-108452380D02*
X155500000Y-107452380D01*
X155404761Y-107595238D01*
X155309523Y-107690476D01*
X155214285Y-107738095D01*
X152714285Y-107547619D02*
X152761904Y-107500000D01*
X152857142Y-107452380D01*
X153095238Y-107452380D01*
X153190476Y-107500000D01*
X153238095Y-107547619D01*
X153285714Y-107642857D01*
X153285714Y-107738095D01*
X153238095Y-107880952D01*
X152666666Y-108452380D01*
X153285714Y-108452380D01*
X150166666Y-107452380D02*
X150785714Y-107452380D01*
X150452380Y-107833333D01*
X150595238Y-107833333D01*
X150690476Y-107880952D01*
X150738095Y-107928571D01*
X150785714Y-108023809D01*
X150785714Y-108261904D01*
X150738095Y-108357142D01*
X150690476Y-108404761D01*
X150595238Y-108452380D01*
X150309523Y-108452380D01*
X150214285Y-108404761D01*
X150166666Y-108357142D01*
X147940476Y-107785714D02*
X147940476Y-108452380D01*
X147702380Y-107404761D02*
X147464285Y-108119047D01*
X148083333Y-108119047D01*
X145488095Y-107452380D02*
X145011904Y-107452380D01*
X144964285Y-107928571D01*
X145011904Y-107880952D01*
X145107142Y-107833333D01*
X145345238Y-107833333D01*
X145440476Y-107880952D01*
X145488095Y-107928571D01*
X145535714Y-108023809D01*
X145535714Y-108261904D01*
X145488095Y-108357142D01*
X145440476Y-108404761D01*
X145345238Y-108452380D01*
X145107142Y-108452380D01*
X145011904Y-108404761D01*
X144964285Y-108357142D01*
X157286158Y-105398155D02*
X157205346Y-105425093D01*
X157124534Y-105505905D01*
X157070659Y-105613654D01*
X157070659Y-105721404D01*
X157097597Y-105802216D01*
X157178409Y-105936903D01*
X157259221Y-106017715D01*
X157393908Y-106098528D01*
X157474720Y-106125465D01*
X157582470Y-106125465D01*
X157690219Y-106071590D01*
X157744094Y-106017715D01*
X157797969Y-105909966D01*
X157797969Y-105856091D01*
X157609407Y-105667529D01*
X157501658Y-105775279D01*
X158094280Y-105667529D02*
X157528595Y-105101844D01*
X158417529Y-105344280D01*
X157851844Y-104778595D01*
X158686903Y-105074906D02*
X158121218Y-104509221D01*
X158255905Y-104374534D01*
X158363654Y-104320659D01*
X158471404Y-104320659D01*
X158552216Y-104347597D01*
X158686903Y-104428409D01*
X158767715Y-104509221D01*
X158848528Y-104643908D01*
X158875465Y-104724720D01*
X158875465Y-104832470D01*
X158821590Y-104940219D01*
X158686903Y-105074906D01*
X153664940Y-104773621D02*
X153934314Y-104504247D01*
X153772690Y-104989120D02*
X153395566Y-104234873D01*
X154149813Y-104611996D01*
X154634687Y-104127123D02*
X154311438Y-104450372D01*
X154473062Y-104288748D02*
X153907377Y-103723062D01*
X153934314Y-103857749D01*
X153934314Y-103965499D01*
X153907377Y-104046311D01*
X154742436Y-103265126D02*
X155119560Y-103642250D01*
X154392250Y-103184314D02*
X154661624Y-103723062D01*
X155011810Y-103372876D01*
X155415871Y-103345938D02*
X154850186Y-102780253D01*
X155065685Y-102995752D02*
X155092622Y-102914940D01*
X155200372Y-102807190D01*
X155281184Y-102780253D01*
X155335059Y-102780253D01*
X155415871Y-102807190D01*
X155577496Y-102968815D01*
X155604433Y-103049627D01*
X155604433Y-103103502D01*
X155577496Y-103184314D01*
X155469746Y-103292064D01*
X155388934Y-103319001D01*
X151164940Y-104773621D02*
X151434314Y-104504247D01*
X151272690Y-104989120D02*
X150895566Y-104234873D01*
X151649813Y-104611996D01*
X152134687Y-104127123D02*
X151811438Y-104450372D01*
X151973062Y-104288748D02*
X151407377Y-103723062D01*
X151434314Y-103857749D01*
X151434314Y-103965499D01*
X151407377Y-104046311D01*
X152080812Y-103049627D02*
X151811438Y-103319001D01*
X152053874Y-103615312D01*
X152053874Y-103561438D01*
X152080812Y-103480625D01*
X152215499Y-103345938D01*
X152296311Y-103319001D01*
X152350186Y-103319001D01*
X152430998Y-103345938D01*
X152565685Y-103480625D01*
X152592622Y-103561438D01*
X152592622Y-103615312D01*
X152565685Y-103696125D01*
X152430998Y-103830812D01*
X152350186Y-103857749D01*
X152296311Y-103857749D01*
X152915871Y-103345938D02*
X152350186Y-102780253D01*
X152565685Y-102995752D02*
X152592622Y-102914940D01*
X152700372Y-102807190D01*
X152781184Y-102780253D01*
X152835059Y-102780253D01*
X152915871Y-102807190D01*
X153077496Y-102968815D01*
X153104433Y-103049627D01*
X153104433Y-103103502D01*
X153077496Y-103184314D01*
X152969746Y-103292064D01*
X152888934Y-103319001D01*
X146164940Y-104773621D02*
X146434314Y-104504247D01*
X146272690Y-104989120D02*
X145895566Y-104234873D01*
X146649813Y-104611996D01*
X147134687Y-104127123D02*
X146811438Y-104450372D01*
X146973062Y-104288748D02*
X146407377Y-103723062D01*
X146434314Y-103857749D01*
X146434314Y-103965499D01*
X146407377Y-104046311D01*
X147053874Y-103076564D02*
X146946125Y-103184314D01*
X146919187Y-103265126D01*
X146919187Y-103319001D01*
X146946125Y-103453688D01*
X147026937Y-103588375D01*
X147242436Y-103803874D01*
X147323248Y-103830812D01*
X147377123Y-103830812D01*
X147457935Y-103803874D01*
X147565685Y-103696125D01*
X147592622Y-103615312D01*
X147592622Y-103561438D01*
X147565685Y-103480625D01*
X147430998Y-103345938D01*
X147350186Y-103319001D01*
X147296311Y-103319001D01*
X147215499Y-103345938D01*
X147107749Y-103453688D01*
X147080812Y-103534500D01*
X147080812Y-103588375D01*
X147107749Y-103669187D01*
X148158308Y-103103502D02*
X147861996Y-102807190D01*
X147781184Y-102780253D01*
X147700372Y-102807190D01*
X147592622Y-102914940D01*
X147565685Y-102995752D01*
X148131370Y-103076564D02*
X148104433Y-103157377D01*
X147969746Y-103292064D01*
X147888934Y-103319001D01*
X147808122Y-103292064D01*
X147754247Y-103238189D01*
X147727309Y-103157377D01*
X147754247Y-103076564D01*
X147888934Y-102941877D01*
X147915871Y-102861065D01*
X148664940Y-104773621D02*
X148934314Y-104504247D01*
X148772690Y-104989120D02*
X148395566Y-104234873D01*
X149149813Y-104611996D01*
X149634687Y-104127123D02*
X149311438Y-104450372D01*
X149473062Y-104288748D02*
X148907377Y-103723062D01*
X148934314Y-103857749D01*
X148934314Y-103965499D01*
X148907377Y-104046311D01*
X149580812Y-103049627D02*
X149311438Y-103319001D01*
X149553874Y-103615312D01*
X149553874Y-103561438D01*
X149580812Y-103480625D01*
X149715499Y-103345938D01*
X149796311Y-103319001D01*
X149850186Y-103319001D01*
X149930998Y-103345938D01*
X150065685Y-103480625D01*
X150092622Y-103561438D01*
X150092622Y-103615312D01*
X150065685Y-103696125D01*
X149930998Y-103830812D01*
X149850186Y-103857749D01*
X149796311Y-103857749D01*
X150658308Y-103103502D02*
X150361996Y-102807190D01*
X150281184Y-102780253D01*
X150200372Y-102807190D01*
X150092622Y-102914940D01*
X150065685Y-102995752D01*
X150631370Y-103076564D02*
X150604433Y-103157377D01*
X150469746Y-103292064D01*
X150388934Y-103319001D01*
X150308122Y-103292064D01*
X150254247Y-103238189D01*
X150227309Y-103157377D01*
X150254247Y-103076564D01*
X150388934Y-102941877D01*
X150415871Y-102861065D01*
D11*
X152710000Y-98960000D02*
X152380000Y-98960000D01*
X152380000Y-98960000D02*
X152380000Y-92420000D01*
X152380000Y-92420000D02*
X152710000Y-92420000D01*
X154790000Y-98960000D02*
X155120000Y-98960000D01*
X155120000Y-98960000D02*
X155120000Y-92420000D01*
X155120000Y-92420000D02*
X154790000Y-92420000D01*
X149582000Y-98960000D02*
X149252000Y-98960000D01*
X149252000Y-98960000D02*
X149252000Y-92420000D01*
X149252000Y-92420000D02*
X149582000Y-92420000D01*
X151662000Y-98960000D02*
X151992000Y-98960000D01*
X151992000Y-98960000D02*
X151992000Y-92420000D01*
X151992000Y-92420000D02*
X151662000Y-92420000D01*
X129770000Y-98960000D02*
X129440000Y-98960000D01*
X129440000Y-98960000D02*
X129440000Y-92420000D01*
X129440000Y-92420000D02*
X129770000Y-92420000D01*
X131850000Y-98960000D02*
X132180000Y-98960000D01*
X132180000Y-98960000D02*
X132180000Y-92420000D01*
X132180000Y-92420000D02*
X131850000Y-92420000D01*
X132960000Y-98960000D02*
X132630000Y-98960000D01*
X132630000Y-98960000D02*
X132630000Y-92420000D01*
X132630000Y-92420000D02*
X132960000Y-92420000D01*
X135040000Y-98960000D02*
X135370000Y-98960000D01*
X135370000Y-98960000D02*
X135370000Y-92420000D01*
X135370000Y-92420000D02*
X135040000Y-92420000D01*
X131280000Y-64090000D02*
X131280000Y-54190000D01*
X143740000Y-64090000D02*
X143740000Y-54190000D01*
X131280000Y-64090000D02*
X143740000Y-64090000D01*
X131280000Y-54190000D02*
X143740000Y-54190000D01*
X131040000Y-64330000D02*
X131040000Y-62946000D01*
X131040000Y-64330000D02*
X132423000Y-64330000D01*
X133065000Y-61170000D02*
X134335000Y-61170000D01*
X134335000Y-61170000D02*
X134335000Y-57110000D01*
X134335000Y-57110000D02*
X133065000Y-57110000D01*
X133065000Y-57110000D02*
X133065000Y-61170000D01*
X133185000Y-61170000D02*
X133185000Y-59816667D01*
X133305000Y-61170000D02*
X133305000Y-59816667D01*
X133425000Y-61170000D02*
X133425000Y-59816667D01*
X133545000Y-61170000D02*
X133545000Y-59816667D01*
X133665000Y-61170000D02*
X133665000Y-59816667D01*
X133785000Y-61170000D02*
X133785000Y-59816667D01*
X133905000Y-61170000D02*
X133905000Y-59816667D01*
X134025000Y-61170000D02*
X134025000Y-59816667D01*
X134145000Y-61170000D02*
X134145000Y-59816667D01*
X134265000Y-61170000D02*
X134265000Y-59816667D01*
X133065000Y-59816667D02*
X134335000Y-59816667D01*
X135605000Y-61170000D02*
X136875000Y-61170000D01*
X136875000Y-61170000D02*
X136875000Y-57110000D01*
X136875000Y-57110000D02*
X135605000Y-57110000D01*
X135605000Y-57110000D02*
X135605000Y-61170000D01*
X135725000Y-61170000D02*
X135725000Y-59816667D01*
X135845000Y-61170000D02*
X135845000Y-59816667D01*
X135965000Y-61170000D02*
X135965000Y-59816667D01*
X136085000Y-61170000D02*
X136085000Y-59816667D01*
X136205000Y-61170000D02*
X136205000Y-59816667D01*
X136325000Y-61170000D02*
X136325000Y-59816667D01*
X136445000Y-61170000D02*
X136445000Y-59816667D01*
X136565000Y-61170000D02*
X136565000Y-59816667D01*
X136685000Y-61170000D02*
X136685000Y-59816667D01*
X136805000Y-61170000D02*
X136805000Y-59816667D01*
X135605000Y-59816667D02*
X136875000Y-59816667D01*
X138145000Y-61170000D02*
X139415000Y-61170000D01*
X139415000Y-61170000D02*
X139415000Y-57110000D01*
X139415000Y-57110000D02*
X138145000Y-57110000D01*
X138145000Y-57110000D02*
X138145000Y-61170000D01*
X138265000Y-61170000D02*
X138265000Y-59816667D01*
X138385000Y-61170000D02*
X138385000Y-59816667D01*
X138505000Y-61170000D02*
X138505000Y-59816667D01*
X138625000Y-61170000D02*
X138625000Y-59816667D01*
X138745000Y-61170000D02*
X138745000Y-59816667D01*
X138865000Y-61170000D02*
X138865000Y-59816667D01*
X138985000Y-61170000D02*
X138985000Y-59816667D01*
X139105000Y-61170000D02*
X139105000Y-59816667D01*
X139225000Y-61170000D02*
X139225000Y-59816667D01*
X139345000Y-61170000D02*
X139345000Y-59816667D01*
X138145000Y-59816667D02*
X139415000Y-59816667D01*
X140685000Y-61170000D02*
X141955000Y-61170000D01*
X141955000Y-61170000D02*
X141955000Y-57110000D01*
X141955000Y-57110000D02*
X140685000Y-57110000D01*
X140685000Y-57110000D02*
X140685000Y-61170000D01*
X140805000Y-61170000D02*
X140805000Y-59816667D01*
X140925000Y-61170000D02*
X140925000Y-59816667D01*
X141045000Y-61170000D02*
X141045000Y-59816667D01*
X141165000Y-61170000D02*
X141165000Y-59816667D01*
X141285000Y-61170000D02*
X141285000Y-59816667D01*
X141405000Y-61170000D02*
X141405000Y-59816667D01*
X141525000Y-61170000D02*
X141525000Y-59816667D01*
X141645000Y-61170000D02*
X141645000Y-59816667D01*
X141765000Y-61170000D02*
X141765000Y-59816667D01*
X141885000Y-61170000D02*
X141885000Y-59816667D01*
X140685000Y-59816667D02*
X141955000Y-59816667D01*
X150120000Y-67670000D02*
X144660000Y-67670000D01*
X144660000Y-67670000D02*
X144660000Y-103350000D01*
X144660000Y-103350000D02*
X157580000Y-103350000D01*
X157580000Y-103350000D02*
X157580000Y-67670000D01*
X157580000Y-67670000D02*
X152120000Y-67670000D01*
X152120000Y-67670000D02*
G75*
G02*
X150120000Y-67670000I-1000000J0D01*
G01*
X156830000Y-107190000D02*
X144010000Y-107190000D01*
X144010000Y-107190000D02*
X144010000Y-109850000D01*
X144010000Y-109850000D02*
X156830000Y-109850000D01*
X156830000Y-109850000D02*
X156830000Y-107190000D01*
X155880000Y-109850000D02*
X155880000Y-115850000D01*
X155880000Y-115850000D02*
X155120000Y-115850000D01*
X155120000Y-115850000D02*
X155120000Y-109850000D01*
X155820000Y-109850000D02*
X155820000Y-115850000D01*
X155700000Y-109850000D02*
X155700000Y-115850000D01*
X155580000Y-109850000D02*
X155580000Y-115850000D01*
X155460000Y-109850000D02*
X155460000Y-115850000D01*
X155340000Y-109850000D02*
X155340000Y-115850000D01*
X155220000Y-109850000D02*
X155220000Y-115850000D01*
X155880000Y-106860000D02*
X155880000Y-107190000D01*
X155120000Y-106860000D02*
X155120000Y-107190000D01*
X154230000Y-107190000D02*
X154230000Y-109850000D01*
X153340000Y-109850000D02*
X153340000Y-115850000D01*
X153340000Y-115850000D02*
X152580000Y-115850000D01*
X152580000Y-115850000D02*
X152580000Y-109850000D01*
X153340000Y-106792929D02*
X153340000Y-107190000D01*
X152580000Y-106792929D02*
X152580000Y-107190000D01*
X151690000Y-107190000D02*
X151690000Y-109850000D01*
X150800000Y-109850000D02*
X150800000Y-115850000D01*
X150800000Y-115850000D02*
X150040000Y-115850000D01*
X150040000Y-115850000D02*
X150040000Y-109850000D01*
X150800000Y-106792929D02*
X150800000Y-107190000D01*
X150040000Y-106792929D02*
X150040000Y-107190000D01*
X149150000Y-107190000D02*
X149150000Y-109850000D01*
X148260000Y-109850000D02*
X148260000Y-115850000D01*
X148260000Y-115850000D02*
X147500000Y-115850000D01*
X147500000Y-115850000D02*
X147500000Y-109850000D01*
X148260000Y-106792929D02*
X148260000Y-107190000D01*
X147500000Y-106792929D02*
X147500000Y-107190000D01*
X146610000Y-107190000D02*
X146610000Y-109850000D01*
X145720000Y-109850000D02*
X145720000Y-115850000D01*
X145720000Y-115850000D02*
X144960000Y-115850000D01*
X144960000Y-115850000D02*
X144960000Y-109850000D01*
X145720000Y-106792929D02*
X145720000Y-107190000D01*
X144960000Y-106792929D02*
X144960000Y-107190000D01*
X155500000Y-104480000D02*
X156770000Y-104480000D01*
X156770000Y-104480000D02*
X156770000Y-105750000D01*
X152620000Y-67670000D02*
X147160000Y-67670000D01*
X147160000Y-67670000D02*
X147160000Y-103350000D01*
X147160000Y-103350000D02*
X160080000Y-103350000D01*
X160080000Y-103350000D02*
X160080000Y-67670000D01*
X160080000Y-67670000D02*
X154620000Y-67670000D01*
X154620000Y-67670000D02*
G75*
G02*
X152620000Y-67670000I-1000000J0D01*
G01*
X130120000Y-67670000D02*
X124660000Y-67670000D01*
X124660000Y-67670000D02*
X124660000Y-108430000D01*
X124660000Y-108430000D02*
X137580000Y-108430000D01*
X137580000Y-108430000D02*
X137580000Y-67670000D01*
X137580000Y-67670000D02*
X132120000Y-67670000D01*
X132120000Y-67670000D02*
G75*
G02*
X130120000Y-67670000I-1000000J0D01*
G01*
X132620000Y-67670000D02*
X127160000Y-67670000D01*
X127160000Y-67670000D02*
X127160000Y-103350000D01*
X127160000Y-103350000D02*
X140080000Y-103350000D01*
X140080000Y-103350000D02*
X140080000Y-67670000D01*
X140080000Y-67670000D02*
X134620000Y-67670000D01*
X134620000Y-67670000D02*
G75*
G02*
X132620000Y-67670000I-1000000J0D01*
G01*
D10*
X153503333Y-90622380D02*
X153170000Y-90146190D01*
X152931904Y-90622380D02*
X152931904Y-89622380D01*
X153312857Y-89622380D01*
X153408095Y-89670000D01*
X153455714Y-89717619D01*
X153503333Y-89812857D01*
X153503333Y-89955714D01*
X153455714Y-90050952D01*
X153408095Y-90098571D01*
X153312857Y-90146190D01*
X152931904Y-90146190D01*
X154360476Y-89955714D02*
X154360476Y-90622380D01*
X154122380Y-89574761D02*
X153884285Y-90289047D01*
X154503333Y-90289047D01*
X153709714Y-96289714D02*
X154376380Y-96289714D01*
X153328761Y-96527809D02*
X154043047Y-96765904D01*
X154043047Y-96146857D01*
X154376380Y-95765904D02*
X153376380Y-95765904D01*
X154376380Y-95194476D02*
X153804952Y-95623047D01*
X153376380Y-95194476D02*
X153947809Y-95765904D01*
X153376380Y-94861142D02*
X153376380Y-94194476D01*
X154376380Y-94623047D01*
X150455333Y-90622380D02*
X150122000Y-90146190D01*
X149883904Y-90622380D02*
X149883904Y-89622380D01*
X150264857Y-89622380D01*
X150360095Y-89670000D01*
X150407714Y-89717619D01*
X150455333Y-89812857D01*
X150455333Y-89955714D01*
X150407714Y-90050952D01*
X150360095Y-90098571D01*
X150264857Y-90146190D01*
X149883904Y-90146190D01*
X150788666Y-89622380D02*
X151407714Y-89622380D01*
X151074380Y-90003333D01*
X151217238Y-90003333D01*
X151312476Y-90050952D01*
X151360095Y-90098571D01*
X151407714Y-90193809D01*
X151407714Y-90431904D01*
X151360095Y-90527142D01*
X151312476Y-90574761D01*
X151217238Y-90622380D01*
X150931523Y-90622380D01*
X150836285Y-90574761D01*
X150788666Y-90527142D01*
X150661714Y-96289714D02*
X151328380Y-96289714D01*
X150280761Y-96527809D02*
X150995047Y-96765904D01*
X150995047Y-96146857D01*
X151328380Y-95765904D02*
X150328380Y-95765904D01*
X151328380Y-95194476D02*
X150756952Y-95623047D01*
X150328380Y-95194476D02*
X150899809Y-95765904D01*
X150328380Y-94861142D02*
X150328380Y-94194476D01*
X151328380Y-94623047D01*
X130897333Y-90622380D02*
X130564000Y-90146190D01*
X130325904Y-90622380D02*
X130325904Y-89622380D01*
X130706857Y-89622380D01*
X130802095Y-89670000D01*
X130849714Y-89717619D01*
X130897333Y-89812857D01*
X130897333Y-89955714D01*
X130849714Y-90050952D01*
X130802095Y-90098571D01*
X130706857Y-90146190D01*
X130325904Y-90146190D01*
X131278285Y-89717619D02*
X131325904Y-89670000D01*
X131421142Y-89622380D01*
X131659238Y-89622380D01*
X131754476Y-89670000D01*
X131802095Y-89717619D01*
X131849714Y-89812857D01*
X131849714Y-89908095D01*
X131802095Y-90050952D01*
X131230666Y-90622380D01*
X131849714Y-90622380D01*
X130595714Y-96289714D02*
X131262380Y-96289714D01*
X130214761Y-96527809D02*
X130929047Y-96765904D01*
X130929047Y-96146857D01*
X131262380Y-95765904D02*
X130262380Y-95765904D01*
X131262380Y-95194476D02*
X130690952Y-95623047D01*
X130262380Y-95194476D02*
X130833809Y-95765904D01*
X130262380Y-94861142D02*
X130262380Y-94194476D01*
X131262380Y-94623047D01*
X133945333Y-90622380D02*
X133612000Y-90146190D01*
X133373904Y-90622380D02*
X133373904Y-89622380D01*
X133754857Y-89622380D01*
X133850095Y-89670000D01*
X133897714Y-89717619D01*
X133945333Y-89812857D01*
X133945333Y-89955714D01*
X133897714Y-90050952D01*
X133850095Y-90098571D01*
X133754857Y-90146190D01*
X133373904Y-90146190D01*
X134897714Y-90622380D02*
X134326285Y-90622380D01*
X134612000Y-90622380D02*
X134612000Y-89622380D01*
X134516761Y-89765238D01*
X134421523Y-89860476D01*
X134326285Y-89908095D01*
X133897714Y-96289714D02*
X134564380Y-96289714D01*
X133516761Y-96527809D02*
X134231047Y-96765904D01*
X134231047Y-96146857D01*
X134564380Y-95765904D02*
X133564380Y-95765904D01*
X134564380Y-95194476D02*
X133992952Y-95623047D01*
X133564380Y-95194476D02*
X134135809Y-95765904D01*
X133564380Y-94861142D02*
X133564380Y-94194476D01*
X134564380Y-94623047D01*
X136166666Y-53454761D02*
X136309523Y-53502380D01*
X136547619Y-53502380D01*
X136642857Y-53454761D01*
X136690476Y-53407142D01*
X136738095Y-53311904D01*
X136738095Y-53216666D01*
X136690476Y-53121428D01*
X136642857Y-53073809D01*
X136547619Y-53026190D01*
X136357142Y-52978571D01*
X136261904Y-52930952D01*
X136214285Y-52883333D01*
X136166666Y-52788095D01*
X136166666Y-52692857D01*
X136214285Y-52597619D01*
X136261904Y-52550000D01*
X136357142Y-52502380D01*
X136595238Y-52502380D01*
X136738095Y-52550000D01*
X137071428Y-52502380D02*
X137309523Y-53502380D01*
X137500000Y-52788095D01*
X137690476Y-53502380D01*
X137928571Y-52502380D01*
X138833333Y-53502380D02*
X138261904Y-53502380D01*
X138547619Y-53502380D02*
X138547619Y-52502380D01*
X138452380Y-52645238D01*
X138357142Y-52740476D01*
X138261904Y-52788095D01*
X123102380Y-59683333D02*
X123816666Y-59683333D01*
X123959523Y-59730952D01*
X124054761Y-59826190D01*
X124102380Y-59969047D01*
X124102380Y-60064285D01*
X123197619Y-59254761D02*
X123150000Y-59207142D01*
X123102380Y-59111904D01*
X123102380Y-58873809D01*
X123150000Y-58778571D01*
X123197619Y-58730952D01*
X123292857Y-58683333D01*
X123388095Y-58683333D01*
X123530952Y-58730952D01*
X124102380Y-59302380D01*
X124102380Y-58683333D01*
X147702380Y-78511904D02*
X148511904Y-78511904D01*
X148607142Y-78464285D01*
X148654761Y-78416666D01*
X148702380Y-78321428D01*
X148702380Y-78130952D01*
X148654761Y-78035714D01*
X148607142Y-77988095D01*
X148511904Y-77940476D01*
X147702380Y-77940476D01*
X147702380Y-77559523D02*
X147702380Y-76940476D01*
X148083333Y-77273809D01*
X148083333Y-77130952D01*
X148130952Y-77035714D01*
X148178571Y-76988095D01*
X148273809Y-76940476D01*
X148511904Y-76940476D01*
X148607142Y-76988095D01*
X148654761Y-77035714D01*
X148702380Y-77130952D01*
X148702380Y-77416666D01*
X148654761Y-77511904D01*
X148607142Y-77559523D01*
X147797619Y-73940476D02*
X147750000Y-73892857D01*
X147702380Y-73797619D01*
X147702380Y-73559523D01*
X147750000Y-73464285D01*
X147797619Y-73416666D01*
X147892857Y-73369047D01*
X147988095Y-73369047D01*
X148130952Y-73416666D01*
X148702380Y-73988095D01*
X148702380Y-73369047D01*
X147702380Y-73035714D02*
X147702380Y-72369047D01*
X148702380Y-72797619D01*
X148607142Y-71416666D02*
X148654761Y-71464285D01*
X148702380Y-71607142D01*
X148702380Y-71702380D01*
X148654761Y-71845238D01*
X148559523Y-71940476D01*
X148464285Y-71988095D01*
X148273809Y-72035714D01*
X148130952Y-72035714D01*
X147940476Y-71988095D01*
X147845238Y-71940476D01*
X147750000Y-71845238D01*
X147702380Y-71702380D01*
X147702380Y-71607142D01*
X147750000Y-71464285D01*
X147797619Y-71416666D01*
X148702380Y-70464285D02*
X148702380Y-71035714D01*
X148702380Y-70750000D02*
X147702380Y-70750000D01*
X147845238Y-70845238D01*
X147940476Y-70940476D01*
X147988095Y-71035714D01*
X147797619Y-70083333D02*
X147750000Y-70035714D01*
X147702380Y-69940476D01*
X147702380Y-69702380D01*
X147750000Y-69607142D01*
X147797619Y-69559523D01*
X147892857Y-69511904D01*
X147988095Y-69511904D01*
X148130952Y-69559523D01*
X148702380Y-70130952D01*
X148702380Y-69511904D01*
X148130952Y-68940476D02*
X148083333Y-69035714D01*
X148035714Y-69083333D01*
X147940476Y-69130952D01*
X147892857Y-69130952D01*
X147797619Y-69083333D01*
X147750000Y-69035714D01*
X147702380Y-68940476D01*
X147702380Y-68750000D01*
X147750000Y-68654761D01*
X147797619Y-68607142D01*
X147892857Y-68559523D01*
X147940476Y-68559523D01*
X148035714Y-68607142D01*
X148083333Y-68654761D01*
X148130952Y-68750000D01*
X148130952Y-68940476D01*
X148178571Y-69035714D01*
X148226190Y-69083333D01*
X148321428Y-69130952D01*
X148511904Y-69130952D01*
X148607142Y-69083333D01*
X148654761Y-69035714D01*
X148702380Y-68940476D01*
X148702380Y-68750000D01*
X148654761Y-68654761D01*
X148607142Y-68607142D01*
X148511904Y-68559523D01*
X148321428Y-68559523D01*
X148226190Y-68607142D01*
X148178571Y-68654761D01*
X148130952Y-68750000D01*
X142252380Y-107833333D02*
X142966666Y-107833333D01*
X143109523Y-107880952D01*
X143204761Y-107976190D01*
X143252380Y-108119047D01*
X143252380Y-108214285D01*
X143252380Y-106833333D02*
X143252380Y-107404761D01*
X143252380Y-107119047D02*
X142252380Y-107119047D01*
X142395238Y-107214285D01*
X142490476Y-107309523D01*
X142538095Y-107404761D01*
X155952380Y-78261904D02*
X156761904Y-78261904D01*
X156857142Y-78214285D01*
X156904761Y-78166666D01*
X156952380Y-78071428D01*
X156952380Y-77880952D01*
X156904761Y-77785714D01*
X156857142Y-77738095D01*
X156761904Y-77690476D01*
X155952380Y-77690476D01*
X156285714Y-76785714D02*
X156952380Y-76785714D01*
X155904761Y-77023809D02*
X156619047Y-77261904D01*
X156619047Y-76642857D01*
X156047619Y-73940476D02*
X156000000Y-73892857D01*
X155952380Y-73797619D01*
X155952380Y-73559523D01*
X156000000Y-73464285D01*
X156047619Y-73416666D01*
X156142857Y-73369047D01*
X156238095Y-73369047D01*
X156380952Y-73416666D01*
X156952380Y-73988095D01*
X156952380Y-73369047D01*
X155952380Y-73035714D02*
X155952380Y-72369047D01*
X156952380Y-72797619D01*
X156857142Y-71416666D02*
X156904761Y-71464285D01*
X156952380Y-71607142D01*
X156952380Y-71702380D01*
X156904761Y-71845238D01*
X156809523Y-71940476D01*
X156714285Y-71988095D01*
X156523809Y-72035714D01*
X156380952Y-72035714D01*
X156190476Y-71988095D01*
X156095238Y-71940476D01*
X156000000Y-71845238D01*
X155952380Y-71702380D01*
X155952380Y-71607142D01*
X156000000Y-71464285D01*
X156047619Y-71416666D01*
X155952380Y-70511904D02*
X155952380Y-70988095D01*
X156428571Y-71035714D01*
X156380952Y-70988095D01*
X156333333Y-70892857D01*
X156333333Y-70654761D01*
X156380952Y-70559523D01*
X156428571Y-70511904D01*
X156523809Y-70464285D01*
X156761904Y-70464285D01*
X156857142Y-70511904D01*
X156904761Y-70559523D01*
X156952380Y-70654761D01*
X156952380Y-70892857D01*
X156904761Y-70988095D01*
X156857142Y-71035714D01*
X156952380Y-69511904D02*
X156952380Y-70083333D01*
X156952380Y-69797619D02*
X155952380Y-69797619D01*
X156095238Y-69892857D01*
X156190476Y-69988095D01*
X156238095Y-70083333D01*
X156047619Y-69130952D02*
X156000000Y-69083333D01*
X155952380Y-68988095D01*
X155952380Y-68750000D01*
X156000000Y-68654761D01*
X156047619Y-68607142D01*
X156142857Y-68559523D01*
X156238095Y-68559523D01*
X156380952Y-68607142D01*
X156952380Y-69178571D01*
X156952380Y-68559523D01*
X127702380Y-78261904D02*
X128511904Y-78261904D01*
X128607142Y-78214285D01*
X128654761Y-78166666D01*
X128702380Y-78071428D01*
X128702380Y-77880952D01*
X128654761Y-77785714D01*
X128607142Y-77738095D01*
X128511904Y-77690476D01*
X127702380Y-77690476D01*
X127797619Y-77261904D02*
X127750000Y-77214285D01*
X127702380Y-77119047D01*
X127702380Y-76880952D01*
X127750000Y-76785714D01*
X127797619Y-76738095D01*
X127892857Y-76690476D01*
X127988095Y-76690476D01*
X128130952Y-76738095D01*
X128702380Y-77309523D01*
X128702380Y-76690476D01*
X127797619Y-74440476D02*
X127750000Y-74392857D01*
X127702380Y-74297619D01*
X127702380Y-74059523D01*
X127750000Y-73964285D01*
X127797619Y-73916666D01*
X127892857Y-73869047D01*
X127988095Y-73869047D01*
X128130952Y-73916666D01*
X128702380Y-74488095D01*
X128702380Y-73869047D01*
X127702380Y-73535714D02*
X127702380Y-72869047D01*
X128702380Y-73297619D01*
X128607142Y-71916666D02*
X128654761Y-71964285D01*
X128702380Y-72107142D01*
X128702380Y-72202380D01*
X128654761Y-72345238D01*
X128559523Y-72440476D01*
X128464285Y-72488095D01*
X128273809Y-72535714D01*
X128130952Y-72535714D01*
X127940476Y-72488095D01*
X127845238Y-72440476D01*
X127750000Y-72345238D01*
X127702380Y-72202380D01*
X127702380Y-72107142D01*
X127750000Y-71964285D01*
X127797619Y-71916666D01*
X127702380Y-71297619D02*
X127702380Y-71202380D01*
X127750000Y-71107142D01*
X127797619Y-71059523D01*
X127892857Y-71011904D01*
X128083333Y-70964285D01*
X128321428Y-70964285D01*
X128511904Y-71011904D01*
X128607142Y-71059523D01*
X128654761Y-71107142D01*
X128702380Y-71202380D01*
X128702380Y-71297619D01*
X128654761Y-71392857D01*
X128607142Y-71440476D01*
X128511904Y-71488095D01*
X128321428Y-71535714D01*
X128083333Y-71535714D01*
X127892857Y-71488095D01*
X127797619Y-71440476D01*
X127750000Y-71392857D01*
X127702380Y-71297619D01*
X128702380Y-70011904D02*
X128702380Y-70583333D01*
X128702380Y-70297619D02*
X127702380Y-70297619D01*
X127845238Y-70392857D01*
X127940476Y-70488095D01*
X127988095Y-70583333D01*
X127702380Y-69392857D02*
X127702380Y-69297619D01*
X127750000Y-69202380D01*
X127797619Y-69154761D01*
X127892857Y-69107142D01*
X128083333Y-69059523D01*
X128321428Y-69059523D01*
X128511904Y-69107142D01*
X128607142Y-69154761D01*
X128654761Y-69202380D01*
X128702380Y-69297619D01*
X128702380Y-69392857D01*
X128654761Y-69488095D01*
X128607142Y-69535714D01*
X128511904Y-69583333D01*
X128321428Y-69630952D01*
X128083333Y-69630952D01*
X127892857Y-69583333D01*
X127797619Y-69535714D01*
X127750000Y-69488095D01*
X127702380Y-69392857D01*
X135952380Y-78261904D02*
X136761904Y-78261904D01*
X136857142Y-78214285D01*
X136904761Y-78166666D01*
X136952380Y-78071428D01*
X136952380Y-77880952D01*
X136904761Y-77785714D01*
X136857142Y-77738095D01*
X136761904Y-77690476D01*
X135952380Y-77690476D01*
X136952380Y-76690476D02*
X136952380Y-77261904D01*
X136952380Y-76976190D02*
X135952380Y-76976190D01*
X136095238Y-77071428D01*
X136190476Y-77166666D01*
X136238095Y-77261904D01*
X136047619Y-74190476D02*
X136000000Y-74142857D01*
X135952380Y-74047619D01*
X135952380Y-73809523D01*
X136000000Y-73714285D01*
X136047619Y-73666666D01*
X136142857Y-73619047D01*
X136238095Y-73619047D01*
X136380952Y-73666666D01*
X136952380Y-74238095D01*
X136952380Y-73619047D01*
X135952380Y-73285714D02*
X135952380Y-72619047D01*
X136952380Y-73047619D01*
X136857142Y-71666666D02*
X136904761Y-71714285D01*
X136952380Y-71857142D01*
X136952380Y-71952380D01*
X136904761Y-72095238D01*
X136809523Y-72190476D01*
X136714285Y-72238095D01*
X136523809Y-72285714D01*
X136380952Y-72285714D01*
X136190476Y-72238095D01*
X136095238Y-72190476D01*
X136000000Y-72095238D01*
X135952380Y-71952380D01*
X135952380Y-71857142D01*
X136000000Y-71714285D01*
X136047619Y-71666666D01*
X136047619Y-71285714D02*
X136000000Y-71238095D01*
X135952380Y-71142857D01*
X135952380Y-70904761D01*
X136000000Y-70809523D01*
X136047619Y-70761904D01*
X136142857Y-70714285D01*
X136238095Y-70714285D01*
X136380952Y-70761904D01*
X136952380Y-71333333D01*
X136952380Y-70714285D01*
X135952380Y-69809523D02*
X135952380Y-70285714D01*
X136428571Y-70333333D01*
X136380952Y-70285714D01*
X136333333Y-70190476D01*
X136333333Y-69952380D01*
X136380952Y-69857142D01*
X136428571Y-69809523D01*
X136523809Y-69761904D01*
X136761904Y-69761904D01*
X136857142Y-69809523D01*
X136904761Y-69857142D01*
X136952380Y-69952380D01*
X136952380Y-70190476D01*
X136904761Y-70285714D01*
X136857142Y-70333333D01*
X135952380Y-68904761D02*
X135952380Y-69095238D01*
X136000000Y-69190476D01*
X136047619Y-69238095D01*
X136190476Y-69333333D01*
X136380952Y-69380952D01*
X136761904Y-69380952D01*
X136857142Y-69333333D01*
X136904761Y-69285714D01*
X136952380Y-69190476D01*
X136952380Y-69000000D01*
X136904761Y-68904761D01*
X136857142Y-68857142D01*
X136761904Y-68809523D01*
X136523809Y-68809523D01*
X136428571Y-68857142D01*
X136380952Y-68904761D01*
X136333333Y-69000000D01*
X136333333Y-69190476D01*
X136380952Y-69285714D01*
X136428571Y-69333333D01*
X136523809Y-69380952D01*
M02*
