G04 #@! TF.GenerationSoftware,KiCad,Pcbnew,(5.1.6)-1*
G04 #@! TF.CreationDate,2020-09-26T15:55:14+03:00*
G04 #@! TF.ProjectId,CPC6128_MultiROM_1_2,43504336-3132-4385-9f4d-756c7469524f,rev?*
G04 #@! TF.SameCoordinates,Original*
G04 #@! TF.FileFunction,Profile,NP*
%FSLAX46Y46*%
G04 Gerber Fmt 4.6, Leading zero omitted, Abs format (unit mm)*
G04 Created by KiCad (PCBNEW (5.1.6)-1) date 2020-09-26 15:55:14*
%MOMM*%
%LPD*%
G01*
G04 APERTURE LIST*
G04 #@! TA.AperFunction,Profile*
%ADD10C,0.050000*%
G04 #@! TD*
G04 APERTURE END LIST*
D10*
X123250000Y-66500000D02*
X125750000Y-66500000D01*
X123250000Y-67300000D02*
X123250000Y-66500000D01*
X125750000Y-66500000D02*
X125750000Y-67300000D01*
X125750000Y-67300000D02*
X123250000Y-67300000D01*
X129500000Y-67300000D02*
X127000000Y-67300000D01*
X127000000Y-66500000D02*
X129500000Y-66500000D01*
X129500000Y-66500000D02*
X129500000Y-67300000D01*
X127000000Y-67300000D02*
X127000000Y-66500000D01*
X130750000Y-66500000D02*
X133250000Y-66500000D01*
X130750000Y-67300000D02*
X130750000Y-66500000D01*
X133250000Y-67300000D02*
X130750000Y-67300000D01*
X133250000Y-66500000D02*
X133250000Y-67300000D01*
X137000000Y-66500000D02*
X137000000Y-67300000D01*
X137000000Y-67300000D02*
X134500000Y-67300000D01*
X134500000Y-66500000D02*
X137000000Y-66500000D01*
X134500000Y-67300000D02*
X134500000Y-66500000D01*
X138250000Y-66500000D02*
X140750000Y-66500000D01*
X140750000Y-67300000D02*
X138250000Y-67300000D01*
X138250000Y-67300000D02*
X138250000Y-66500000D01*
X140750000Y-66500000D02*
X140750000Y-67300000D01*
X142000000Y-66500000D02*
X149000000Y-66500000D01*
X142000000Y-67300000D02*
X142000000Y-66500000D01*
X149000000Y-67300000D02*
X142000000Y-67300000D01*
X149000000Y-66500000D02*
X149000000Y-67300000D01*
X157480000Y-109982000D02*
X122174000Y-109982000D01*
X162560000Y-103632000D02*
X157480000Y-109982000D01*
X162560000Y-67310000D02*
X162560000Y-103632000D01*
X150114000Y-67310000D02*
X162560000Y-67310000D01*
X150114000Y-52070000D02*
X150114000Y-67310000D01*
X122174000Y-52070000D02*
X150114000Y-52070000D01*
X122174000Y-109982000D02*
X122174000Y-52070000D01*
M02*
