M48
METRIC,TZ
T1C0.400
T2C0.800
T3C1.000
T4C2.200
%
G90
G05
T1
X134112Y-102870
X134112Y-107442
X134874Y-59436
X135890Y-101346
X143510Y-104394
X145350Y-54750
X145833Y-53583
X145833Y-55917
X147000Y-53100
X147000Y-56400
X148167Y-53583
X148167Y-55917
X148650Y-54750
X145350Y-63750
X145833Y-62583
X145833Y-64917
X147000Y-62100
X147000Y-65400
X148167Y-62583
X148167Y-64917
X148650Y-63750
T2
X143500Y-69000
X143500Y-71540
X143500Y-74080
X143500Y-76620
X143500Y-79160
X143500Y-81700
X143500Y-84240
X143500Y-86780
X143500Y-89320
X143500Y-91860
X143500Y-94400
X143500Y-96940
X143500Y-99480
X143500Y-102020
X158740Y-69000
X158740Y-71540
X158740Y-74080
X158740Y-76620
X158740Y-79160
X158740Y-81700
X158740Y-84240
X158740Y-86780
X158740Y-89320
X158740Y-91860
X158740Y-94400
X158740Y-96940
X158740Y-99480
X158740Y-102020
X153750Y-91880
X153750Y-99500
X146000Y-69000
X146000Y-71540
X146000Y-74080
X146000Y-76620
X146000Y-79160
X146000Y-81700
X146000Y-84240
X146000Y-86780
X146000Y-89320
X146000Y-91860
X146000Y-94400
X146000Y-96940
X146000Y-99480
X146000Y-102020
X161240Y-69000
X161240Y-71540
X161240Y-74080
X161240Y-76620
X161240Y-79160
X161240Y-81700
X161240Y-84240
X161240Y-86780
X161240Y-89320
X161240Y-91860
X161240Y-94400
X161240Y-96940
X161240Y-99480
X161240Y-102020
X130810Y-91880
X130810Y-99500
X150622Y-91880
X150622Y-99500
X133700Y-55330
X133700Y-62950
X136240Y-55330
X136240Y-62950
X138780Y-55330
X138780Y-62950
X141320Y-55330
X141320Y-62950
X134000Y-91880
X134000Y-99500
X123500Y-69000
X123500Y-71540
X123500Y-74080
X123500Y-76620
X123500Y-79160
X123500Y-81700
X123500Y-84240
X123500Y-86780
X123500Y-89320
X123500Y-91860
X123500Y-94400
X123500Y-96940
X123500Y-99480
X123500Y-102020
X123500Y-104560
X123500Y-107100
X138740Y-69000
X138740Y-71540
X138740Y-74080
X138740Y-76620
X138740Y-79160
X138740Y-81700
X138740Y-84240
X138740Y-86780
X138740Y-89320
X138740Y-91860
X138740Y-94400
X138740Y-96940
X138740Y-99480
X138740Y-102020
X138740Y-104560
X138740Y-107100
X126000Y-69000
X126000Y-71540
X126000Y-74080
X126000Y-76620
X126000Y-79160
X126000Y-81700
X126000Y-84240
X126000Y-86780
X126000Y-89320
X126000Y-91860
X126000Y-94400
X126000Y-96940
X126000Y-99480
X126000Y-102020
X141240Y-69000
X141240Y-71540
X141240Y-74080
X141240Y-76620
X141240Y-79160
X141240Y-81700
X141240Y-84240
X141240Y-86780
X141240Y-89320
X141240Y-91860
X141240Y-94400
X141240Y-96940
X141240Y-99480
X141240Y-102020
T3
X128850Y-54150
X128850Y-56690
X128850Y-59230
X128850Y-61770
X128850Y-64310
X145340Y-105750
X147880Y-105750
X150420Y-105750
X152960Y-105750
X155500Y-105750
T4
X147000Y-54750
X147000Y-63750
T0
M30
