G04 #@! TF.GenerationSoftware,KiCad,Pcbnew,(5.1.6)-1*
G04 #@! TF.CreationDate,2020-07-20T19:56:41+03:00*
G04 #@! TF.ProjectId,CPC_MultiROM_01,4350435f-4d75-46c7-9469-524f4d5f3031,rev?*
G04 #@! TF.SameCoordinates,Original*
G04 #@! TF.FileFunction,Profile,NP*
%FSLAX46Y46*%
G04 Gerber Fmt 4.6, Leading zero omitted, Abs format (unit mm)*
G04 Created by KiCad (PCBNEW (5.1.6)-1) date 2020-07-20 19:56:41*
%MOMM*%
%LPD*%
G01*
G04 APERTURE LIST*
G04 #@! TA.AperFunction,Profile*
%ADD10C,0.050000*%
G04 #@! TD*
G04 APERTURE END LIST*
D10*
X123250000Y-66500000D02*
X125750000Y-66500000D01*
X123250000Y-67300000D02*
X123250000Y-66500000D01*
X125750000Y-66500000D02*
X125750000Y-67300000D01*
X125750000Y-67300000D02*
X123250000Y-67300000D01*
X129500000Y-67300000D02*
X127000000Y-67300000D01*
X127000000Y-66500000D02*
X129500000Y-66500000D01*
X129500000Y-66500000D02*
X129500000Y-67300000D01*
X127000000Y-67300000D02*
X127000000Y-66500000D01*
X130750000Y-66500000D02*
X133250000Y-66500000D01*
X130750000Y-67300000D02*
X130750000Y-66500000D01*
X133250000Y-67300000D02*
X130750000Y-67300000D01*
X133250000Y-66500000D02*
X133250000Y-67300000D01*
X137000000Y-66500000D02*
X137000000Y-67300000D01*
X137000000Y-67300000D02*
X134500000Y-67300000D01*
X134500000Y-66500000D02*
X137000000Y-66500000D01*
X134500000Y-67300000D02*
X134500000Y-66500000D01*
X138250000Y-66500000D02*
X140750000Y-66500000D01*
X140750000Y-67300000D02*
X138250000Y-67300000D01*
X138250000Y-67300000D02*
X138250000Y-66500000D01*
X140750000Y-66500000D02*
X140750000Y-67300000D01*
X142000000Y-66500000D02*
X149000000Y-66500000D01*
X142000000Y-67300000D02*
X142000000Y-66500000D01*
X149000000Y-67300000D02*
X142000000Y-67300000D01*
X149000000Y-66500000D02*
X149000000Y-67300000D01*
X157480000Y-108966000D02*
X122174000Y-108966000D01*
X162560000Y-103632000D02*
X157480000Y-108966000D01*
X162560000Y-67310000D02*
X162560000Y-103632000D01*
X150114000Y-67310000D02*
X162560000Y-67310000D01*
X150114000Y-52070000D02*
X150114000Y-67310000D01*
X122174000Y-52070000D02*
X150114000Y-52070000D01*
X122174000Y-108966000D02*
X122174000Y-52070000D01*
M02*
