G04 #@! TF.GenerationSoftware,KiCad,Pcbnew,(5.1.6)-1*
G04 #@! TF.CreationDate,2020-07-20T19:56:41+03:00*
G04 #@! TF.ProjectId,CPC_MultiROM_01,4350435f-4d75-46c7-9469-524f4d5f3031,rev?*
G04 #@! TF.SameCoordinates,Original*
G04 #@! TF.FileFunction,Soldermask,Bot*
G04 #@! TF.FilePolarity,Negative*
%FSLAX46Y46*%
G04 Gerber Fmt 4.6, Leading zero omitted, Abs format (unit mm)*
G04 Created by KiCad (PCBNEW (5.1.6)-1) date 2020-07-20 19:56:41*
%MOMM*%
%LPD*%
G01*
G04 APERTURE LIST*
%ADD10C,0.100000*%
G04 APERTURE END LIST*
D10*
G36*
X138988228Y-106281703D02*
G01*
X139143100Y-106345853D01*
X139282481Y-106438985D01*
X139401015Y-106557519D01*
X139494147Y-106696900D01*
X139558297Y-106851772D01*
X139591000Y-107016184D01*
X139591000Y-107183816D01*
X139558297Y-107348228D01*
X139494147Y-107503100D01*
X139401015Y-107642481D01*
X139282481Y-107761015D01*
X139143100Y-107854147D01*
X138988228Y-107918297D01*
X138823816Y-107951000D01*
X138656184Y-107951000D01*
X138491772Y-107918297D01*
X138336900Y-107854147D01*
X138197519Y-107761015D01*
X138078985Y-107642481D01*
X137985853Y-107503100D01*
X137921703Y-107348228D01*
X137889000Y-107183816D01*
X137889000Y-107016184D01*
X137921703Y-106851772D01*
X137985853Y-106696900D01*
X138078985Y-106557519D01*
X138197519Y-106438985D01*
X138336900Y-106345853D01*
X138491772Y-106281703D01*
X138656184Y-106249000D01*
X138823816Y-106249000D01*
X138988228Y-106281703D01*
G37*
G36*
X123748228Y-106281703D02*
G01*
X123903100Y-106345853D01*
X124042481Y-106438985D01*
X124161015Y-106557519D01*
X124254147Y-106696900D01*
X124318297Y-106851772D01*
X124351000Y-107016184D01*
X124351000Y-107183816D01*
X124318297Y-107348228D01*
X124254147Y-107503100D01*
X124161015Y-107642481D01*
X124042481Y-107761015D01*
X123903100Y-107854147D01*
X123748228Y-107918297D01*
X123583816Y-107951000D01*
X123416184Y-107951000D01*
X123251772Y-107918297D01*
X123096900Y-107854147D01*
X122957519Y-107761015D01*
X122838985Y-107642481D01*
X122745853Y-107503100D01*
X122681703Y-107348228D01*
X122649000Y-107183816D01*
X122649000Y-107016184D01*
X122681703Y-106851772D01*
X122745853Y-106696900D01*
X122838985Y-106557519D01*
X122957519Y-106438985D01*
X123096900Y-106345853D01*
X123251772Y-106281703D01*
X123416184Y-106249000D01*
X123583816Y-106249000D01*
X123748228Y-106281703D01*
G37*
G36*
X153073512Y-104853927D02*
G01*
X153222812Y-104883624D01*
X153386784Y-104951544D01*
X153534354Y-105050147D01*
X153659853Y-105175646D01*
X153758456Y-105323216D01*
X153826376Y-105487188D01*
X153861000Y-105661259D01*
X153861000Y-105838741D01*
X153826376Y-106012812D01*
X153758456Y-106176784D01*
X153659853Y-106324354D01*
X153534354Y-106449853D01*
X153386784Y-106548456D01*
X153222812Y-106616376D01*
X153073512Y-106646073D01*
X153048742Y-106651000D01*
X152871258Y-106651000D01*
X152846488Y-106646073D01*
X152697188Y-106616376D01*
X152533216Y-106548456D01*
X152385646Y-106449853D01*
X152260147Y-106324354D01*
X152161544Y-106176784D01*
X152093624Y-106012812D01*
X152059000Y-105838741D01*
X152059000Y-105661259D01*
X152093624Y-105487188D01*
X152161544Y-105323216D01*
X152260147Y-105175646D01*
X152385646Y-105050147D01*
X152533216Y-104951544D01*
X152697188Y-104883624D01*
X152846488Y-104853927D01*
X152871258Y-104849000D01*
X153048742Y-104849000D01*
X153073512Y-104853927D01*
G37*
G36*
X150533512Y-104853927D02*
G01*
X150682812Y-104883624D01*
X150846784Y-104951544D01*
X150994354Y-105050147D01*
X151119853Y-105175646D01*
X151218456Y-105323216D01*
X151286376Y-105487188D01*
X151321000Y-105661259D01*
X151321000Y-105838741D01*
X151286376Y-106012812D01*
X151218456Y-106176784D01*
X151119853Y-106324354D01*
X150994354Y-106449853D01*
X150846784Y-106548456D01*
X150682812Y-106616376D01*
X150533512Y-106646073D01*
X150508742Y-106651000D01*
X150331258Y-106651000D01*
X150306488Y-106646073D01*
X150157188Y-106616376D01*
X149993216Y-106548456D01*
X149845646Y-106449853D01*
X149720147Y-106324354D01*
X149621544Y-106176784D01*
X149553624Y-106012812D01*
X149519000Y-105838741D01*
X149519000Y-105661259D01*
X149553624Y-105487188D01*
X149621544Y-105323216D01*
X149720147Y-105175646D01*
X149845646Y-105050147D01*
X149993216Y-104951544D01*
X150157188Y-104883624D01*
X150306488Y-104853927D01*
X150331258Y-104849000D01*
X150508742Y-104849000D01*
X150533512Y-104853927D01*
G37*
G36*
X156401000Y-106651000D02*
G01*
X154599000Y-106651000D01*
X154599000Y-104849000D01*
X156401000Y-104849000D01*
X156401000Y-106651000D01*
G37*
G36*
X145453512Y-104853927D02*
G01*
X145602812Y-104883624D01*
X145766784Y-104951544D01*
X145914354Y-105050147D01*
X146039853Y-105175646D01*
X146138456Y-105323216D01*
X146206376Y-105487188D01*
X146241000Y-105661259D01*
X146241000Y-105838741D01*
X146206376Y-106012812D01*
X146138456Y-106176784D01*
X146039853Y-106324354D01*
X145914354Y-106449853D01*
X145766784Y-106548456D01*
X145602812Y-106616376D01*
X145453512Y-106646073D01*
X145428742Y-106651000D01*
X145251258Y-106651000D01*
X145226488Y-106646073D01*
X145077188Y-106616376D01*
X144913216Y-106548456D01*
X144765646Y-106449853D01*
X144640147Y-106324354D01*
X144541544Y-106176784D01*
X144473624Y-106012812D01*
X144439000Y-105838741D01*
X144439000Y-105661259D01*
X144473624Y-105487188D01*
X144541544Y-105323216D01*
X144640147Y-105175646D01*
X144765646Y-105050147D01*
X144913216Y-104951544D01*
X145077188Y-104883624D01*
X145226488Y-104853927D01*
X145251258Y-104849000D01*
X145428742Y-104849000D01*
X145453512Y-104853927D01*
G37*
G36*
X147993512Y-104853927D02*
G01*
X148142812Y-104883624D01*
X148306784Y-104951544D01*
X148454354Y-105050147D01*
X148579853Y-105175646D01*
X148678456Y-105323216D01*
X148746376Y-105487188D01*
X148781000Y-105661259D01*
X148781000Y-105838741D01*
X148746376Y-106012812D01*
X148678456Y-106176784D01*
X148579853Y-106324354D01*
X148454354Y-106449853D01*
X148306784Y-106548456D01*
X148142812Y-106616376D01*
X147993512Y-106646073D01*
X147968742Y-106651000D01*
X147791258Y-106651000D01*
X147766488Y-106646073D01*
X147617188Y-106616376D01*
X147453216Y-106548456D01*
X147305646Y-106449853D01*
X147180147Y-106324354D01*
X147081544Y-106176784D01*
X147013624Y-106012812D01*
X146979000Y-105838741D01*
X146979000Y-105661259D01*
X147013624Y-105487188D01*
X147081544Y-105323216D01*
X147180147Y-105175646D01*
X147305646Y-105050147D01*
X147453216Y-104951544D01*
X147617188Y-104883624D01*
X147766488Y-104853927D01*
X147791258Y-104849000D01*
X147968742Y-104849000D01*
X147993512Y-104853927D01*
G37*
G36*
X138988228Y-103741703D02*
G01*
X139143100Y-103805853D01*
X139282481Y-103898985D01*
X139401015Y-104017519D01*
X139494147Y-104156900D01*
X139558297Y-104311772D01*
X139591000Y-104476184D01*
X139591000Y-104643816D01*
X139558297Y-104808228D01*
X139494147Y-104963100D01*
X139401015Y-105102481D01*
X139282481Y-105221015D01*
X139143100Y-105314147D01*
X138988228Y-105378297D01*
X138823816Y-105411000D01*
X138656184Y-105411000D01*
X138491772Y-105378297D01*
X138336900Y-105314147D01*
X138197519Y-105221015D01*
X138078985Y-105102481D01*
X137985853Y-104963100D01*
X137921703Y-104808228D01*
X137889000Y-104643816D01*
X137889000Y-104476184D01*
X137921703Y-104311772D01*
X137985853Y-104156900D01*
X138078985Y-104017519D01*
X138197519Y-103898985D01*
X138336900Y-103805853D01*
X138491772Y-103741703D01*
X138656184Y-103709000D01*
X138823816Y-103709000D01*
X138988228Y-103741703D01*
G37*
G36*
X123748228Y-103741703D02*
G01*
X123903100Y-103805853D01*
X124042481Y-103898985D01*
X124161015Y-104017519D01*
X124254147Y-104156900D01*
X124318297Y-104311772D01*
X124351000Y-104476184D01*
X124351000Y-104643816D01*
X124318297Y-104808228D01*
X124254147Y-104963100D01*
X124161015Y-105102481D01*
X124042481Y-105221015D01*
X123903100Y-105314147D01*
X123748228Y-105378297D01*
X123583816Y-105411000D01*
X123416184Y-105411000D01*
X123251772Y-105378297D01*
X123096900Y-105314147D01*
X122957519Y-105221015D01*
X122838985Y-105102481D01*
X122745853Y-104963100D01*
X122681703Y-104808228D01*
X122649000Y-104643816D01*
X122649000Y-104476184D01*
X122681703Y-104311772D01*
X122745853Y-104156900D01*
X122838985Y-104017519D01*
X122957519Y-103898985D01*
X123096900Y-103805853D01*
X123251772Y-103741703D01*
X123416184Y-103709000D01*
X123583816Y-103709000D01*
X123748228Y-103741703D01*
G37*
G36*
X146248228Y-101201703D02*
G01*
X146403100Y-101265853D01*
X146542481Y-101358985D01*
X146661015Y-101477519D01*
X146754147Y-101616900D01*
X146818297Y-101771772D01*
X146851000Y-101936184D01*
X146851000Y-102103816D01*
X146818297Y-102268228D01*
X146754147Y-102423100D01*
X146661015Y-102562481D01*
X146542481Y-102681015D01*
X146403100Y-102774147D01*
X146248228Y-102838297D01*
X146083816Y-102871000D01*
X145916184Y-102871000D01*
X145751772Y-102838297D01*
X145596900Y-102774147D01*
X145457519Y-102681015D01*
X145338985Y-102562481D01*
X145245853Y-102423100D01*
X145181703Y-102268228D01*
X145149000Y-102103816D01*
X145149000Y-101936184D01*
X145181703Y-101771772D01*
X145245853Y-101616900D01*
X145338985Y-101477519D01*
X145457519Y-101358985D01*
X145596900Y-101265853D01*
X145751772Y-101201703D01*
X145916184Y-101169000D01*
X146083816Y-101169000D01*
X146248228Y-101201703D01*
G37*
G36*
X161488228Y-101201703D02*
G01*
X161643100Y-101265853D01*
X161782481Y-101358985D01*
X161901015Y-101477519D01*
X161994147Y-101616900D01*
X162058297Y-101771772D01*
X162091000Y-101936184D01*
X162091000Y-102103816D01*
X162058297Y-102268228D01*
X161994147Y-102423100D01*
X161901015Y-102562481D01*
X161782481Y-102681015D01*
X161643100Y-102774147D01*
X161488228Y-102838297D01*
X161323816Y-102871000D01*
X161156184Y-102871000D01*
X160991772Y-102838297D01*
X160836900Y-102774147D01*
X160697519Y-102681015D01*
X160578985Y-102562481D01*
X160485853Y-102423100D01*
X160421703Y-102268228D01*
X160389000Y-102103816D01*
X160389000Y-101936184D01*
X160421703Y-101771772D01*
X160485853Y-101616900D01*
X160578985Y-101477519D01*
X160697519Y-101358985D01*
X160836900Y-101265853D01*
X160991772Y-101201703D01*
X161156184Y-101169000D01*
X161323816Y-101169000D01*
X161488228Y-101201703D01*
G37*
G36*
X143748228Y-101201703D02*
G01*
X143903100Y-101265853D01*
X144042481Y-101358985D01*
X144161015Y-101477519D01*
X144254147Y-101616900D01*
X144318297Y-101771772D01*
X144351000Y-101936184D01*
X144351000Y-102103816D01*
X144318297Y-102268228D01*
X144254147Y-102423100D01*
X144161015Y-102562481D01*
X144042481Y-102681015D01*
X143903100Y-102774147D01*
X143748228Y-102838297D01*
X143583816Y-102871000D01*
X143416184Y-102871000D01*
X143251772Y-102838297D01*
X143096900Y-102774147D01*
X142957519Y-102681015D01*
X142838985Y-102562481D01*
X142745853Y-102423100D01*
X142681703Y-102268228D01*
X142649000Y-102103816D01*
X142649000Y-101936184D01*
X142681703Y-101771772D01*
X142745853Y-101616900D01*
X142838985Y-101477519D01*
X142957519Y-101358985D01*
X143096900Y-101265853D01*
X143251772Y-101201703D01*
X143416184Y-101169000D01*
X143583816Y-101169000D01*
X143748228Y-101201703D01*
G37*
G36*
X123748228Y-101201703D02*
G01*
X123903100Y-101265853D01*
X124042481Y-101358985D01*
X124161015Y-101477519D01*
X124254147Y-101616900D01*
X124318297Y-101771772D01*
X124351000Y-101936184D01*
X124351000Y-102103816D01*
X124318297Y-102268228D01*
X124254147Y-102423100D01*
X124161015Y-102562481D01*
X124042481Y-102681015D01*
X123903100Y-102774147D01*
X123748228Y-102838297D01*
X123583816Y-102871000D01*
X123416184Y-102871000D01*
X123251772Y-102838297D01*
X123096900Y-102774147D01*
X122957519Y-102681015D01*
X122838985Y-102562481D01*
X122745853Y-102423100D01*
X122681703Y-102268228D01*
X122649000Y-102103816D01*
X122649000Y-101936184D01*
X122681703Y-101771772D01*
X122745853Y-101616900D01*
X122838985Y-101477519D01*
X122957519Y-101358985D01*
X123096900Y-101265853D01*
X123251772Y-101201703D01*
X123416184Y-101169000D01*
X123583816Y-101169000D01*
X123748228Y-101201703D01*
G37*
G36*
X126248228Y-101201703D02*
G01*
X126403100Y-101265853D01*
X126542481Y-101358985D01*
X126661015Y-101477519D01*
X126754147Y-101616900D01*
X126818297Y-101771772D01*
X126851000Y-101936184D01*
X126851000Y-102103816D01*
X126818297Y-102268228D01*
X126754147Y-102423100D01*
X126661015Y-102562481D01*
X126542481Y-102681015D01*
X126403100Y-102774147D01*
X126248228Y-102838297D01*
X126083816Y-102871000D01*
X125916184Y-102871000D01*
X125751772Y-102838297D01*
X125596900Y-102774147D01*
X125457519Y-102681015D01*
X125338985Y-102562481D01*
X125245853Y-102423100D01*
X125181703Y-102268228D01*
X125149000Y-102103816D01*
X125149000Y-101936184D01*
X125181703Y-101771772D01*
X125245853Y-101616900D01*
X125338985Y-101477519D01*
X125457519Y-101358985D01*
X125596900Y-101265853D01*
X125751772Y-101201703D01*
X125916184Y-101169000D01*
X126083816Y-101169000D01*
X126248228Y-101201703D01*
G37*
G36*
X141488228Y-101201703D02*
G01*
X141643100Y-101265853D01*
X141782481Y-101358985D01*
X141901015Y-101477519D01*
X141994147Y-101616900D01*
X142058297Y-101771772D01*
X142091000Y-101936184D01*
X142091000Y-102103816D01*
X142058297Y-102268228D01*
X141994147Y-102423100D01*
X141901015Y-102562481D01*
X141782481Y-102681015D01*
X141643100Y-102774147D01*
X141488228Y-102838297D01*
X141323816Y-102871000D01*
X141156184Y-102871000D01*
X140991772Y-102838297D01*
X140836900Y-102774147D01*
X140697519Y-102681015D01*
X140578985Y-102562481D01*
X140485853Y-102423100D01*
X140421703Y-102268228D01*
X140389000Y-102103816D01*
X140389000Y-101936184D01*
X140421703Y-101771772D01*
X140485853Y-101616900D01*
X140578985Y-101477519D01*
X140697519Y-101358985D01*
X140836900Y-101265853D01*
X140991772Y-101201703D01*
X141156184Y-101169000D01*
X141323816Y-101169000D01*
X141488228Y-101201703D01*
G37*
G36*
X158988228Y-101201703D02*
G01*
X159143100Y-101265853D01*
X159282481Y-101358985D01*
X159401015Y-101477519D01*
X159494147Y-101616900D01*
X159558297Y-101771772D01*
X159591000Y-101936184D01*
X159591000Y-102103816D01*
X159558297Y-102268228D01*
X159494147Y-102423100D01*
X159401015Y-102562481D01*
X159282481Y-102681015D01*
X159143100Y-102774147D01*
X158988228Y-102838297D01*
X158823816Y-102871000D01*
X158656184Y-102871000D01*
X158491772Y-102838297D01*
X158336900Y-102774147D01*
X158197519Y-102681015D01*
X158078985Y-102562481D01*
X157985853Y-102423100D01*
X157921703Y-102268228D01*
X157889000Y-102103816D01*
X157889000Y-101936184D01*
X157921703Y-101771772D01*
X157985853Y-101616900D01*
X158078985Y-101477519D01*
X158197519Y-101358985D01*
X158336900Y-101265853D01*
X158491772Y-101201703D01*
X158656184Y-101169000D01*
X158823816Y-101169000D01*
X158988228Y-101201703D01*
G37*
G36*
X138988228Y-101201703D02*
G01*
X139143100Y-101265853D01*
X139282481Y-101358985D01*
X139401015Y-101477519D01*
X139494147Y-101616900D01*
X139558297Y-101771772D01*
X139591000Y-101936184D01*
X139591000Y-102103816D01*
X139558297Y-102268228D01*
X139494147Y-102423100D01*
X139401015Y-102562481D01*
X139282481Y-102681015D01*
X139143100Y-102774147D01*
X138988228Y-102838297D01*
X138823816Y-102871000D01*
X138656184Y-102871000D01*
X138491772Y-102838297D01*
X138336900Y-102774147D01*
X138197519Y-102681015D01*
X138078985Y-102562481D01*
X137985853Y-102423100D01*
X137921703Y-102268228D01*
X137889000Y-102103816D01*
X137889000Y-101936184D01*
X137921703Y-101771772D01*
X137985853Y-101616900D01*
X138078985Y-101477519D01*
X138197519Y-101358985D01*
X138336900Y-101265853D01*
X138491772Y-101201703D01*
X138656184Y-101169000D01*
X138823816Y-101169000D01*
X138988228Y-101201703D01*
G37*
G36*
X131058228Y-98681703D02*
G01*
X131213100Y-98745853D01*
X131352481Y-98838985D01*
X131471015Y-98957519D01*
X131564147Y-99096900D01*
X131628297Y-99251772D01*
X131661000Y-99416184D01*
X131661000Y-99583816D01*
X131628297Y-99748228D01*
X131564147Y-99903100D01*
X131471015Y-100042481D01*
X131352481Y-100161015D01*
X131213100Y-100254147D01*
X131058228Y-100318297D01*
X130893816Y-100351000D01*
X130726184Y-100351000D01*
X130561772Y-100318297D01*
X130406900Y-100254147D01*
X130267519Y-100161015D01*
X130148985Y-100042481D01*
X130055853Y-99903100D01*
X129991703Y-99748228D01*
X129959000Y-99583816D01*
X129959000Y-99416184D01*
X129991703Y-99251772D01*
X130055853Y-99096900D01*
X130148985Y-98957519D01*
X130267519Y-98838985D01*
X130406900Y-98745853D01*
X130561772Y-98681703D01*
X130726184Y-98649000D01*
X130893816Y-98649000D01*
X131058228Y-98681703D01*
G37*
G36*
X134248228Y-98681703D02*
G01*
X134403100Y-98745853D01*
X134542481Y-98838985D01*
X134661015Y-98957519D01*
X134754147Y-99096900D01*
X134818297Y-99251772D01*
X134851000Y-99416184D01*
X134851000Y-99583816D01*
X134818297Y-99748228D01*
X134754147Y-99903100D01*
X134661015Y-100042481D01*
X134542481Y-100161015D01*
X134403100Y-100254147D01*
X134248228Y-100318297D01*
X134083816Y-100351000D01*
X133916184Y-100351000D01*
X133751772Y-100318297D01*
X133596900Y-100254147D01*
X133457519Y-100161015D01*
X133338985Y-100042481D01*
X133245853Y-99903100D01*
X133181703Y-99748228D01*
X133149000Y-99583816D01*
X133149000Y-99416184D01*
X133181703Y-99251772D01*
X133245853Y-99096900D01*
X133338985Y-98957519D01*
X133457519Y-98838985D01*
X133596900Y-98745853D01*
X133751772Y-98681703D01*
X133916184Y-98649000D01*
X134083816Y-98649000D01*
X134248228Y-98681703D01*
G37*
G36*
X150870228Y-98681703D02*
G01*
X151025100Y-98745853D01*
X151164481Y-98838985D01*
X151283015Y-98957519D01*
X151376147Y-99096900D01*
X151440297Y-99251772D01*
X151473000Y-99416184D01*
X151473000Y-99583816D01*
X151440297Y-99748228D01*
X151376147Y-99903100D01*
X151283015Y-100042481D01*
X151164481Y-100161015D01*
X151025100Y-100254147D01*
X150870228Y-100318297D01*
X150705816Y-100351000D01*
X150538184Y-100351000D01*
X150373772Y-100318297D01*
X150218900Y-100254147D01*
X150079519Y-100161015D01*
X149960985Y-100042481D01*
X149867853Y-99903100D01*
X149803703Y-99748228D01*
X149771000Y-99583816D01*
X149771000Y-99416184D01*
X149803703Y-99251772D01*
X149867853Y-99096900D01*
X149960985Y-98957519D01*
X150079519Y-98838985D01*
X150218900Y-98745853D01*
X150373772Y-98681703D01*
X150538184Y-98649000D01*
X150705816Y-98649000D01*
X150870228Y-98681703D01*
G37*
G36*
X153998228Y-98681703D02*
G01*
X154153100Y-98745853D01*
X154292481Y-98838985D01*
X154411015Y-98957519D01*
X154504147Y-99096900D01*
X154568297Y-99251772D01*
X154601000Y-99416184D01*
X154601000Y-99583816D01*
X154568297Y-99748228D01*
X154504147Y-99903100D01*
X154411015Y-100042481D01*
X154292481Y-100161015D01*
X154153100Y-100254147D01*
X153998228Y-100318297D01*
X153833816Y-100351000D01*
X153666184Y-100351000D01*
X153501772Y-100318297D01*
X153346900Y-100254147D01*
X153207519Y-100161015D01*
X153088985Y-100042481D01*
X152995853Y-99903100D01*
X152931703Y-99748228D01*
X152899000Y-99583816D01*
X152899000Y-99416184D01*
X152931703Y-99251772D01*
X152995853Y-99096900D01*
X153088985Y-98957519D01*
X153207519Y-98838985D01*
X153346900Y-98745853D01*
X153501772Y-98681703D01*
X153666184Y-98649000D01*
X153833816Y-98649000D01*
X153998228Y-98681703D01*
G37*
G36*
X146248228Y-98661703D02*
G01*
X146403100Y-98725853D01*
X146542481Y-98818985D01*
X146661015Y-98937519D01*
X146754147Y-99076900D01*
X146818297Y-99231772D01*
X146851000Y-99396184D01*
X146851000Y-99563816D01*
X146818297Y-99728228D01*
X146754147Y-99883100D01*
X146661015Y-100022481D01*
X146542481Y-100141015D01*
X146403100Y-100234147D01*
X146248228Y-100298297D01*
X146083816Y-100331000D01*
X145916184Y-100331000D01*
X145751772Y-100298297D01*
X145596900Y-100234147D01*
X145457519Y-100141015D01*
X145338985Y-100022481D01*
X145245853Y-99883100D01*
X145181703Y-99728228D01*
X145149000Y-99563816D01*
X145149000Y-99396184D01*
X145181703Y-99231772D01*
X145245853Y-99076900D01*
X145338985Y-98937519D01*
X145457519Y-98818985D01*
X145596900Y-98725853D01*
X145751772Y-98661703D01*
X145916184Y-98629000D01*
X146083816Y-98629000D01*
X146248228Y-98661703D01*
G37*
G36*
X158988228Y-98661703D02*
G01*
X159143100Y-98725853D01*
X159282481Y-98818985D01*
X159401015Y-98937519D01*
X159494147Y-99076900D01*
X159558297Y-99231772D01*
X159591000Y-99396184D01*
X159591000Y-99563816D01*
X159558297Y-99728228D01*
X159494147Y-99883100D01*
X159401015Y-100022481D01*
X159282481Y-100141015D01*
X159143100Y-100234147D01*
X158988228Y-100298297D01*
X158823816Y-100331000D01*
X158656184Y-100331000D01*
X158491772Y-100298297D01*
X158336900Y-100234147D01*
X158197519Y-100141015D01*
X158078985Y-100022481D01*
X157985853Y-99883100D01*
X157921703Y-99728228D01*
X157889000Y-99563816D01*
X157889000Y-99396184D01*
X157921703Y-99231772D01*
X157985853Y-99076900D01*
X158078985Y-98937519D01*
X158197519Y-98818985D01*
X158336900Y-98725853D01*
X158491772Y-98661703D01*
X158656184Y-98629000D01*
X158823816Y-98629000D01*
X158988228Y-98661703D01*
G37*
G36*
X123748228Y-98661703D02*
G01*
X123903100Y-98725853D01*
X124042481Y-98818985D01*
X124161015Y-98937519D01*
X124254147Y-99076900D01*
X124318297Y-99231772D01*
X124351000Y-99396184D01*
X124351000Y-99563816D01*
X124318297Y-99728228D01*
X124254147Y-99883100D01*
X124161015Y-100022481D01*
X124042481Y-100141015D01*
X123903100Y-100234147D01*
X123748228Y-100298297D01*
X123583816Y-100331000D01*
X123416184Y-100331000D01*
X123251772Y-100298297D01*
X123096900Y-100234147D01*
X122957519Y-100141015D01*
X122838985Y-100022481D01*
X122745853Y-99883100D01*
X122681703Y-99728228D01*
X122649000Y-99563816D01*
X122649000Y-99396184D01*
X122681703Y-99231772D01*
X122745853Y-99076900D01*
X122838985Y-98937519D01*
X122957519Y-98818985D01*
X123096900Y-98725853D01*
X123251772Y-98661703D01*
X123416184Y-98629000D01*
X123583816Y-98629000D01*
X123748228Y-98661703D01*
G37*
G36*
X138988228Y-98661703D02*
G01*
X139143100Y-98725853D01*
X139282481Y-98818985D01*
X139401015Y-98937519D01*
X139494147Y-99076900D01*
X139558297Y-99231772D01*
X139591000Y-99396184D01*
X139591000Y-99563816D01*
X139558297Y-99728228D01*
X139494147Y-99883100D01*
X139401015Y-100022481D01*
X139282481Y-100141015D01*
X139143100Y-100234147D01*
X138988228Y-100298297D01*
X138823816Y-100331000D01*
X138656184Y-100331000D01*
X138491772Y-100298297D01*
X138336900Y-100234147D01*
X138197519Y-100141015D01*
X138078985Y-100022481D01*
X137985853Y-99883100D01*
X137921703Y-99728228D01*
X137889000Y-99563816D01*
X137889000Y-99396184D01*
X137921703Y-99231772D01*
X137985853Y-99076900D01*
X138078985Y-98937519D01*
X138197519Y-98818985D01*
X138336900Y-98725853D01*
X138491772Y-98661703D01*
X138656184Y-98629000D01*
X138823816Y-98629000D01*
X138988228Y-98661703D01*
G37*
G36*
X143748228Y-98661703D02*
G01*
X143903100Y-98725853D01*
X144042481Y-98818985D01*
X144161015Y-98937519D01*
X144254147Y-99076900D01*
X144318297Y-99231772D01*
X144351000Y-99396184D01*
X144351000Y-99563816D01*
X144318297Y-99728228D01*
X144254147Y-99883100D01*
X144161015Y-100022481D01*
X144042481Y-100141015D01*
X143903100Y-100234147D01*
X143748228Y-100298297D01*
X143583816Y-100331000D01*
X143416184Y-100331000D01*
X143251772Y-100298297D01*
X143096900Y-100234147D01*
X142957519Y-100141015D01*
X142838985Y-100022481D01*
X142745853Y-99883100D01*
X142681703Y-99728228D01*
X142649000Y-99563816D01*
X142649000Y-99396184D01*
X142681703Y-99231772D01*
X142745853Y-99076900D01*
X142838985Y-98937519D01*
X142957519Y-98818985D01*
X143096900Y-98725853D01*
X143251772Y-98661703D01*
X143416184Y-98629000D01*
X143583816Y-98629000D01*
X143748228Y-98661703D01*
G37*
G36*
X126248228Y-98661703D02*
G01*
X126403100Y-98725853D01*
X126542481Y-98818985D01*
X126661015Y-98937519D01*
X126754147Y-99076900D01*
X126818297Y-99231772D01*
X126851000Y-99396184D01*
X126851000Y-99563816D01*
X126818297Y-99728228D01*
X126754147Y-99883100D01*
X126661015Y-100022481D01*
X126542481Y-100141015D01*
X126403100Y-100234147D01*
X126248228Y-100298297D01*
X126083816Y-100331000D01*
X125916184Y-100331000D01*
X125751772Y-100298297D01*
X125596900Y-100234147D01*
X125457519Y-100141015D01*
X125338985Y-100022481D01*
X125245853Y-99883100D01*
X125181703Y-99728228D01*
X125149000Y-99563816D01*
X125149000Y-99396184D01*
X125181703Y-99231772D01*
X125245853Y-99076900D01*
X125338985Y-98937519D01*
X125457519Y-98818985D01*
X125596900Y-98725853D01*
X125751772Y-98661703D01*
X125916184Y-98629000D01*
X126083816Y-98629000D01*
X126248228Y-98661703D01*
G37*
G36*
X141488228Y-98661703D02*
G01*
X141643100Y-98725853D01*
X141782481Y-98818985D01*
X141901015Y-98937519D01*
X141994147Y-99076900D01*
X142058297Y-99231772D01*
X142091000Y-99396184D01*
X142091000Y-99563816D01*
X142058297Y-99728228D01*
X141994147Y-99883100D01*
X141901015Y-100022481D01*
X141782481Y-100141015D01*
X141643100Y-100234147D01*
X141488228Y-100298297D01*
X141323816Y-100331000D01*
X141156184Y-100331000D01*
X140991772Y-100298297D01*
X140836900Y-100234147D01*
X140697519Y-100141015D01*
X140578985Y-100022481D01*
X140485853Y-99883100D01*
X140421703Y-99728228D01*
X140389000Y-99563816D01*
X140389000Y-99396184D01*
X140421703Y-99231772D01*
X140485853Y-99076900D01*
X140578985Y-98937519D01*
X140697519Y-98818985D01*
X140836900Y-98725853D01*
X140991772Y-98661703D01*
X141156184Y-98629000D01*
X141323816Y-98629000D01*
X141488228Y-98661703D01*
G37*
G36*
X161488228Y-98661703D02*
G01*
X161643100Y-98725853D01*
X161782481Y-98818985D01*
X161901015Y-98937519D01*
X161994147Y-99076900D01*
X162058297Y-99231772D01*
X162091000Y-99396184D01*
X162091000Y-99563816D01*
X162058297Y-99728228D01*
X161994147Y-99883100D01*
X161901015Y-100022481D01*
X161782481Y-100141015D01*
X161643100Y-100234147D01*
X161488228Y-100298297D01*
X161323816Y-100331000D01*
X161156184Y-100331000D01*
X160991772Y-100298297D01*
X160836900Y-100234147D01*
X160697519Y-100141015D01*
X160578985Y-100022481D01*
X160485853Y-99883100D01*
X160421703Y-99728228D01*
X160389000Y-99563816D01*
X160389000Y-99396184D01*
X160421703Y-99231772D01*
X160485853Y-99076900D01*
X160578985Y-98937519D01*
X160697519Y-98818985D01*
X160836900Y-98725853D01*
X160991772Y-98661703D01*
X161156184Y-98629000D01*
X161323816Y-98629000D01*
X161488228Y-98661703D01*
G37*
G36*
X158988228Y-96121703D02*
G01*
X159143100Y-96185853D01*
X159282481Y-96278985D01*
X159401015Y-96397519D01*
X159494147Y-96536900D01*
X159558297Y-96691772D01*
X159591000Y-96856184D01*
X159591000Y-97023816D01*
X159558297Y-97188228D01*
X159494147Y-97343100D01*
X159401015Y-97482481D01*
X159282481Y-97601015D01*
X159143100Y-97694147D01*
X158988228Y-97758297D01*
X158823816Y-97791000D01*
X158656184Y-97791000D01*
X158491772Y-97758297D01*
X158336900Y-97694147D01*
X158197519Y-97601015D01*
X158078985Y-97482481D01*
X157985853Y-97343100D01*
X157921703Y-97188228D01*
X157889000Y-97023816D01*
X157889000Y-96856184D01*
X157921703Y-96691772D01*
X157985853Y-96536900D01*
X158078985Y-96397519D01*
X158197519Y-96278985D01*
X158336900Y-96185853D01*
X158491772Y-96121703D01*
X158656184Y-96089000D01*
X158823816Y-96089000D01*
X158988228Y-96121703D01*
G37*
G36*
X161488228Y-96121703D02*
G01*
X161643100Y-96185853D01*
X161782481Y-96278985D01*
X161901015Y-96397519D01*
X161994147Y-96536900D01*
X162058297Y-96691772D01*
X162091000Y-96856184D01*
X162091000Y-97023816D01*
X162058297Y-97188228D01*
X161994147Y-97343100D01*
X161901015Y-97482481D01*
X161782481Y-97601015D01*
X161643100Y-97694147D01*
X161488228Y-97758297D01*
X161323816Y-97791000D01*
X161156184Y-97791000D01*
X160991772Y-97758297D01*
X160836900Y-97694147D01*
X160697519Y-97601015D01*
X160578985Y-97482481D01*
X160485853Y-97343100D01*
X160421703Y-97188228D01*
X160389000Y-97023816D01*
X160389000Y-96856184D01*
X160421703Y-96691772D01*
X160485853Y-96536900D01*
X160578985Y-96397519D01*
X160697519Y-96278985D01*
X160836900Y-96185853D01*
X160991772Y-96121703D01*
X161156184Y-96089000D01*
X161323816Y-96089000D01*
X161488228Y-96121703D01*
G37*
G36*
X146248228Y-96121703D02*
G01*
X146403100Y-96185853D01*
X146542481Y-96278985D01*
X146661015Y-96397519D01*
X146754147Y-96536900D01*
X146818297Y-96691772D01*
X146851000Y-96856184D01*
X146851000Y-97023816D01*
X146818297Y-97188228D01*
X146754147Y-97343100D01*
X146661015Y-97482481D01*
X146542481Y-97601015D01*
X146403100Y-97694147D01*
X146248228Y-97758297D01*
X146083816Y-97791000D01*
X145916184Y-97791000D01*
X145751772Y-97758297D01*
X145596900Y-97694147D01*
X145457519Y-97601015D01*
X145338985Y-97482481D01*
X145245853Y-97343100D01*
X145181703Y-97188228D01*
X145149000Y-97023816D01*
X145149000Y-96856184D01*
X145181703Y-96691772D01*
X145245853Y-96536900D01*
X145338985Y-96397519D01*
X145457519Y-96278985D01*
X145596900Y-96185853D01*
X145751772Y-96121703D01*
X145916184Y-96089000D01*
X146083816Y-96089000D01*
X146248228Y-96121703D01*
G37*
G36*
X143748228Y-96121703D02*
G01*
X143903100Y-96185853D01*
X144042481Y-96278985D01*
X144161015Y-96397519D01*
X144254147Y-96536900D01*
X144318297Y-96691772D01*
X144351000Y-96856184D01*
X144351000Y-97023816D01*
X144318297Y-97188228D01*
X144254147Y-97343100D01*
X144161015Y-97482481D01*
X144042481Y-97601015D01*
X143903100Y-97694147D01*
X143748228Y-97758297D01*
X143583816Y-97791000D01*
X143416184Y-97791000D01*
X143251772Y-97758297D01*
X143096900Y-97694147D01*
X142957519Y-97601015D01*
X142838985Y-97482481D01*
X142745853Y-97343100D01*
X142681703Y-97188228D01*
X142649000Y-97023816D01*
X142649000Y-96856184D01*
X142681703Y-96691772D01*
X142745853Y-96536900D01*
X142838985Y-96397519D01*
X142957519Y-96278985D01*
X143096900Y-96185853D01*
X143251772Y-96121703D01*
X143416184Y-96089000D01*
X143583816Y-96089000D01*
X143748228Y-96121703D01*
G37*
G36*
X141488228Y-96121703D02*
G01*
X141643100Y-96185853D01*
X141782481Y-96278985D01*
X141901015Y-96397519D01*
X141994147Y-96536900D01*
X142058297Y-96691772D01*
X142091000Y-96856184D01*
X142091000Y-97023816D01*
X142058297Y-97188228D01*
X141994147Y-97343100D01*
X141901015Y-97482481D01*
X141782481Y-97601015D01*
X141643100Y-97694147D01*
X141488228Y-97758297D01*
X141323816Y-97791000D01*
X141156184Y-97791000D01*
X140991772Y-97758297D01*
X140836900Y-97694147D01*
X140697519Y-97601015D01*
X140578985Y-97482481D01*
X140485853Y-97343100D01*
X140421703Y-97188228D01*
X140389000Y-97023816D01*
X140389000Y-96856184D01*
X140421703Y-96691772D01*
X140485853Y-96536900D01*
X140578985Y-96397519D01*
X140697519Y-96278985D01*
X140836900Y-96185853D01*
X140991772Y-96121703D01*
X141156184Y-96089000D01*
X141323816Y-96089000D01*
X141488228Y-96121703D01*
G37*
G36*
X123748228Y-96121703D02*
G01*
X123903100Y-96185853D01*
X124042481Y-96278985D01*
X124161015Y-96397519D01*
X124254147Y-96536900D01*
X124318297Y-96691772D01*
X124351000Y-96856184D01*
X124351000Y-97023816D01*
X124318297Y-97188228D01*
X124254147Y-97343100D01*
X124161015Y-97482481D01*
X124042481Y-97601015D01*
X123903100Y-97694147D01*
X123748228Y-97758297D01*
X123583816Y-97791000D01*
X123416184Y-97791000D01*
X123251772Y-97758297D01*
X123096900Y-97694147D01*
X122957519Y-97601015D01*
X122838985Y-97482481D01*
X122745853Y-97343100D01*
X122681703Y-97188228D01*
X122649000Y-97023816D01*
X122649000Y-96856184D01*
X122681703Y-96691772D01*
X122745853Y-96536900D01*
X122838985Y-96397519D01*
X122957519Y-96278985D01*
X123096900Y-96185853D01*
X123251772Y-96121703D01*
X123416184Y-96089000D01*
X123583816Y-96089000D01*
X123748228Y-96121703D01*
G37*
G36*
X138988228Y-96121703D02*
G01*
X139143100Y-96185853D01*
X139282481Y-96278985D01*
X139401015Y-96397519D01*
X139494147Y-96536900D01*
X139558297Y-96691772D01*
X139591000Y-96856184D01*
X139591000Y-97023816D01*
X139558297Y-97188228D01*
X139494147Y-97343100D01*
X139401015Y-97482481D01*
X139282481Y-97601015D01*
X139143100Y-97694147D01*
X138988228Y-97758297D01*
X138823816Y-97791000D01*
X138656184Y-97791000D01*
X138491772Y-97758297D01*
X138336900Y-97694147D01*
X138197519Y-97601015D01*
X138078985Y-97482481D01*
X137985853Y-97343100D01*
X137921703Y-97188228D01*
X137889000Y-97023816D01*
X137889000Y-96856184D01*
X137921703Y-96691772D01*
X137985853Y-96536900D01*
X138078985Y-96397519D01*
X138197519Y-96278985D01*
X138336900Y-96185853D01*
X138491772Y-96121703D01*
X138656184Y-96089000D01*
X138823816Y-96089000D01*
X138988228Y-96121703D01*
G37*
G36*
X126248228Y-96121703D02*
G01*
X126403100Y-96185853D01*
X126542481Y-96278985D01*
X126661015Y-96397519D01*
X126754147Y-96536900D01*
X126818297Y-96691772D01*
X126851000Y-96856184D01*
X126851000Y-97023816D01*
X126818297Y-97188228D01*
X126754147Y-97343100D01*
X126661015Y-97482481D01*
X126542481Y-97601015D01*
X126403100Y-97694147D01*
X126248228Y-97758297D01*
X126083816Y-97791000D01*
X125916184Y-97791000D01*
X125751772Y-97758297D01*
X125596900Y-97694147D01*
X125457519Y-97601015D01*
X125338985Y-97482481D01*
X125245853Y-97343100D01*
X125181703Y-97188228D01*
X125149000Y-97023816D01*
X125149000Y-96856184D01*
X125181703Y-96691772D01*
X125245853Y-96536900D01*
X125338985Y-96397519D01*
X125457519Y-96278985D01*
X125596900Y-96185853D01*
X125751772Y-96121703D01*
X125916184Y-96089000D01*
X126083816Y-96089000D01*
X126248228Y-96121703D01*
G37*
G36*
X146248228Y-93581703D02*
G01*
X146403100Y-93645853D01*
X146542481Y-93738985D01*
X146661015Y-93857519D01*
X146754147Y-93996900D01*
X146818297Y-94151772D01*
X146851000Y-94316184D01*
X146851000Y-94483816D01*
X146818297Y-94648228D01*
X146754147Y-94803100D01*
X146661015Y-94942481D01*
X146542481Y-95061015D01*
X146403100Y-95154147D01*
X146248228Y-95218297D01*
X146083816Y-95251000D01*
X145916184Y-95251000D01*
X145751772Y-95218297D01*
X145596900Y-95154147D01*
X145457519Y-95061015D01*
X145338985Y-94942481D01*
X145245853Y-94803100D01*
X145181703Y-94648228D01*
X145149000Y-94483816D01*
X145149000Y-94316184D01*
X145181703Y-94151772D01*
X145245853Y-93996900D01*
X145338985Y-93857519D01*
X145457519Y-93738985D01*
X145596900Y-93645853D01*
X145751772Y-93581703D01*
X145916184Y-93549000D01*
X146083816Y-93549000D01*
X146248228Y-93581703D01*
G37*
G36*
X158988228Y-93581703D02*
G01*
X159143100Y-93645853D01*
X159282481Y-93738985D01*
X159401015Y-93857519D01*
X159494147Y-93996900D01*
X159558297Y-94151772D01*
X159591000Y-94316184D01*
X159591000Y-94483816D01*
X159558297Y-94648228D01*
X159494147Y-94803100D01*
X159401015Y-94942481D01*
X159282481Y-95061015D01*
X159143100Y-95154147D01*
X158988228Y-95218297D01*
X158823816Y-95251000D01*
X158656184Y-95251000D01*
X158491772Y-95218297D01*
X158336900Y-95154147D01*
X158197519Y-95061015D01*
X158078985Y-94942481D01*
X157985853Y-94803100D01*
X157921703Y-94648228D01*
X157889000Y-94483816D01*
X157889000Y-94316184D01*
X157921703Y-94151772D01*
X157985853Y-93996900D01*
X158078985Y-93857519D01*
X158197519Y-93738985D01*
X158336900Y-93645853D01*
X158491772Y-93581703D01*
X158656184Y-93549000D01*
X158823816Y-93549000D01*
X158988228Y-93581703D01*
G37*
G36*
X143748228Y-93581703D02*
G01*
X143903100Y-93645853D01*
X144042481Y-93738985D01*
X144161015Y-93857519D01*
X144254147Y-93996900D01*
X144318297Y-94151772D01*
X144351000Y-94316184D01*
X144351000Y-94483816D01*
X144318297Y-94648228D01*
X144254147Y-94803100D01*
X144161015Y-94942481D01*
X144042481Y-95061015D01*
X143903100Y-95154147D01*
X143748228Y-95218297D01*
X143583816Y-95251000D01*
X143416184Y-95251000D01*
X143251772Y-95218297D01*
X143096900Y-95154147D01*
X142957519Y-95061015D01*
X142838985Y-94942481D01*
X142745853Y-94803100D01*
X142681703Y-94648228D01*
X142649000Y-94483816D01*
X142649000Y-94316184D01*
X142681703Y-94151772D01*
X142745853Y-93996900D01*
X142838985Y-93857519D01*
X142957519Y-93738985D01*
X143096900Y-93645853D01*
X143251772Y-93581703D01*
X143416184Y-93549000D01*
X143583816Y-93549000D01*
X143748228Y-93581703D01*
G37*
G36*
X138988228Y-93581703D02*
G01*
X139143100Y-93645853D01*
X139282481Y-93738985D01*
X139401015Y-93857519D01*
X139494147Y-93996900D01*
X139558297Y-94151772D01*
X139591000Y-94316184D01*
X139591000Y-94483816D01*
X139558297Y-94648228D01*
X139494147Y-94803100D01*
X139401015Y-94942481D01*
X139282481Y-95061015D01*
X139143100Y-95154147D01*
X138988228Y-95218297D01*
X138823816Y-95251000D01*
X138656184Y-95251000D01*
X138491772Y-95218297D01*
X138336900Y-95154147D01*
X138197519Y-95061015D01*
X138078985Y-94942481D01*
X137985853Y-94803100D01*
X137921703Y-94648228D01*
X137889000Y-94483816D01*
X137889000Y-94316184D01*
X137921703Y-94151772D01*
X137985853Y-93996900D01*
X138078985Y-93857519D01*
X138197519Y-93738985D01*
X138336900Y-93645853D01*
X138491772Y-93581703D01*
X138656184Y-93549000D01*
X138823816Y-93549000D01*
X138988228Y-93581703D01*
G37*
G36*
X123748228Y-93581703D02*
G01*
X123903100Y-93645853D01*
X124042481Y-93738985D01*
X124161015Y-93857519D01*
X124254147Y-93996900D01*
X124318297Y-94151772D01*
X124351000Y-94316184D01*
X124351000Y-94483816D01*
X124318297Y-94648228D01*
X124254147Y-94803100D01*
X124161015Y-94942481D01*
X124042481Y-95061015D01*
X123903100Y-95154147D01*
X123748228Y-95218297D01*
X123583816Y-95251000D01*
X123416184Y-95251000D01*
X123251772Y-95218297D01*
X123096900Y-95154147D01*
X122957519Y-95061015D01*
X122838985Y-94942481D01*
X122745853Y-94803100D01*
X122681703Y-94648228D01*
X122649000Y-94483816D01*
X122649000Y-94316184D01*
X122681703Y-94151772D01*
X122745853Y-93996900D01*
X122838985Y-93857519D01*
X122957519Y-93738985D01*
X123096900Y-93645853D01*
X123251772Y-93581703D01*
X123416184Y-93549000D01*
X123583816Y-93549000D01*
X123748228Y-93581703D01*
G37*
G36*
X141488228Y-93581703D02*
G01*
X141643100Y-93645853D01*
X141782481Y-93738985D01*
X141901015Y-93857519D01*
X141994147Y-93996900D01*
X142058297Y-94151772D01*
X142091000Y-94316184D01*
X142091000Y-94483816D01*
X142058297Y-94648228D01*
X141994147Y-94803100D01*
X141901015Y-94942481D01*
X141782481Y-95061015D01*
X141643100Y-95154147D01*
X141488228Y-95218297D01*
X141323816Y-95251000D01*
X141156184Y-95251000D01*
X140991772Y-95218297D01*
X140836900Y-95154147D01*
X140697519Y-95061015D01*
X140578985Y-94942481D01*
X140485853Y-94803100D01*
X140421703Y-94648228D01*
X140389000Y-94483816D01*
X140389000Y-94316184D01*
X140421703Y-94151772D01*
X140485853Y-93996900D01*
X140578985Y-93857519D01*
X140697519Y-93738985D01*
X140836900Y-93645853D01*
X140991772Y-93581703D01*
X141156184Y-93549000D01*
X141323816Y-93549000D01*
X141488228Y-93581703D01*
G37*
G36*
X126248228Y-93581703D02*
G01*
X126403100Y-93645853D01*
X126542481Y-93738985D01*
X126661015Y-93857519D01*
X126754147Y-93996900D01*
X126818297Y-94151772D01*
X126851000Y-94316184D01*
X126851000Y-94483816D01*
X126818297Y-94648228D01*
X126754147Y-94803100D01*
X126661015Y-94942481D01*
X126542481Y-95061015D01*
X126403100Y-95154147D01*
X126248228Y-95218297D01*
X126083816Y-95251000D01*
X125916184Y-95251000D01*
X125751772Y-95218297D01*
X125596900Y-95154147D01*
X125457519Y-95061015D01*
X125338985Y-94942481D01*
X125245853Y-94803100D01*
X125181703Y-94648228D01*
X125149000Y-94483816D01*
X125149000Y-94316184D01*
X125181703Y-94151772D01*
X125245853Y-93996900D01*
X125338985Y-93857519D01*
X125457519Y-93738985D01*
X125596900Y-93645853D01*
X125751772Y-93581703D01*
X125916184Y-93549000D01*
X126083816Y-93549000D01*
X126248228Y-93581703D01*
G37*
G36*
X161488228Y-93581703D02*
G01*
X161643100Y-93645853D01*
X161782481Y-93738985D01*
X161901015Y-93857519D01*
X161994147Y-93996900D01*
X162058297Y-94151772D01*
X162091000Y-94316184D01*
X162091000Y-94483816D01*
X162058297Y-94648228D01*
X161994147Y-94803100D01*
X161901015Y-94942481D01*
X161782481Y-95061015D01*
X161643100Y-95154147D01*
X161488228Y-95218297D01*
X161323816Y-95251000D01*
X161156184Y-95251000D01*
X160991772Y-95218297D01*
X160836900Y-95154147D01*
X160697519Y-95061015D01*
X160578985Y-94942481D01*
X160485853Y-94803100D01*
X160421703Y-94648228D01*
X160389000Y-94483816D01*
X160389000Y-94316184D01*
X160421703Y-94151772D01*
X160485853Y-93996900D01*
X160578985Y-93857519D01*
X160697519Y-93738985D01*
X160836900Y-93645853D01*
X160991772Y-93581703D01*
X161156184Y-93549000D01*
X161323816Y-93549000D01*
X161488228Y-93581703D01*
G37*
G36*
X150870228Y-91061703D02*
G01*
X151025100Y-91125853D01*
X151164481Y-91218985D01*
X151283015Y-91337519D01*
X151376147Y-91476900D01*
X151440297Y-91631772D01*
X151473000Y-91796184D01*
X151473000Y-91963816D01*
X151440297Y-92128228D01*
X151376147Y-92283100D01*
X151283015Y-92422481D01*
X151164481Y-92541015D01*
X151025100Y-92634147D01*
X150870228Y-92698297D01*
X150705816Y-92731000D01*
X150538184Y-92731000D01*
X150373772Y-92698297D01*
X150218900Y-92634147D01*
X150079519Y-92541015D01*
X149960985Y-92422481D01*
X149867853Y-92283100D01*
X149803703Y-92128228D01*
X149771000Y-91963816D01*
X149771000Y-91796184D01*
X149803703Y-91631772D01*
X149867853Y-91476900D01*
X149960985Y-91337519D01*
X150079519Y-91218985D01*
X150218900Y-91125853D01*
X150373772Y-91061703D01*
X150538184Y-91029000D01*
X150705816Y-91029000D01*
X150870228Y-91061703D01*
G37*
G36*
X131058228Y-91061703D02*
G01*
X131213100Y-91125853D01*
X131352481Y-91218985D01*
X131471015Y-91337519D01*
X131564147Y-91476900D01*
X131628297Y-91631772D01*
X131661000Y-91796184D01*
X131661000Y-91963816D01*
X131628297Y-92128228D01*
X131564147Y-92283100D01*
X131471015Y-92422481D01*
X131352481Y-92541015D01*
X131213100Y-92634147D01*
X131058228Y-92698297D01*
X130893816Y-92731000D01*
X130726184Y-92731000D01*
X130561772Y-92698297D01*
X130406900Y-92634147D01*
X130267519Y-92541015D01*
X130148985Y-92422481D01*
X130055853Y-92283100D01*
X129991703Y-92128228D01*
X129959000Y-91963816D01*
X129959000Y-91796184D01*
X129991703Y-91631772D01*
X130055853Y-91476900D01*
X130148985Y-91337519D01*
X130267519Y-91218985D01*
X130406900Y-91125853D01*
X130561772Y-91061703D01*
X130726184Y-91029000D01*
X130893816Y-91029000D01*
X131058228Y-91061703D01*
G37*
G36*
X134248228Y-91061703D02*
G01*
X134403100Y-91125853D01*
X134542481Y-91218985D01*
X134661015Y-91337519D01*
X134754147Y-91476900D01*
X134818297Y-91631772D01*
X134851000Y-91796184D01*
X134851000Y-91963816D01*
X134818297Y-92128228D01*
X134754147Y-92283100D01*
X134661015Y-92422481D01*
X134542481Y-92541015D01*
X134403100Y-92634147D01*
X134248228Y-92698297D01*
X134083816Y-92731000D01*
X133916184Y-92731000D01*
X133751772Y-92698297D01*
X133596900Y-92634147D01*
X133457519Y-92541015D01*
X133338985Y-92422481D01*
X133245853Y-92283100D01*
X133181703Y-92128228D01*
X133149000Y-91963816D01*
X133149000Y-91796184D01*
X133181703Y-91631772D01*
X133245853Y-91476900D01*
X133338985Y-91337519D01*
X133457519Y-91218985D01*
X133596900Y-91125853D01*
X133751772Y-91061703D01*
X133916184Y-91029000D01*
X134083816Y-91029000D01*
X134248228Y-91061703D01*
G37*
G36*
X153998228Y-91061703D02*
G01*
X154153100Y-91125853D01*
X154292481Y-91218985D01*
X154411015Y-91337519D01*
X154504147Y-91476900D01*
X154568297Y-91631772D01*
X154601000Y-91796184D01*
X154601000Y-91963816D01*
X154568297Y-92128228D01*
X154504147Y-92283100D01*
X154411015Y-92422481D01*
X154292481Y-92541015D01*
X154153100Y-92634147D01*
X153998228Y-92698297D01*
X153833816Y-92731000D01*
X153666184Y-92731000D01*
X153501772Y-92698297D01*
X153346900Y-92634147D01*
X153207519Y-92541015D01*
X153088985Y-92422481D01*
X152995853Y-92283100D01*
X152931703Y-92128228D01*
X152899000Y-91963816D01*
X152899000Y-91796184D01*
X152931703Y-91631772D01*
X152995853Y-91476900D01*
X153088985Y-91337519D01*
X153207519Y-91218985D01*
X153346900Y-91125853D01*
X153501772Y-91061703D01*
X153666184Y-91029000D01*
X153833816Y-91029000D01*
X153998228Y-91061703D01*
G37*
G36*
X146248228Y-91041703D02*
G01*
X146403100Y-91105853D01*
X146542481Y-91198985D01*
X146661015Y-91317519D01*
X146754147Y-91456900D01*
X146818297Y-91611772D01*
X146851000Y-91776184D01*
X146851000Y-91943816D01*
X146818297Y-92108228D01*
X146754147Y-92263100D01*
X146661015Y-92402481D01*
X146542481Y-92521015D01*
X146403100Y-92614147D01*
X146248228Y-92678297D01*
X146083816Y-92711000D01*
X145916184Y-92711000D01*
X145751772Y-92678297D01*
X145596900Y-92614147D01*
X145457519Y-92521015D01*
X145338985Y-92402481D01*
X145245853Y-92263100D01*
X145181703Y-92108228D01*
X145149000Y-91943816D01*
X145149000Y-91776184D01*
X145181703Y-91611772D01*
X145245853Y-91456900D01*
X145338985Y-91317519D01*
X145457519Y-91198985D01*
X145596900Y-91105853D01*
X145751772Y-91041703D01*
X145916184Y-91009000D01*
X146083816Y-91009000D01*
X146248228Y-91041703D01*
G37*
G36*
X138988228Y-91041703D02*
G01*
X139143100Y-91105853D01*
X139282481Y-91198985D01*
X139401015Y-91317519D01*
X139494147Y-91456900D01*
X139558297Y-91611772D01*
X139591000Y-91776184D01*
X139591000Y-91943816D01*
X139558297Y-92108228D01*
X139494147Y-92263100D01*
X139401015Y-92402481D01*
X139282481Y-92521015D01*
X139143100Y-92614147D01*
X138988228Y-92678297D01*
X138823816Y-92711000D01*
X138656184Y-92711000D01*
X138491772Y-92678297D01*
X138336900Y-92614147D01*
X138197519Y-92521015D01*
X138078985Y-92402481D01*
X137985853Y-92263100D01*
X137921703Y-92108228D01*
X137889000Y-91943816D01*
X137889000Y-91776184D01*
X137921703Y-91611772D01*
X137985853Y-91456900D01*
X138078985Y-91317519D01*
X138197519Y-91198985D01*
X138336900Y-91105853D01*
X138491772Y-91041703D01*
X138656184Y-91009000D01*
X138823816Y-91009000D01*
X138988228Y-91041703D01*
G37*
G36*
X123748228Y-91041703D02*
G01*
X123903100Y-91105853D01*
X124042481Y-91198985D01*
X124161015Y-91317519D01*
X124254147Y-91456900D01*
X124318297Y-91611772D01*
X124351000Y-91776184D01*
X124351000Y-91943816D01*
X124318297Y-92108228D01*
X124254147Y-92263100D01*
X124161015Y-92402481D01*
X124042481Y-92521015D01*
X123903100Y-92614147D01*
X123748228Y-92678297D01*
X123583816Y-92711000D01*
X123416184Y-92711000D01*
X123251772Y-92678297D01*
X123096900Y-92614147D01*
X122957519Y-92521015D01*
X122838985Y-92402481D01*
X122745853Y-92263100D01*
X122681703Y-92108228D01*
X122649000Y-91943816D01*
X122649000Y-91776184D01*
X122681703Y-91611772D01*
X122745853Y-91456900D01*
X122838985Y-91317519D01*
X122957519Y-91198985D01*
X123096900Y-91105853D01*
X123251772Y-91041703D01*
X123416184Y-91009000D01*
X123583816Y-91009000D01*
X123748228Y-91041703D01*
G37*
G36*
X158988228Y-91041703D02*
G01*
X159143100Y-91105853D01*
X159282481Y-91198985D01*
X159401015Y-91317519D01*
X159494147Y-91456900D01*
X159558297Y-91611772D01*
X159591000Y-91776184D01*
X159591000Y-91943816D01*
X159558297Y-92108228D01*
X159494147Y-92263100D01*
X159401015Y-92402481D01*
X159282481Y-92521015D01*
X159143100Y-92614147D01*
X158988228Y-92678297D01*
X158823816Y-92711000D01*
X158656184Y-92711000D01*
X158491772Y-92678297D01*
X158336900Y-92614147D01*
X158197519Y-92521015D01*
X158078985Y-92402481D01*
X157985853Y-92263100D01*
X157921703Y-92108228D01*
X157889000Y-91943816D01*
X157889000Y-91776184D01*
X157921703Y-91611772D01*
X157985853Y-91456900D01*
X158078985Y-91317519D01*
X158197519Y-91198985D01*
X158336900Y-91105853D01*
X158491772Y-91041703D01*
X158656184Y-91009000D01*
X158823816Y-91009000D01*
X158988228Y-91041703D01*
G37*
G36*
X141488228Y-91041703D02*
G01*
X141643100Y-91105853D01*
X141782481Y-91198985D01*
X141901015Y-91317519D01*
X141994147Y-91456900D01*
X142058297Y-91611772D01*
X142091000Y-91776184D01*
X142091000Y-91943816D01*
X142058297Y-92108228D01*
X141994147Y-92263100D01*
X141901015Y-92402481D01*
X141782481Y-92521015D01*
X141643100Y-92614147D01*
X141488228Y-92678297D01*
X141323816Y-92711000D01*
X141156184Y-92711000D01*
X140991772Y-92678297D01*
X140836900Y-92614147D01*
X140697519Y-92521015D01*
X140578985Y-92402481D01*
X140485853Y-92263100D01*
X140421703Y-92108228D01*
X140389000Y-91943816D01*
X140389000Y-91776184D01*
X140421703Y-91611772D01*
X140485853Y-91456900D01*
X140578985Y-91317519D01*
X140697519Y-91198985D01*
X140836900Y-91105853D01*
X140991772Y-91041703D01*
X141156184Y-91009000D01*
X141323816Y-91009000D01*
X141488228Y-91041703D01*
G37*
G36*
X126248228Y-91041703D02*
G01*
X126403100Y-91105853D01*
X126542481Y-91198985D01*
X126661015Y-91317519D01*
X126754147Y-91456900D01*
X126818297Y-91611772D01*
X126851000Y-91776184D01*
X126851000Y-91943816D01*
X126818297Y-92108228D01*
X126754147Y-92263100D01*
X126661015Y-92402481D01*
X126542481Y-92521015D01*
X126403100Y-92614147D01*
X126248228Y-92678297D01*
X126083816Y-92711000D01*
X125916184Y-92711000D01*
X125751772Y-92678297D01*
X125596900Y-92614147D01*
X125457519Y-92521015D01*
X125338985Y-92402481D01*
X125245853Y-92263100D01*
X125181703Y-92108228D01*
X125149000Y-91943816D01*
X125149000Y-91776184D01*
X125181703Y-91611772D01*
X125245853Y-91456900D01*
X125338985Y-91317519D01*
X125457519Y-91198985D01*
X125596900Y-91105853D01*
X125751772Y-91041703D01*
X125916184Y-91009000D01*
X126083816Y-91009000D01*
X126248228Y-91041703D01*
G37*
G36*
X143748228Y-91041703D02*
G01*
X143903100Y-91105853D01*
X144042481Y-91198985D01*
X144161015Y-91317519D01*
X144254147Y-91456900D01*
X144318297Y-91611772D01*
X144351000Y-91776184D01*
X144351000Y-91943816D01*
X144318297Y-92108228D01*
X144254147Y-92263100D01*
X144161015Y-92402481D01*
X144042481Y-92521015D01*
X143903100Y-92614147D01*
X143748228Y-92678297D01*
X143583816Y-92711000D01*
X143416184Y-92711000D01*
X143251772Y-92678297D01*
X143096900Y-92614147D01*
X142957519Y-92521015D01*
X142838985Y-92402481D01*
X142745853Y-92263100D01*
X142681703Y-92108228D01*
X142649000Y-91943816D01*
X142649000Y-91776184D01*
X142681703Y-91611772D01*
X142745853Y-91456900D01*
X142838985Y-91317519D01*
X142957519Y-91198985D01*
X143096900Y-91105853D01*
X143251772Y-91041703D01*
X143416184Y-91009000D01*
X143583816Y-91009000D01*
X143748228Y-91041703D01*
G37*
G36*
X161488228Y-91041703D02*
G01*
X161643100Y-91105853D01*
X161782481Y-91198985D01*
X161901015Y-91317519D01*
X161994147Y-91456900D01*
X162058297Y-91611772D01*
X162091000Y-91776184D01*
X162091000Y-91943816D01*
X162058297Y-92108228D01*
X161994147Y-92263100D01*
X161901015Y-92402481D01*
X161782481Y-92521015D01*
X161643100Y-92614147D01*
X161488228Y-92678297D01*
X161323816Y-92711000D01*
X161156184Y-92711000D01*
X160991772Y-92678297D01*
X160836900Y-92614147D01*
X160697519Y-92521015D01*
X160578985Y-92402481D01*
X160485853Y-92263100D01*
X160421703Y-92108228D01*
X160389000Y-91943816D01*
X160389000Y-91776184D01*
X160421703Y-91611772D01*
X160485853Y-91456900D01*
X160578985Y-91317519D01*
X160697519Y-91198985D01*
X160836900Y-91105853D01*
X160991772Y-91041703D01*
X161156184Y-91009000D01*
X161323816Y-91009000D01*
X161488228Y-91041703D01*
G37*
G36*
X123748228Y-88501703D02*
G01*
X123903100Y-88565853D01*
X124042481Y-88658985D01*
X124161015Y-88777519D01*
X124254147Y-88916900D01*
X124318297Y-89071772D01*
X124351000Y-89236184D01*
X124351000Y-89403816D01*
X124318297Y-89568228D01*
X124254147Y-89723100D01*
X124161015Y-89862481D01*
X124042481Y-89981015D01*
X123903100Y-90074147D01*
X123748228Y-90138297D01*
X123583816Y-90171000D01*
X123416184Y-90171000D01*
X123251772Y-90138297D01*
X123096900Y-90074147D01*
X122957519Y-89981015D01*
X122838985Y-89862481D01*
X122745853Y-89723100D01*
X122681703Y-89568228D01*
X122649000Y-89403816D01*
X122649000Y-89236184D01*
X122681703Y-89071772D01*
X122745853Y-88916900D01*
X122838985Y-88777519D01*
X122957519Y-88658985D01*
X123096900Y-88565853D01*
X123251772Y-88501703D01*
X123416184Y-88469000D01*
X123583816Y-88469000D01*
X123748228Y-88501703D01*
G37*
G36*
X161488228Y-88501703D02*
G01*
X161643100Y-88565853D01*
X161782481Y-88658985D01*
X161901015Y-88777519D01*
X161994147Y-88916900D01*
X162058297Y-89071772D01*
X162091000Y-89236184D01*
X162091000Y-89403816D01*
X162058297Y-89568228D01*
X161994147Y-89723100D01*
X161901015Y-89862481D01*
X161782481Y-89981015D01*
X161643100Y-90074147D01*
X161488228Y-90138297D01*
X161323816Y-90171000D01*
X161156184Y-90171000D01*
X160991772Y-90138297D01*
X160836900Y-90074147D01*
X160697519Y-89981015D01*
X160578985Y-89862481D01*
X160485853Y-89723100D01*
X160421703Y-89568228D01*
X160389000Y-89403816D01*
X160389000Y-89236184D01*
X160421703Y-89071772D01*
X160485853Y-88916900D01*
X160578985Y-88777519D01*
X160697519Y-88658985D01*
X160836900Y-88565853D01*
X160991772Y-88501703D01*
X161156184Y-88469000D01*
X161323816Y-88469000D01*
X161488228Y-88501703D01*
G37*
G36*
X158988228Y-88501703D02*
G01*
X159143100Y-88565853D01*
X159282481Y-88658985D01*
X159401015Y-88777519D01*
X159494147Y-88916900D01*
X159558297Y-89071772D01*
X159591000Y-89236184D01*
X159591000Y-89403816D01*
X159558297Y-89568228D01*
X159494147Y-89723100D01*
X159401015Y-89862481D01*
X159282481Y-89981015D01*
X159143100Y-90074147D01*
X158988228Y-90138297D01*
X158823816Y-90171000D01*
X158656184Y-90171000D01*
X158491772Y-90138297D01*
X158336900Y-90074147D01*
X158197519Y-89981015D01*
X158078985Y-89862481D01*
X157985853Y-89723100D01*
X157921703Y-89568228D01*
X157889000Y-89403816D01*
X157889000Y-89236184D01*
X157921703Y-89071772D01*
X157985853Y-88916900D01*
X158078985Y-88777519D01*
X158197519Y-88658985D01*
X158336900Y-88565853D01*
X158491772Y-88501703D01*
X158656184Y-88469000D01*
X158823816Y-88469000D01*
X158988228Y-88501703D01*
G37*
G36*
X146248228Y-88501703D02*
G01*
X146403100Y-88565853D01*
X146542481Y-88658985D01*
X146661015Y-88777519D01*
X146754147Y-88916900D01*
X146818297Y-89071772D01*
X146851000Y-89236184D01*
X146851000Y-89403816D01*
X146818297Y-89568228D01*
X146754147Y-89723100D01*
X146661015Y-89862481D01*
X146542481Y-89981015D01*
X146403100Y-90074147D01*
X146248228Y-90138297D01*
X146083816Y-90171000D01*
X145916184Y-90171000D01*
X145751772Y-90138297D01*
X145596900Y-90074147D01*
X145457519Y-89981015D01*
X145338985Y-89862481D01*
X145245853Y-89723100D01*
X145181703Y-89568228D01*
X145149000Y-89403816D01*
X145149000Y-89236184D01*
X145181703Y-89071772D01*
X145245853Y-88916900D01*
X145338985Y-88777519D01*
X145457519Y-88658985D01*
X145596900Y-88565853D01*
X145751772Y-88501703D01*
X145916184Y-88469000D01*
X146083816Y-88469000D01*
X146248228Y-88501703D01*
G37*
G36*
X126248228Y-88501703D02*
G01*
X126403100Y-88565853D01*
X126542481Y-88658985D01*
X126661015Y-88777519D01*
X126754147Y-88916900D01*
X126818297Y-89071772D01*
X126851000Y-89236184D01*
X126851000Y-89403816D01*
X126818297Y-89568228D01*
X126754147Y-89723100D01*
X126661015Y-89862481D01*
X126542481Y-89981015D01*
X126403100Y-90074147D01*
X126248228Y-90138297D01*
X126083816Y-90171000D01*
X125916184Y-90171000D01*
X125751772Y-90138297D01*
X125596900Y-90074147D01*
X125457519Y-89981015D01*
X125338985Y-89862481D01*
X125245853Y-89723100D01*
X125181703Y-89568228D01*
X125149000Y-89403816D01*
X125149000Y-89236184D01*
X125181703Y-89071772D01*
X125245853Y-88916900D01*
X125338985Y-88777519D01*
X125457519Y-88658985D01*
X125596900Y-88565853D01*
X125751772Y-88501703D01*
X125916184Y-88469000D01*
X126083816Y-88469000D01*
X126248228Y-88501703D01*
G37*
G36*
X138988228Y-88501703D02*
G01*
X139143100Y-88565853D01*
X139282481Y-88658985D01*
X139401015Y-88777519D01*
X139494147Y-88916900D01*
X139558297Y-89071772D01*
X139591000Y-89236184D01*
X139591000Y-89403816D01*
X139558297Y-89568228D01*
X139494147Y-89723100D01*
X139401015Y-89862481D01*
X139282481Y-89981015D01*
X139143100Y-90074147D01*
X138988228Y-90138297D01*
X138823816Y-90171000D01*
X138656184Y-90171000D01*
X138491772Y-90138297D01*
X138336900Y-90074147D01*
X138197519Y-89981015D01*
X138078985Y-89862481D01*
X137985853Y-89723100D01*
X137921703Y-89568228D01*
X137889000Y-89403816D01*
X137889000Y-89236184D01*
X137921703Y-89071772D01*
X137985853Y-88916900D01*
X138078985Y-88777519D01*
X138197519Y-88658985D01*
X138336900Y-88565853D01*
X138491772Y-88501703D01*
X138656184Y-88469000D01*
X138823816Y-88469000D01*
X138988228Y-88501703D01*
G37*
G36*
X143748228Y-88501703D02*
G01*
X143903100Y-88565853D01*
X144042481Y-88658985D01*
X144161015Y-88777519D01*
X144254147Y-88916900D01*
X144318297Y-89071772D01*
X144351000Y-89236184D01*
X144351000Y-89403816D01*
X144318297Y-89568228D01*
X144254147Y-89723100D01*
X144161015Y-89862481D01*
X144042481Y-89981015D01*
X143903100Y-90074147D01*
X143748228Y-90138297D01*
X143583816Y-90171000D01*
X143416184Y-90171000D01*
X143251772Y-90138297D01*
X143096900Y-90074147D01*
X142957519Y-89981015D01*
X142838985Y-89862481D01*
X142745853Y-89723100D01*
X142681703Y-89568228D01*
X142649000Y-89403816D01*
X142649000Y-89236184D01*
X142681703Y-89071772D01*
X142745853Y-88916900D01*
X142838985Y-88777519D01*
X142957519Y-88658985D01*
X143096900Y-88565853D01*
X143251772Y-88501703D01*
X143416184Y-88469000D01*
X143583816Y-88469000D01*
X143748228Y-88501703D01*
G37*
G36*
X141488228Y-88501703D02*
G01*
X141643100Y-88565853D01*
X141782481Y-88658985D01*
X141901015Y-88777519D01*
X141994147Y-88916900D01*
X142058297Y-89071772D01*
X142091000Y-89236184D01*
X142091000Y-89403816D01*
X142058297Y-89568228D01*
X141994147Y-89723100D01*
X141901015Y-89862481D01*
X141782481Y-89981015D01*
X141643100Y-90074147D01*
X141488228Y-90138297D01*
X141323816Y-90171000D01*
X141156184Y-90171000D01*
X140991772Y-90138297D01*
X140836900Y-90074147D01*
X140697519Y-89981015D01*
X140578985Y-89862481D01*
X140485853Y-89723100D01*
X140421703Y-89568228D01*
X140389000Y-89403816D01*
X140389000Y-89236184D01*
X140421703Y-89071772D01*
X140485853Y-88916900D01*
X140578985Y-88777519D01*
X140697519Y-88658985D01*
X140836900Y-88565853D01*
X140991772Y-88501703D01*
X141156184Y-88469000D01*
X141323816Y-88469000D01*
X141488228Y-88501703D01*
G37*
G36*
X123748228Y-85961703D02*
G01*
X123903100Y-86025853D01*
X124042481Y-86118985D01*
X124161015Y-86237519D01*
X124254147Y-86376900D01*
X124318297Y-86531772D01*
X124351000Y-86696184D01*
X124351000Y-86863816D01*
X124318297Y-87028228D01*
X124254147Y-87183100D01*
X124161015Y-87322481D01*
X124042481Y-87441015D01*
X123903100Y-87534147D01*
X123748228Y-87598297D01*
X123583816Y-87631000D01*
X123416184Y-87631000D01*
X123251772Y-87598297D01*
X123096900Y-87534147D01*
X122957519Y-87441015D01*
X122838985Y-87322481D01*
X122745853Y-87183100D01*
X122681703Y-87028228D01*
X122649000Y-86863816D01*
X122649000Y-86696184D01*
X122681703Y-86531772D01*
X122745853Y-86376900D01*
X122838985Y-86237519D01*
X122957519Y-86118985D01*
X123096900Y-86025853D01*
X123251772Y-85961703D01*
X123416184Y-85929000D01*
X123583816Y-85929000D01*
X123748228Y-85961703D01*
G37*
G36*
X138988228Y-85961703D02*
G01*
X139143100Y-86025853D01*
X139282481Y-86118985D01*
X139401015Y-86237519D01*
X139494147Y-86376900D01*
X139558297Y-86531772D01*
X139591000Y-86696184D01*
X139591000Y-86863816D01*
X139558297Y-87028228D01*
X139494147Y-87183100D01*
X139401015Y-87322481D01*
X139282481Y-87441015D01*
X139143100Y-87534147D01*
X138988228Y-87598297D01*
X138823816Y-87631000D01*
X138656184Y-87631000D01*
X138491772Y-87598297D01*
X138336900Y-87534147D01*
X138197519Y-87441015D01*
X138078985Y-87322481D01*
X137985853Y-87183100D01*
X137921703Y-87028228D01*
X137889000Y-86863816D01*
X137889000Y-86696184D01*
X137921703Y-86531772D01*
X137985853Y-86376900D01*
X138078985Y-86237519D01*
X138197519Y-86118985D01*
X138336900Y-86025853D01*
X138491772Y-85961703D01*
X138656184Y-85929000D01*
X138823816Y-85929000D01*
X138988228Y-85961703D01*
G37*
G36*
X141488228Y-85961703D02*
G01*
X141643100Y-86025853D01*
X141782481Y-86118985D01*
X141901015Y-86237519D01*
X141994147Y-86376900D01*
X142058297Y-86531772D01*
X142091000Y-86696184D01*
X142091000Y-86863816D01*
X142058297Y-87028228D01*
X141994147Y-87183100D01*
X141901015Y-87322481D01*
X141782481Y-87441015D01*
X141643100Y-87534147D01*
X141488228Y-87598297D01*
X141323816Y-87631000D01*
X141156184Y-87631000D01*
X140991772Y-87598297D01*
X140836900Y-87534147D01*
X140697519Y-87441015D01*
X140578985Y-87322481D01*
X140485853Y-87183100D01*
X140421703Y-87028228D01*
X140389000Y-86863816D01*
X140389000Y-86696184D01*
X140421703Y-86531772D01*
X140485853Y-86376900D01*
X140578985Y-86237519D01*
X140697519Y-86118985D01*
X140836900Y-86025853D01*
X140991772Y-85961703D01*
X141156184Y-85929000D01*
X141323816Y-85929000D01*
X141488228Y-85961703D01*
G37*
G36*
X146248228Y-85961703D02*
G01*
X146403100Y-86025853D01*
X146542481Y-86118985D01*
X146661015Y-86237519D01*
X146754147Y-86376900D01*
X146818297Y-86531772D01*
X146851000Y-86696184D01*
X146851000Y-86863816D01*
X146818297Y-87028228D01*
X146754147Y-87183100D01*
X146661015Y-87322481D01*
X146542481Y-87441015D01*
X146403100Y-87534147D01*
X146248228Y-87598297D01*
X146083816Y-87631000D01*
X145916184Y-87631000D01*
X145751772Y-87598297D01*
X145596900Y-87534147D01*
X145457519Y-87441015D01*
X145338985Y-87322481D01*
X145245853Y-87183100D01*
X145181703Y-87028228D01*
X145149000Y-86863816D01*
X145149000Y-86696184D01*
X145181703Y-86531772D01*
X145245853Y-86376900D01*
X145338985Y-86237519D01*
X145457519Y-86118985D01*
X145596900Y-86025853D01*
X145751772Y-85961703D01*
X145916184Y-85929000D01*
X146083816Y-85929000D01*
X146248228Y-85961703D01*
G37*
G36*
X143748228Y-85961703D02*
G01*
X143903100Y-86025853D01*
X144042481Y-86118985D01*
X144161015Y-86237519D01*
X144254147Y-86376900D01*
X144318297Y-86531772D01*
X144351000Y-86696184D01*
X144351000Y-86863816D01*
X144318297Y-87028228D01*
X144254147Y-87183100D01*
X144161015Y-87322481D01*
X144042481Y-87441015D01*
X143903100Y-87534147D01*
X143748228Y-87598297D01*
X143583816Y-87631000D01*
X143416184Y-87631000D01*
X143251772Y-87598297D01*
X143096900Y-87534147D01*
X142957519Y-87441015D01*
X142838985Y-87322481D01*
X142745853Y-87183100D01*
X142681703Y-87028228D01*
X142649000Y-86863816D01*
X142649000Y-86696184D01*
X142681703Y-86531772D01*
X142745853Y-86376900D01*
X142838985Y-86237519D01*
X142957519Y-86118985D01*
X143096900Y-86025853D01*
X143251772Y-85961703D01*
X143416184Y-85929000D01*
X143583816Y-85929000D01*
X143748228Y-85961703D01*
G37*
G36*
X158988228Y-85961703D02*
G01*
X159143100Y-86025853D01*
X159282481Y-86118985D01*
X159401015Y-86237519D01*
X159494147Y-86376900D01*
X159558297Y-86531772D01*
X159591000Y-86696184D01*
X159591000Y-86863816D01*
X159558297Y-87028228D01*
X159494147Y-87183100D01*
X159401015Y-87322481D01*
X159282481Y-87441015D01*
X159143100Y-87534147D01*
X158988228Y-87598297D01*
X158823816Y-87631000D01*
X158656184Y-87631000D01*
X158491772Y-87598297D01*
X158336900Y-87534147D01*
X158197519Y-87441015D01*
X158078985Y-87322481D01*
X157985853Y-87183100D01*
X157921703Y-87028228D01*
X157889000Y-86863816D01*
X157889000Y-86696184D01*
X157921703Y-86531772D01*
X157985853Y-86376900D01*
X158078985Y-86237519D01*
X158197519Y-86118985D01*
X158336900Y-86025853D01*
X158491772Y-85961703D01*
X158656184Y-85929000D01*
X158823816Y-85929000D01*
X158988228Y-85961703D01*
G37*
G36*
X161488228Y-85961703D02*
G01*
X161643100Y-86025853D01*
X161782481Y-86118985D01*
X161901015Y-86237519D01*
X161994147Y-86376900D01*
X162058297Y-86531772D01*
X162091000Y-86696184D01*
X162091000Y-86863816D01*
X162058297Y-87028228D01*
X161994147Y-87183100D01*
X161901015Y-87322481D01*
X161782481Y-87441015D01*
X161643100Y-87534147D01*
X161488228Y-87598297D01*
X161323816Y-87631000D01*
X161156184Y-87631000D01*
X160991772Y-87598297D01*
X160836900Y-87534147D01*
X160697519Y-87441015D01*
X160578985Y-87322481D01*
X160485853Y-87183100D01*
X160421703Y-87028228D01*
X160389000Y-86863816D01*
X160389000Y-86696184D01*
X160421703Y-86531772D01*
X160485853Y-86376900D01*
X160578985Y-86237519D01*
X160697519Y-86118985D01*
X160836900Y-86025853D01*
X160991772Y-85961703D01*
X161156184Y-85929000D01*
X161323816Y-85929000D01*
X161488228Y-85961703D01*
G37*
G36*
X126248228Y-85961703D02*
G01*
X126403100Y-86025853D01*
X126542481Y-86118985D01*
X126661015Y-86237519D01*
X126754147Y-86376900D01*
X126818297Y-86531772D01*
X126851000Y-86696184D01*
X126851000Y-86863816D01*
X126818297Y-87028228D01*
X126754147Y-87183100D01*
X126661015Y-87322481D01*
X126542481Y-87441015D01*
X126403100Y-87534147D01*
X126248228Y-87598297D01*
X126083816Y-87631000D01*
X125916184Y-87631000D01*
X125751772Y-87598297D01*
X125596900Y-87534147D01*
X125457519Y-87441015D01*
X125338985Y-87322481D01*
X125245853Y-87183100D01*
X125181703Y-87028228D01*
X125149000Y-86863816D01*
X125149000Y-86696184D01*
X125181703Y-86531772D01*
X125245853Y-86376900D01*
X125338985Y-86237519D01*
X125457519Y-86118985D01*
X125596900Y-86025853D01*
X125751772Y-85961703D01*
X125916184Y-85929000D01*
X126083816Y-85929000D01*
X126248228Y-85961703D01*
G37*
G36*
X123748228Y-83421703D02*
G01*
X123903100Y-83485853D01*
X124042481Y-83578985D01*
X124161015Y-83697519D01*
X124254147Y-83836900D01*
X124318297Y-83991772D01*
X124351000Y-84156184D01*
X124351000Y-84323816D01*
X124318297Y-84488228D01*
X124254147Y-84643100D01*
X124161015Y-84782481D01*
X124042481Y-84901015D01*
X123903100Y-84994147D01*
X123748228Y-85058297D01*
X123583816Y-85091000D01*
X123416184Y-85091000D01*
X123251772Y-85058297D01*
X123096900Y-84994147D01*
X122957519Y-84901015D01*
X122838985Y-84782481D01*
X122745853Y-84643100D01*
X122681703Y-84488228D01*
X122649000Y-84323816D01*
X122649000Y-84156184D01*
X122681703Y-83991772D01*
X122745853Y-83836900D01*
X122838985Y-83697519D01*
X122957519Y-83578985D01*
X123096900Y-83485853D01*
X123251772Y-83421703D01*
X123416184Y-83389000D01*
X123583816Y-83389000D01*
X123748228Y-83421703D01*
G37*
G36*
X141488228Y-83421703D02*
G01*
X141643100Y-83485853D01*
X141782481Y-83578985D01*
X141901015Y-83697519D01*
X141994147Y-83836900D01*
X142058297Y-83991772D01*
X142091000Y-84156184D01*
X142091000Y-84323816D01*
X142058297Y-84488228D01*
X141994147Y-84643100D01*
X141901015Y-84782481D01*
X141782481Y-84901015D01*
X141643100Y-84994147D01*
X141488228Y-85058297D01*
X141323816Y-85091000D01*
X141156184Y-85091000D01*
X140991772Y-85058297D01*
X140836900Y-84994147D01*
X140697519Y-84901015D01*
X140578985Y-84782481D01*
X140485853Y-84643100D01*
X140421703Y-84488228D01*
X140389000Y-84323816D01*
X140389000Y-84156184D01*
X140421703Y-83991772D01*
X140485853Y-83836900D01*
X140578985Y-83697519D01*
X140697519Y-83578985D01*
X140836900Y-83485853D01*
X140991772Y-83421703D01*
X141156184Y-83389000D01*
X141323816Y-83389000D01*
X141488228Y-83421703D01*
G37*
G36*
X161488228Y-83421703D02*
G01*
X161643100Y-83485853D01*
X161782481Y-83578985D01*
X161901015Y-83697519D01*
X161994147Y-83836900D01*
X162058297Y-83991772D01*
X162091000Y-84156184D01*
X162091000Y-84323816D01*
X162058297Y-84488228D01*
X161994147Y-84643100D01*
X161901015Y-84782481D01*
X161782481Y-84901015D01*
X161643100Y-84994147D01*
X161488228Y-85058297D01*
X161323816Y-85091000D01*
X161156184Y-85091000D01*
X160991772Y-85058297D01*
X160836900Y-84994147D01*
X160697519Y-84901015D01*
X160578985Y-84782481D01*
X160485853Y-84643100D01*
X160421703Y-84488228D01*
X160389000Y-84323816D01*
X160389000Y-84156184D01*
X160421703Y-83991772D01*
X160485853Y-83836900D01*
X160578985Y-83697519D01*
X160697519Y-83578985D01*
X160836900Y-83485853D01*
X160991772Y-83421703D01*
X161156184Y-83389000D01*
X161323816Y-83389000D01*
X161488228Y-83421703D01*
G37*
G36*
X138988228Y-83421703D02*
G01*
X139143100Y-83485853D01*
X139282481Y-83578985D01*
X139401015Y-83697519D01*
X139494147Y-83836900D01*
X139558297Y-83991772D01*
X139591000Y-84156184D01*
X139591000Y-84323816D01*
X139558297Y-84488228D01*
X139494147Y-84643100D01*
X139401015Y-84782481D01*
X139282481Y-84901015D01*
X139143100Y-84994147D01*
X138988228Y-85058297D01*
X138823816Y-85091000D01*
X138656184Y-85091000D01*
X138491772Y-85058297D01*
X138336900Y-84994147D01*
X138197519Y-84901015D01*
X138078985Y-84782481D01*
X137985853Y-84643100D01*
X137921703Y-84488228D01*
X137889000Y-84323816D01*
X137889000Y-84156184D01*
X137921703Y-83991772D01*
X137985853Y-83836900D01*
X138078985Y-83697519D01*
X138197519Y-83578985D01*
X138336900Y-83485853D01*
X138491772Y-83421703D01*
X138656184Y-83389000D01*
X138823816Y-83389000D01*
X138988228Y-83421703D01*
G37*
G36*
X126248228Y-83421703D02*
G01*
X126403100Y-83485853D01*
X126542481Y-83578985D01*
X126661015Y-83697519D01*
X126754147Y-83836900D01*
X126818297Y-83991772D01*
X126851000Y-84156184D01*
X126851000Y-84323816D01*
X126818297Y-84488228D01*
X126754147Y-84643100D01*
X126661015Y-84782481D01*
X126542481Y-84901015D01*
X126403100Y-84994147D01*
X126248228Y-85058297D01*
X126083816Y-85091000D01*
X125916184Y-85091000D01*
X125751772Y-85058297D01*
X125596900Y-84994147D01*
X125457519Y-84901015D01*
X125338985Y-84782481D01*
X125245853Y-84643100D01*
X125181703Y-84488228D01*
X125149000Y-84323816D01*
X125149000Y-84156184D01*
X125181703Y-83991772D01*
X125245853Y-83836900D01*
X125338985Y-83697519D01*
X125457519Y-83578985D01*
X125596900Y-83485853D01*
X125751772Y-83421703D01*
X125916184Y-83389000D01*
X126083816Y-83389000D01*
X126248228Y-83421703D01*
G37*
G36*
X146248228Y-83421703D02*
G01*
X146403100Y-83485853D01*
X146542481Y-83578985D01*
X146661015Y-83697519D01*
X146754147Y-83836900D01*
X146818297Y-83991772D01*
X146851000Y-84156184D01*
X146851000Y-84323816D01*
X146818297Y-84488228D01*
X146754147Y-84643100D01*
X146661015Y-84782481D01*
X146542481Y-84901015D01*
X146403100Y-84994147D01*
X146248228Y-85058297D01*
X146083816Y-85091000D01*
X145916184Y-85091000D01*
X145751772Y-85058297D01*
X145596900Y-84994147D01*
X145457519Y-84901015D01*
X145338985Y-84782481D01*
X145245853Y-84643100D01*
X145181703Y-84488228D01*
X145149000Y-84323816D01*
X145149000Y-84156184D01*
X145181703Y-83991772D01*
X145245853Y-83836900D01*
X145338985Y-83697519D01*
X145457519Y-83578985D01*
X145596900Y-83485853D01*
X145751772Y-83421703D01*
X145916184Y-83389000D01*
X146083816Y-83389000D01*
X146248228Y-83421703D01*
G37*
G36*
X143748228Y-83421703D02*
G01*
X143903100Y-83485853D01*
X144042481Y-83578985D01*
X144161015Y-83697519D01*
X144254147Y-83836900D01*
X144318297Y-83991772D01*
X144351000Y-84156184D01*
X144351000Y-84323816D01*
X144318297Y-84488228D01*
X144254147Y-84643100D01*
X144161015Y-84782481D01*
X144042481Y-84901015D01*
X143903100Y-84994147D01*
X143748228Y-85058297D01*
X143583816Y-85091000D01*
X143416184Y-85091000D01*
X143251772Y-85058297D01*
X143096900Y-84994147D01*
X142957519Y-84901015D01*
X142838985Y-84782481D01*
X142745853Y-84643100D01*
X142681703Y-84488228D01*
X142649000Y-84323816D01*
X142649000Y-84156184D01*
X142681703Y-83991772D01*
X142745853Y-83836900D01*
X142838985Y-83697519D01*
X142957519Y-83578985D01*
X143096900Y-83485853D01*
X143251772Y-83421703D01*
X143416184Y-83389000D01*
X143583816Y-83389000D01*
X143748228Y-83421703D01*
G37*
G36*
X158988228Y-83421703D02*
G01*
X159143100Y-83485853D01*
X159282481Y-83578985D01*
X159401015Y-83697519D01*
X159494147Y-83836900D01*
X159558297Y-83991772D01*
X159591000Y-84156184D01*
X159591000Y-84323816D01*
X159558297Y-84488228D01*
X159494147Y-84643100D01*
X159401015Y-84782481D01*
X159282481Y-84901015D01*
X159143100Y-84994147D01*
X158988228Y-85058297D01*
X158823816Y-85091000D01*
X158656184Y-85091000D01*
X158491772Y-85058297D01*
X158336900Y-84994147D01*
X158197519Y-84901015D01*
X158078985Y-84782481D01*
X157985853Y-84643100D01*
X157921703Y-84488228D01*
X157889000Y-84323816D01*
X157889000Y-84156184D01*
X157921703Y-83991772D01*
X157985853Y-83836900D01*
X158078985Y-83697519D01*
X158197519Y-83578985D01*
X158336900Y-83485853D01*
X158491772Y-83421703D01*
X158656184Y-83389000D01*
X158823816Y-83389000D01*
X158988228Y-83421703D01*
G37*
G36*
X126248228Y-80881703D02*
G01*
X126403100Y-80945853D01*
X126542481Y-81038985D01*
X126661015Y-81157519D01*
X126754147Y-81296900D01*
X126818297Y-81451772D01*
X126851000Y-81616184D01*
X126851000Y-81783816D01*
X126818297Y-81948228D01*
X126754147Y-82103100D01*
X126661015Y-82242481D01*
X126542481Y-82361015D01*
X126403100Y-82454147D01*
X126248228Y-82518297D01*
X126083816Y-82551000D01*
X125916184Y-82551000D01*
X125751772Y-82518297D01*
X125596900Y-82454147D01*
X125457519Y-82361015D01*
X125338985Y-82242481D01*
X125245853Y-82103100D01*
X125181703Y-81948228D01*
X125149000Y-81783816D01*
X125149000Y-81616184D01*
X125181703Y-81451772D01*
X125245853Y-81296900D01*
X125338985Y-81157519D01*
X125457519Y-81038985D01*
X125596900Y-80945853D01*
X125751772Y-80881703D01*
X125916184Y-80849000D01*
X126083816Y-80849000D01*
X126248228Y-80881703D01*
G37*
G36*
X123748228Y-80881703D02*
G01*
X123903100Y-80945853D01*
X124042481Y-81038985D01*
X124161015Y-81157519D01*
X124254147Y-81296900D01*
X124318297Y-81451772D01*
X124351000Y-81616184D01*
X124351000Y-81783816D01*
X124318297Y-81948228D01*
X124254147Y-82103100D01*
X124161015Y-82242481D01*
X124042481Y-82361015D01*
X123903100Y-82454147D01*
X123748228Y-82518297D01*
X123583816Y-82551000D01*
X123416184Y-82551000D01*
X123251772Y-82518297D01*
X123096900Y-82454147D01*
X122957519Y-82361015D01*
X122838985Y-82242481D01*
X122745853Y-82103100D01*
X122681703Y-81948228D01*
X122649000Y-81783816D01*
X122649000Y-81616184D01*
X122681703Y-81451772D01*
X122745853Y-81296900D01*
X122838985Y-81157519D01*
X122957519Y-81038985D01*
X123096900Y-80945853D01*
X123251772Y-80881703D01*
X123416184Y-80849000D01*
X123583816Y-80849000D01*
X123748228Y-80881703D01*
G37*
G36*
X146248228Y-80881703D02*
G01*
X146403100Y-80945853D01*
X146542481Y-81038985D01*
X146661015Y-81157519D01*
X146754147Y-81296900D01*
X146818297Y-81451772D01*
X146851000Y-81616184D01*
X146851000Y-81783816D01*
X146818297Y-81948228D01*
X146754147Y-82103100D01*
X146661015Y-82242481D01*
X146542481Y-82361015D01*
X146403100Y-82454147D01*
X146248228Y-82518297D01*
X146083816Y-82551000D01*
X145916184Y-82551000D01*
X145751772Y-82518297D01*
X145596900Y-82454147D01*
X145457519Y-82361015D01*
X145338985Y-82242481D01*
X145245853Y-82103100D01*
X145181703Y-81948228D01*
X145149000Y-81783816D01*
X145149000Y-81616184D01*
X145181703Y-81451772D01*
X145245853Y-81296900D01*
X145338985Y-81157519D01*
X145457519Y-81038985D01*
X145596900Y-80945853D01*
X145751772Y-80881703D01*
X145916184Y-80849000D01*
X146083816Y-80849000D01*
X146248228Y-80881703D01*
G37*
G36*
X141488228Y-80881703D02*
G01*
X141643100Y-80945853D01*
X141782481Y-81038985D01*
X141901015Y-81157519D01*
X141994147Y-81296900D01*
X142058297Y-81451772D01*
X142091000Y-81616184D01*
X142091000Y-81783816D01*
X142058297Y-81948228D01*
X141994147Y-82103100D01*
X141901015Y-82242481D01*
X141782481Y-82361015D01*
X141643100Y-82454147D01*
X141488228Y-82518297D01*
X141323816Y-82551000D01*
X141156184Y-82551000D01*
X140991772Y-82518297D01*
X140836900Y-82454147D01*
X140697519Y-82361015D01*
X140578985Y-82242481D01*
X140485853Y-82103100D01*
X140421703Y-81948228D01*
X140389000Y-81783816D01*
X140389000Y-81616184D01*
X140421703Y-81451772D01*
X140485853Y-81296900D01*
X140578985Y-81157519D01*
X140697519Y-81038985D01*
X140836900Y-80945853D01*
X140991772Y-80881703D01*
X141156184Y-80849000D01*
X141323816Y-80849000D01*
X141488228Y-80881703D01*
G37*
G36*
X158988228Y-80881703D02*
G01*
X159143100Y-80945853D01*
X159282481Y-81038985D01*
X159401015Y-81157519D01*
X159494147Y-81296900D01*
X159558297Y-81451772D01*
X159591000Y-81616184D01*
X159591000Y-81783816D01*
X159558297Y-81948228D01*
X159494147Y-82103100D01*
X159401015Y-82242481D01*
X159282481Y-82361015D01*
X159143100Y-82454147D01*
X158988228Y-82518297D01*
X158823816Y-82551000D01*
X158656184Y-82551000D01*
X158491772Y-82518297D01*
X158336900Y-82454147D01*
X158197519Y-82361015D01*
X158078985Y-82242481D01*
X157985853Y-82103100D01*
X157921703Y-81948228D01*
X157889000Y-81783816D01*
X157889000Y-81616184D01*
X157921703Y-81451772D01*
X157985853Y-81296900D01*
X158078985Y-81157519D01*
X158197519Y-81038985D01*
X158336900Y-80945853D01*
X158491772Y-80881703D01*
X158656184Y-80849000D01*
X158823816Y-80849000D01*
X158988228Y-80881703D01*
G37*
G36*
X143748228Y-80881703D02*
G01*
X143903100Y-80945853D01*
X144042481Y-81038985D01*
X144161015Y-81157519D01*
X144254147Y-81296900D01*
X144318297Y-81451772D01*
X144351000Y-81616184D01*
X144351000Y-81783816D01*
X144318297Y-81948228D01*
X144254147Y-82103100D01*
X144161015Y-82242481D01*
X144042481Y-82361015D01*
X143903100Y-82454147D01*
X143748228Y-82518297D01*
X143583816Y-82551000D01*
X143416184Y-82551000D01*
X143251772Y-82518297D01*
X143096900Y-82454147D01*
X142957519Y-82361015D01*
X142838985Y-82242481D01*
X142745853Y-82103100D01*
X142681703Y-81948228D01*
X142649000Y-81783816D01*
X142649000Y-81616184D01*
X142681703Y-81451772D01*
X142745853Y-81296900D01*
X142838985Y-81157519D01*
X142957519Y-81038985D01*
X143096900Y-80945853D01*
X143251772Y-80881703D01*
X143416184Y-80849000D01*
X143583816Y-80849000D01*
X143748228Y-80881703D01*
G37*
G36*
X161488228Y-80881703D02*
G01*
X161643100Y-80945853D01*
X161782481Y-81038985D01*
X161901015Y-81157519D01*
X161994147Y-81296900D01*
X162058297Y-81451772D01*
X162091000Y-81616184D01*
X162091000Y-81783816D01*
X162058297Y-81948228D01*
X161994147Y-82103100D01*
X161901015Y-82242481D01*
X161782481Y-82361015D01*
X161643100Y-82454147D01*
X161488228Y-82518297D01*
X161323816Y-82551000D01*
X161156184Y-82551000D01*
X160991772Y-82518297D01*
X160836900Y-82454147D01*
X160697519Y-82361015D01*
X160578985Y-82242481D01*
X160485853Y-82103100D01*
X160421703Y-81948228D01*
X160389000Y-81783816D01*
X160389000Y-81616184D01*
X160421703Y-81451772D01*
X160485853Y-81296900D01*
X160578985Y-81157519D01*
X160697519Y-81038985D01*
X160836900Y-80945853D01*
X160991772Y-80881703D01*
X161156184Y-80849000D01*
X161323816Y-80849000D01*
X161488228Y-80881703D01*
G37*
G36*
X138988228Y-80881703D02*
G01*
X139143100Y-80945853D01*
X139282481Y-81038985D01*
X139401015Y-81157519D01*
X139494147Y-81296900D01*
X139558297Y-81451772D01*
X139591000Y-81616184D01*
X139591000Y-81783816D01*
X139558297Y-81948228D01*
X139494147Y-82103100D01*
X139401015Y-82242481D01*
X139282481Y-82361015D01*
X139143100Y-82454147D01*
X138988228Y-82518297D01*
X138823816Y-82551000D01*
X138656184Y-82551000D01*
X138491772Y-82518297D01*
X138336900Y-82454147D01*
X138197519Y-82361015D01*
X138078985Y-82242481D01*
X137985853Y-82103100D01*
X137921703Y-81948228D01*
X137889000Y-81783816D01*
X137889000Y-81616184D01*
X137921703Y-81451772D01*
X137985853Y-81296900D01*
X138078985Y-81157519D01*
X138197519Y-81038985D01*
X138336900Y-80945853D01*
X138491772Y-80881703D01*
X138656184Y-80849000D01*
X138823816Y-80849000D01*
X138988228Y-80881703D01*
G37*
G36*
X146248228Y-78341703D02*
G01*
X146403100Y-78405853D01*
X146542481Y-78498985D01*
X146661015Y-78617519D01*
X146754147Y-78756900D01*
X146818297Y-78911772D01*
X146851000Y-79076184D01*
X146851000Y-79243816D01*
X146818297Y-79408228D01*
X146754147Y-79563100D01*
X146661015Y-79702481D01*
X146542481Y-79821015D01*
X146403100Y-79914147D01*
X146248228Y-79978297D01*
X146083816Y-80011000D01*
X145916184Y-80011000D01*
X145751772Y-79978297D01*
X145596900Y-79914147D01*
X145457519Y-79821015D01*
X145338985Y-79702481D01*
X145245853Y-79563100D01*
X145181703Y-79408228D01*
X145149000Y-79243816D01*
X145149000Y-79076184D01*
X145181703Y-78911772D01*
X145245853Y-78756900D01*
X145338985Y-78617519D01*
X145457519Y-78498985D01*
X145596900Y-78405853D01*
X145751772Y-78341703D01*
X145916184Y-78309000D01*
X146083816Y-78309000D01*
X146248228Y-78341703D01*
G37*
G36*
X161488228Y-78341703D02*
G01*
X161643100Y-78405853D01*
X161782481Y-78498985D01*
X161901015Y-78617519D01*
X161994147Y-78756900D01*
X162058297Y-78911772D01*
X162091000Y-79076184D01*
X162091000Y-79243816D01*
X162058297Y-79408228D01*
X161994147Y-79563100D01*
X161901015Y-79702481D01*
X161782481Y-79821015D01*
X161643100Y-79914147D01*
X161488228Y-79978297D01*
X161323816Y-80011000D01*
X161156184Y-80011000D01*
X160991772Y-79978297D01*
X160836900Y-79914147D01*
X160697519Y-79821015D01*
X160578985Y-79702481D01*
X160485853Y-79563100D01*
X160421703Y-79408228D01*
X160389000Y-79243816D01*
X160389000Y-79076184D01*
X160421703Y-78911772D01*
X160485853Y-78756900D01*
X160578985Y-78617519D01*
X160697519Y-78498985D01*
X160836900Y-78405853D01*
X160991772Y-78341703D01*
X161156184Y-78309000D01*
X161323816Y-78309000D01*
X161488228Y-78341703D01*
G37*
G36*
X143748228Y-78341703D02*
G01*
X143903100Y-78405853D01*
X144042481Y-78498985D01*
X144161015Y-78617519D01*
X144254147Y-78756900D01*
X144318297Y-78911772D01*
X144351000Y-79076184D01*
X144351000Y-79243816D01*
X144318297Y-79408228D01*
X144254147Y-79563100D01*
X144161015Y-79702481D01*
X144042481Y-79821015D01*
X143903100Y-79914147D01*
X143748228Y-79978297D01*
X143583816Y-80011000D01*
X143416184Y-80011000D01*
X143251772Y-79978297D01*
X143096900Y-79914147D01*
X142957519Y-79821015D01*
X142838985Y-79702481D01*
X142745853Y-79563100D01*
X142681703Y-79408228D01*
X142649000Y-79243816D01*
X142649000Y-79076184D01*
X142681703Y-78911772D01*
X142745853Y-78756900D01*
X142838985Y-78617519D01*
X142957519Y-78498985D01*
X143096900Y-78405853D01*
X143251772Y-78341703D01*
X143416184Y-78309000D01*
X143583816Y-78309000D01*
X143748228Y-78341703D01*
G37*
G36*
X141488228Y-78341703D02*
G01*
X141643100Y-78405853D01*
X141782481Y-78498985D01*
X141901015Y-78617519D01*
X141994147Y-78756900D01*
X142058297Y-78911772D01*
X142091000Y-79076184D01*
X142091000Y-79243816D01*
X142058297Y-79408228D01*
X141994147Y-79563100D01*
X141901015Y-79702481D01*
X141782481Y-79821015D01*
X141643100Y-79914147D01*
X141488228Y-79978297D01*
X141323816Y-80011000D01*
X141156184Y-80011000D01*
X140991772Y-79978297D01*
X140836900Y-79914147D01*
X140697519Y-79821015D01*
X140578985Y-79702481D01*
X140485853Y-79563100D01*
X140421703Y-79408228D01*
X140389000Y-79243816D01*
X140389000Y-79076184D01*
X140421703Y-78911772D01*
X140485853Y-78756900D01*
X140578985Y-78617519D01*
X140697519Y-78498985D01*
X140836900Y-78405853D01*
X140991772Y-78341703D01*
X141156184Y-78309000D01*
X141323816Y-78309000D01*
X141488228Y-78341703D01*
G37*
G36*
X138988228Y-78341703D02*
G01*
X139143100Y-78405853D01*
X139282481Y-78498985D01*
X139401015Y-78617519D01*
X139494147Y-78756900D01*
X139558297Y-78911772D01*
X139591000Y-79076184D01*
X139591000Y-79243816D01*
X139558297Y-79408228D01*
X139494147Y-79563100D01*
X139401015Y-79702481D01*
X139282481Y-79821015D01*
X139143100Y-79914147D01*
X138988228Y-79978297D01*
X138823816Y-80011000D01*
X138656184Y-80011000D01*
X138491772Y-79978297D01*
X138336900Y-79914147D01*
X138197519Y-79821015D01*
X138078985Y-79702481D01*
X137985853Y-79563100D01*
X137921703Y-79408228D01*
X137889000Y-79243816D01*
X137889000Y-79076184D01*
X137921703Y-78911772D01*
X137985853Y-78756900D01*
X138078985Y-78617519D01*
X138197519Y-78498985D01*
X138336900Y-78405853D01*
X138491772Y-78341703D01*
X138656184Y-78309000D01*
X138823816Y-78309000D01*
X138988228Y-78341703D01*
G37*
G36*
X123748228Y-78341703D02*
G01*
X123903100Y-78405853D01*
X124042481Y-78498985D01*
X124161015Y-78617519D01*
X124254147Y-78756900D01*
X124318297Y-78911772D01*
X124351000Y-79076184D01*
X124351000Y-79243816D01*
X124318297Y-79408228D01*
X124254147Y-79563100D01*
X124161015Y-79702481D01*
X124042481Y-79821015D01*
X123903100Y-79914147D01*
X123748228Y-79978297D01*
X123583816Y-80011000D01*
X123416184Y-80011000D01*
X123251772Y-79978297D01*
X123096900Y-79914147D01*
X122957519Y-79821015D01*
X122838985Y-79702481D01*
X122745853Y-79563100D01*
X122681703Y-79408228D01*
X122649000Y-79243816D01*
X122649000Y-79076184D01*
X122681703Y-78911772D01*
X122745853Y-78756900D01*
X122838985Y-78617519D01*
X122957519Y-78498985D01*
X123096900Y-78405853D01*
X123251772Y-78341703D01*
X123416184Y-78309000D01*
X123583816Y-78309000D01*
X123748228Y-78341703D01*
G37*
G36*
X158988228Y-78341703D02*
G01*
X159143100Y-78405853D01*
X159282481Y-78498985D01*
X159401015Y-78617519D01*
X159494147Y-78756900D01*
X159558297Y-78911772D01*
X159591000Y-79076184D01*
X159591000Y-79243816D01*
X159558297Y-79408228D01*
X159494147Y-79563100D01*
X159401015Y-79702481D01*
X159282481Y-79821015D01*
X159143100Y-79914147D01*
X158988228Y-79978297D01*
X158823816Y-80011000D01*
X158656184Y-80011000D01*
X158491772Y-79978297D01*
X158336900Y-79914147D01*
X158197519Y-79821015D01*
X158078985Y-79702481D01*
X157985853Y-79563100D01*
X157921703Y-79408228D01*
X157889000Y-79243816D01*
X157889000Y-79076184D01*
X157921703Y-78911772D01*
X157985853Y-78756900D01*
X158078985Y-78617519D01*
X158197519Y-78498985D01*
X158336900Y-78405853D01*
X158491772Y-78341703D01*
X158656184Y-78309000D01*
X158823816Y-78309000D01*
X158988228Y-78341703D01*
G37*
G36*
X126248228Y-78341703D02*
G01*
X126403100Y-78405853D01*
X126542481Y-78498985D01*
X126661015Y-78617519D01*
X126754147Y-78756900D01*
X126818297Y-78911772D01*
X126851000Y-79076184D01*
X126851000Y-79243816D01*
X126818297Y-79408228D01*
X126754147Y-79563100D01*
X126661015Y-79702481D01*
X126542481Y-79821015D01*
X126403100Y-79914147D01*
X126248228Y-79978297D01*
X126083816Y-80011000D01*
X125916184Y-80011000D01*
X125751772Y-79978297D01*
X125596900Y-79914147D01*
X125457519Y-79821015D01*
X125338985Y-79702481D01*
X125245853Y-79563100D01*
X125181703Y-79408228D01*
X125149000Y-79243816D01*
X125149000Y-79076184D01*
X125181703Y-78911772D01*
X125245853Y-78756900D01*
X125338985Y-78617519D01*
X125457519Y-78498985D01*
X125596900Y-78405853D01*
X125751772Y-78341703D01*
X125916184Y-78309000D01*
X126083816Y-78309000D01*
X126248228Y-78341703D01*
G37*
G36*
X146248228Y-75801703D02*
G01*
X146403100Y-75865853D01*
X146542481Y-75958985D01*
X146661015Y-76077519D01*
X146754147Y-76216900D01*
X146818297Y-76371772D01*
X146851000Y-76536184D01*
X146851000Y-76703816D01*
X146818297Y-76868228D01*
X146754147Y-77023100D01*
X146661015Y-77162481D01*
X146542481Y-77281015D01*
X146403100Y-77374147D01*
X146248228Y-77438297D01*
X146083816Y-77471000D01*
X145916184Y-77471000D01*
X145751772Y-77438297D01*
X145596900Y-77374147D01*
X145457519Y-77281015D01*
X145338985Y-77162481D01*
X145245853Y-77023100D01*
X145181703Y-76868228D01*
X145149000Y-76703816D01*
X145149000Y-76536184D01*
X145181703Y-76371772D01*
X145245853Y-76216900D01*
X145338985Y-76077519D01*
X145457519Y-75958985D01*
X145596900Y-75865853D01*
X145751772Y-75801703D01*
X145916184Y-75769000D01*
X146083816Y-75769000D01*
X146248228Y-75801703D01*
G37*
G36*
X143748228Y-75801703D02*
G01*
X143903100Y-75865853D01*
X144042481Y-75958985D01*
X144161015Y-76077519D01*
X144254147Y-76216900D01*
X144318297Y-76371772D01*
X144351000Y-76536184D01*
X144351000Y-76703816D01*
X144318297Y-76868228D01*
X144254147Y-77023100D01*
X144161015Y-77162481D01*
X144042481Y-77281015D01*
X143903100Y-77374147D01*
X143748228Y-77438297D01*
X143583816Y-77471000D01*
X143416184Y-77471000D01*
X143251772Y-77438297D01*
X143096900Y-77374147D01*
X142957519Y-77281015D01*
X142838985Y-77162481D01*
X142745853Y-77023100D01*
X142681703Y-76868228D01*
X142649000Y-76703816D01*
X142649000Y-76536184D01*
X142681703Y-76371772D01*
X142745853Y-76216900D01*
X142838985Y-76077519D01*
X142957519Y-75958985D01*
X143096900Y-75865853D01*
X143251772Y-75801703D01*
X143416184Y-75769000D01*
X143583816Y-75769000D01*
X143748228Y-75801703D01*
G37*
G36*
X123748228Y-75801703D02*
G01*
X123903100Y-75865853D01*
X124042481Y-75958985D01*
X124161015Y-76077519D01*
X124254147Y-76216900D01*
X124318297Y-76371772D01*
X124351000Y-76536184D01*
X124351000Y-76703816D01*
X124318297Y-76868228D01*
X124254147Y-77023100D01*
X124161015Y-77162481D01*
X124042481Y-77281015D01*
X123903100Y-77374147D01*
X123748228Y-77438297D01*
X123583816Y-77471000D01*
X123416184Y-77471000D01*
X123251772Y-77438297D01*
X123096900Y-77374147D01*
X122957519Y-77281015D01*
X122838985Y-77162481D01*
X122745853Y-77023100D01*
X122681703Y-76868228D01*
X122649000Y-76703816D01*
X122649000Y-76536184D01*
X122681703Y-76371772D01*
X122745853Y-76216900D01*
X122838985Y-76077519D01*
X122957519Y-75958985D01*
X123096900Y-75865853D01*
X123251772Y-75801703D01*
X123416184Y-75769000D01*
X123583816Y-75769000D01*
X123748228Y-75801703D01*
G37*
G36*
X126248228Y-75801703D02*
G01*
X126403100Y-75865853D01*
X126542481Y-75958985D01*
X126661015Y-76077519D01*
X126754147Y-76216900D01*
X126818297Y-76371772D01*
X126851000Y-76536184D01*
X126851000Y-76703816D01*
X126818297Y-76868228D01*
X126754147Y-77023100D01*
X126661015Y-77162481D01*
X126542481Y-77281015D01*
X126403100Y-77374147D01*
X126248228Y-77438297D01*
X126083816Y-77471000D01*
X125916184Y-77471000D01*
X125751772Y-77438297D01*
X125596900Y-77374147D01*
X125457519Y-77281015D01*
X125338985Y-77162481D01*
X125245853Y-77023100D01*
X125181703Y-76868228D01*
X125149000Y-76703816D01*
X125149000Y-76536184D01*
X125181703Y-76371772D01*
X125245853Y-76216900D01*
X125338985Y-76077519D01*
X125457519Y-75958985D01*
X125596900Y-75865853D01*
X125751772Y-75801703D01*
X125916184Y-75769000D01*
X126083816Y-75769000D01*
X126248228Y-75801703D01*
G37*
G36*
X138988228Y-75801703D02*
G01*
X139143100Y-75865853D01*
X139282481Y-75958985D01*
X139401015Y-76077519D01*
X139494147Y-76216900D01*
X139558297Y-76371772D01*
X139591000Y-76536184D01*
X139591000Y-76703816D01*
X139558297Y-76868228D01*
X139494147Y-77023100D01*
X139401015Y-77162481D01*
X139282481Y-77281015D01*
X139143100Y-77374147D01*
X138988228Y-77438297D01*
X138823816Y-77471000D01*
X138656184Y-77471000D01*
X138491772Y-77438297D01*
X138336900Y-77374147D01*
X138197519Y-77281015D01*
X138078985Y-77162481D01*
X137985853Y-77023100D01*
X137921703Y-76868228D01*
X137889000Y-76703816D01*
X137889000Y-76536184D01*
X137921703Y-76371772D01*
X137985853Y-76216900D01*
X138078985Y-76077519D01*
X138197519Y-75958985D01*
X138336900Y-75865853D01*
X138491772Y-75801703D01*
X138656184Y-75769000D01*
X138823816Y-75769000D01*
X138988228Y-75801703D01*
G37*
G36*
X158988228Y-75801703D02*
G01*
X159143100Y-75865853D01*
X159282481Y-75958985D01*
X159401015Y-76077519D01*
X159494147Y-76216900D01*
X159558297Y-76371772D01*
X159591000Y-76536184D01*
X159591000Y-76703816D01*
X159558297Y-76868228D01*
X159494147Y-77023100D01*
X159401015Y-77162481D01*
X159282481Y-77281015D01*
X159143100Y-77374147D01*
X158988228Y-77438297D01*
X158823816Y-77471000D01*
X158656184Y-77471000D01*
X158491772Y-77438297D01*
X158336900Y-77374147D01*
X158197519Y-77281015D01*
X158078985Y-77162481D01*
X157985853Y-77023100D01*
X157921703Y-76868228D01*
X157889000Y-76703816D01*
X157889000Y-76536184D01*
X157921703Y-76371772D01*
X157985853Y-76216900D01*
X158078985Y-76077519D01*
X158197519Y-75958985D01*
X158336900Y-75865853D01*
X158491772Y-75801703D01*
X158656184Y-75769000D01*
X158823816Y-75769000D01*
X158988228Y-75801703D01*
G37*
G36*
X141488228Y-75801703D02*
G01*
X141643100Y-75865853D01*
X141782481Y-75958985D01*
X141901015Y-76077519D01*
X141994147Y-76216900D01*
X142058297Y-76371772D01*
X142091000Y-76536184D01*
X142091000Y-76703816D01*
X142058297Y-76868228D01*
X141994147Y-77023100D01*
X141901015Y-77162481D01*
X141782481Y-77281015D01*
X141643100Y-77374147D01*
X141488228Y-77438297D01*
X141323816Y-77471000D01*
X141156184Y-77471000D01*
X140991772Y-77438297D01*
X140836900Y-77374147D01*
X140697519Y-77281015D01*
X140578985Y-77162481D01*
X140485853Y-77023100D01*
X140421703Y-76868228D01*
X140389000Y-76703816D01*
X140389000Y-76536184D01*
X140421703Y-76371772D01*
X140485853Y-76216900D01*
X140578985Y-76077519D01*
X140697519Y-75958985D01*
X140836900Y-75865853D01*
X140991772Y-75801703D01*
X141156184Y-75769000D01*
X141323816Y-75769000D01*
X141488228Y-75801703D01*
G37*
G36*
X161488228Y-75801703D02*
G01*
X161643100Y-75865853D01*
X161782481Y-75958985D01*
X161901015Y-76077519D01*
X161994147Y-76216900D01*
X162058297Y-76371772D01*
X162091000Y-76536184D01*
X162091000Y-76703816D01*
X162058297Y-76868228D01*
X161994147Y-77023100D01*
X161901015Y-77162481D01*
X161782481Y-77281015D01*
X161643100Y-77374147D01*
X161488228Y-77438297D01*
X161323816Y-77471000D01*
X161156184Y-77471000D01*
X160991772Y-77438297D01*
X160836900Y-77374147D01*
X160697519Y-77281015D01*
X160578985Y-77162481D01*
X160485853Y-77023100D01*
X160421703Y-76868228D01*
X160389000Y-76703816D01*
X160389000Y-76536184D01*
X160421703Y-76371772D01*
X160485853Y-76216900D01*
X160578985Y-76077519D01*
X160697519Y-75958985D01*
X160836900Y-75865853D01*
X160991772Y-75801703D01*
X161156184Y-75769000D01*
X161323816Y-75769000D01*
X161488228Y-75801703D01*
G37*
G36*
X143748228Y-73261703D02*
G01*
X143903100Y-73325853D01*
X144042481Y-73418985D01*
X144161015Y-73537519D01*
X144254147Y-73676900D01*
X144318297Y-73831772D01*
X144351000Y-73996184D01*
X144351000Y-74163816D01*
X144318297Y-74328228D01*
X144254147Y-74483100D01*
X144161015Y-74622481D01*
X144042481Y-74741015D01*
X143903100Y-74834147D01*
X143748228Y-74898297D01*
X143583816Y-74931000D01*
X143416184Y-74931000D01*
X143251772Y-74898297D01*
X143096900Y-74834147D01*
X142957519Y-74741015D01*
X142838985Y-74622481D01*
X142745853Y-74483100D01*
X142681703Y-74328228D01*
X142649000Y-74163816D01*
X142649000Y-73996184D01*
X142681703Y-73831772D01*
X142745853Y-73676900D01*
X142838985Y-73537519D01*
X142957519Y-73418985D01*
X143096900Y-73325853D01*
X143251772Y-73261703D01*
X143416184Y-73229000D01*
X143583816Y-73229000D01*
X143748228Y-73261703D01*
G37*
G36*
X146248228Y-73261703D02*
G01*
X146403100Y-73325853D01*
X146542481Y-73418985D01*
X146661015Y-73537519D01*
X146754147Y-73676900D01*
X146818297Y-73831772D01*
X146851000Y-73996184D01*
X146851000Y-74163816D01*
X146818297Y-74328228D01*
X146754147Y-74483100D01*
X146661015Y-74622481D01*
X146542481Y-74741015D01*
X146403100Y-74834147D01*
X146248228Y-74898297D01*
X146083816Y-74931000D01*
X145916184Y-74931000D01*
X145751772Y-74898297D01*
X145596900Y-74834147D01*
X145457519Y-74741015D01*
X145338985Y-74622481D01*
X145245853Y-74483100D01*
X145181703Y-74328228D01*
X145149000Y-74163816D01*
X145149000Y-73996184D01*
X145181703Y-73831772D01*
X145245853Y-73676900D01*
X145338985Y-73537519D01*
X145457519Y-73418985D01*
X145596900Y-73325853D01*
X145751772Y-73261703D01*
X145916184Y-73229000D01*
X146083816Y-73229000D01*
X146248228Y-73261703D01*
G37*
G36*
X123748228Y-73261703D02*
G01*
X123903100Y-73325853D01*
X124042481Y-73418985D01*
X124161015Y-73537519D01*
X124254147Y-73676900D01*
X124318297Y-73831772D01*
X124351000Y-73996184D01*
X124351000Y-74163816D01*
X124318297Y-74328228D01*
X124254147Y-74483100D01*
X124161015Y-74622481D01*
X124042481Y-74741015D01*
X123903100Y-74834147D01*
X123748228Y-74898297D01*
X123583816Y-74931000D01*
X123416184Y-74931000D01*
X123251772Y-74898297D01*
X123096900Y-74834147D01*
X122957519Y-74741015D01*
X122838985Y-74622481D01*
X122745853Y-74483100D01*
X122681703Y-74328228D01*
X122649000Y-74163816D01*
X122649000Y-73996184D01*
X122681703Y-73831772D01*
X122745853Y-73676900D01*
X122838985Y-73537519D01*
X122957519Y-73418985D01*
X123096900Y-73325853D01*
X123251772Y-73261703D01*
X123416184Y-73229000D01*
X123583816Y-73229000D01*
X123748228Y-73261703D01*
G37*
G36*
X126248228Y-73261703D02*
G01*
X126403100Y-73325853D01*
X126542481Y-73418985D01*
X126661015Y-73537519D01*
X126754147Y-73676900D01*
X126818297Y-73831772D01*
X126851000Y-73996184D01*
X126851000Y-74163816D01*
X126818297Y-74328228D01*
X126754147Y-74483100D01*
X126661015Y-74622481D01*
X126542481Y-74741015D01*
X126403100Y-74834147D01*
X126248228Y-74898297D01*
X126083816Y-74931000D01*
X125916184Y-74931000D01*
X125751772Y-74898297D01*
X125596900Y-74834147D01*
X125457519Y-74741015D01*
X125338985Y-74622481D01*
X125245853Y-74483100D01*
X125181703Y-74328228D01*
X125149000Y-74163816D01*
X125149000Y-73996184D01*
X125181703Y-73831772D01*
X125245853Y-73676900D01*
X125338985Y-73537519D01*
X125457519Y-73418985D01*
X125596900Y-73325853D01*
X125751772Y-73261703D01*
X125916184Y-73229000D01*
X126083816Y-73229000D01*
X126248228Y-73261703D01*
G37*
G36*
X138988228Y-73261703D02*
G01*
X139143100Y-73325853D01*
X139282481Y-73418985D01*
X139401015Y-73537519D01*
X139494147Y-73676900D01*
X139558297Y-73831772D01*
X139591000Y-73996184D01*
X139591000Y-74163816D01*
X139558297Y-74328228D01*
X139494147Y-74483100D01*
X139401015Y-74622481D01*
X139282481Y-74741015D01*
X139143100Y-74834147D01*
X138988228Y-74898297D01*
X138823816Y-74931000D01*
X138656184Y-74931000D01*
X138491772Y-74898297D01*
X138336900Y-74834147D01*
X138197519Y-74741015D01*
X138078985Y-74622481D01*
X137985853Y-74483100D01*
X137921703Y-74328228D01*
X137889000Y-74163816D01*
X137889000Y-73996184D01*
X137921703Y-73831772D01*
X137985853Y-73676900D01*
X138078985Y-73537519D01*
X138197519Y-73418985D01*
X138336900Y-73325853D01*
X138491772Y-73261703D01*
X138656184Y-73229000D01*
X138823816Y-73229000D01*
X138988228Y-73261703D01*
G37*
G36*
X141488228Y-73261703D02*
G01*
X141643100Y-73325853D01*
X141782481Y-73418985D01*
X141901015Y-73537519D01*
X141994147Y-73676900D01*
X142058297Y-73831772D01*
X142091000Y-73996184D01*
X142091000Y-74163816D01*
X142058297Y-74328228D01*
X141994147Y-74483100D01*
X141901015Y-74622481D01*
X141782481Y-74741015D01*
X141643100Y-74834147D01*
X141488228Y-74898297D01*
X141323816Y-74931000D01*
X141156184Y-74931000D01*
X140991772Y-74898297D01*
X140836900Y-74834147D01*
X140697519Y-74741015D01*
X140578985Y-74622481D01*
X140485853Y-74483100D01*
X140421703Y-74328228D01*
X140389000Y-74163816D01*
X140389000Y-73996184D01*
X140421703Y-73831772D01*
X140485853Y-73676900D01*
X140578985Y-73537519D01*
X140697519Y-73418985D01*
X140836900Y-73325853D01*
X140991772Y-73261703D01*
X141156184Y-73229000D01*
X141323816Y-73229000D01*
X141488228Y-73261703D01*
G37*
G36*
X161488228Y-73261703D02*
G01*
X161643100Y-73325853D01*
X161782481Y-73418985D01*
X161901015Y-73537519D01*
X161994147Y-73676900D01*
X162058297Y-73831772D01*
X162091000Y-73996184D01*
X162091000Y-74163816D01*
X162058297Y-74328228D01*
X161994147Y-74483100D01*
X161901015Y-74622481D01*
X161782481Y-74741015D01*
X161643100Y-74834147D01*
X161488228Y-74898297D01*
X161323816Y-74931000D01*
X161156184Y-74931000D01*
X160991772Y-74898297D01*
X160836900Y-74834147D01*
X160697519Y-74741015D01*
X160578985Y-74622481D01*
X160485853Y-74483100D01*
X160421703Y-74328228D01*
X160389000Y-74163816D01*
X160389000Y-73996184D01*
X160421703Y-73831772D01*
X160485853Y-73676900D01*
X160578985Y-73537519D01*
X160697519Y-73418985D01*
X160836900Y-73325853D01*
X160991772Y-73261703D01*
X161156184Y-73229000D01*
X161323816Y-73229000D01*
X161488228Y-73261703D01*
G37*
G36*
X158988228Y-73261703D02*
G01*
X159143100Y-73325853D01*
X159282481Y-73418985D01*
X159401015Y-73537519D01*
X159494147Y-73676900D01*
X159558297Y-73831772D01*
X159591000Y-73996184D01*
X159591000Y-74163816D01*
X159558297Y-74328228D01*
X159494147Y-74483100D01*
X159401015Y-74622481D01*
X159282481Y-74741015D01*
X159143100Y-74834147D01*
X158988228Y-74898297D01*
X158823816Y-74931000D01*
X158656184Y-74931000D01*
X158491772Y-74898297D01*
X158336900Y-74834147D01*
X158197519Y-74741015D01*
X158078985Y-74622481D01*
X157985853Y-74483100D01*
X157921703Y-74328228D01*
X157889000Y-74163816D01*
X157889000Y-73996184D01*
X157921703Y-73831772D01*
X157985853Y-73676900D01*
X158078985Y-73537519D01*
X158197519Y-73418985D01*
X158336900Y-73325853D01*
X158491772Y-73261703D01*
X158656184Y-73229000D01*
X158823816Y-73229000D01*
X158988228Y-73261703D01*
G37*
G36*
X146248228Y-70721703D02*
G01*
X146403100Y-70785853D01*
X146542481Y-70878985D01*
X146661015Y-70997519D01*
X146754147Y-71136900D01*
X146818297Y-71291772D01*
X146851000Y-71456184D01*
X146851000Y-71623816D01*
X146818297Y-71788228D01*
X146754147Y-71943100D01*
X146661015Y-72082481D01*
X146542481Y-72201015D01*
X146403100Y-72294147D01*
X146248228Y-72358297D01*
X146083816Y-72391000D01*
X145916184Y-72391000D01*
X145751772Y-72358297D01*
X145596900Y-72294147D01*
X145457519Y-72201015D01*
X145338985Y-72082481D01*
X145245853Y-71943100D01*
X145181703Y-71788228D01*
X145149000Y-71623816D01*
X145149000Y-71456184D01*
X145181703Y-71291772D01*
X145245853Y-71136900D01*
X145338985Y-70997519D01*
X145457519Y-70878985D01*
X145596900Y-70785853D01*
X145751772Y-70721703D01*
X145916184Y-70689000D01*
X146083816Y-70689000D01*
X146248228Y-70721703D01*
G37*
G36*
X138988228Y-70721703D02*
G01*
X139143100Y-70785853D01*
X139282481Y-70878985D01*
X139401015Y-70997519D01*
X139494147Y-71136900D01*
X139558297Y-71291772D01*
X139591000Y-71456184D01*
X139591000Y-71623816D01*
X139558297Y-71788228D01*
X139494147Y-71943100D01*
X139401015Y-72082481D01*
X139282481Y-72201015D01*
X139143100Y-72294147D01*
X138988228Y-72358297D01*
X138823816Y-72391000D01*
X138656184Y-72391000D01*
X138491772Y-72358297D01*
X138336900Y-72294147D01*
X138197519Y-72201015D01*
X138078985Y-72082481D01*
X137985853Y-71943100D01*
X137921703Y-71788228D01*
X137889000Y-71623816D01*
X137889000Y-71456184D01*
X137921703Y-71291772D01*
X137985853Y-71136900D01*
X138078985Y-70997519D01*
X138197519Y-70878985D01*
X138336900Y-70785853D01*
X138491772Y-70721703D01*
X138656184Y-70689000D01*
X138823816Y-70689000D01*
X138988228Y-70721703D01*
G37*
G36*
X161488228Y-70721703D02*
G01*
X161643100Y-70785853D01*
X161782481Y-70878985D01*
X161901015Y-70997519D01*
X161994147Y-71136900D01*
X162058297Y-71291772D01*
X162091000Y-71456184D01*
X162091000Y-71623816D01*
X162058297Y-71788228D01*
X161994147Y-71943100D01*
X161901015Y-72082481D01*
X161782481Y-72201015D01*
X161643100Y-72294147D01*
X161488228Y-72358297D01*
X161323816Y-72391000D01*
X161156184Y-72391000D01*
X160991772Y-72358297D01*
X160836900Y-72294147D01*
X160697519Y-72201015D01*
X160578985Y-72082481D01*
X160485853Y-71943100D01*
X160421703Y-71788228D01*
X160389000Y-71623816D01*
X160389000Y-71456184D01*
X160421703Y-71291772D01*
X160485853Y-71136900D01*
X160578985Y-70997519D01*
X160697519Y-70878985D01*
X160836900Y-70785853D01*
X160991772Y-70721703D01*
X161156184Y-70689000D01*
X161323816Y-70689000D01*
X161488228Y-70721703D01*
G37*
G36*
X143748228Y-70721703D02*
G01*
X143903100Y-70785853D01*
X144042481Y-70878985D01*
X144161015Y-70997519D01*
X144254147Y-71136900D01*
X144318297Y-71291772D01*
X144351000Y-71456184D01*
X144351000Y-71623816D01*
X144318297Y-71788228D01*
X144254147Y-71943100D01*
X144161015Y-72082481D01*
X144042481Y-72201015D01*
X143903100Y-72294147D01*
X143748228Y-72358297D01*
X143583816Y-72391000D01*
X143416184Y-72391000D01*
X143251772Y-72358297D01*
X143096900Y-72294147D01*
X142957519Y-72201015D01*
X142838985Y-72082481D01*
X142745853Y-71943100D01*
X142681703Y-71788228D01*
X142649000Y-71623816D01*
X142649000Y-71456184D01*
X142681703Y-71291772D01*
X142745853Y-71136900D01*
X142838985Y-70997519D01*
X142957519Y-70878985D01*
X143096900Y-70785853D01*
X143251772Y-70721703D01*
X143416184Y-70689000D01*
X143583816Y-70689000D01*
X143748228Y-70721703D01*
G37*
G36*
X158988228Y-70721703D02*
G01*
X159143100Y-70785853D01*
X159282481Y-70878985D01*
X159401015Y-70997519D01*
X159494147Y-71136900D01*
X159558297Y-71291772D01*
X159591000Y-71456184D01*
X159591000Y-71623816D01*
X159558297Y-71788228D01*
X159494147Y-71943100D01*
X159401015Y-72082481D01*
X159282481Y-72201015D01*
X159143100Y-72294147D01*
X158988228Y-72358297D01*
X158823816Y-72391000D01*
X158656184Y-72391000D01*
X158491772Y-72358297D01*
X158336900Y-72294147D01*
X158197519Y-72201015D01*
X158078985Y-72082481D01*
X157985853Y-71943100D01*
X157921703Y-71788228D01*
X157889000Y-71623816D01*
X157889000Y-71456184D01*
X157921703Y-71291772D01*
X157985853Y-71136900D01*
X158078985Y-70997519D01*
X158197519Y-70878985D01*
X158336900Y-70785853D01*
X158491772Y-70721703D01*
X158656184Y-70689000D01*
X158823816Y-70689000D01*
X158988228Y-70721703D01*
G37*
G36*
X141488228Y-70721703D02*
G01*
X141643100Y-70785853D01*
X141782481Y-70878985D01*
X141901015Y-70997519D01*
X141994147Y-71136900D01*
X142058297Y-71291772D01*
X142091000Y-71456184D01*
X142091000Y-71623816D01*
X142058297Y-71788228D01*
X141994147Y-71943100D01*
X141901015Y-72082481D01*
X141782481Y-72201015D01*
X141643100Y-72294147D01*
X141488228Y-72358297D01*
X141323816Y-72391000D01*
X141156184Y-72391000D01*
X140991772Y-72358297D01*
X140836900Y-72294147D01*
X140697519Y-72201015D01*
X140578985Y-72082481D01*
X140485853Y-71943100D01*
X140421703Y-71788228D01*
X140389000Y-71623816D01*
X140389000Y-71456184D01*
X140421703Y-71291772D01*
X140485853Y-71136900D01*
X140578985Y-70997519D01*
X140697519Y-70878985D01*
X140836900Y-70785853D01*
X140991772Y-70721703D01*
X141156184Y-70689000D01*
X141323816Y-70689000D01*
X141488228Y-70721703D01*
G37*
G36*
X126248228Y-70721703D02*
G01*
X126403100Y-70785853D01*
X126542481Y-70878985D01*
X126661015Y-70997519D01*
X126754147Y-71136900D01*
X126818297Y-71291772D01*
X126851000Y-71456184D01*
X126851000Y-71623816D01*
X126818297Y-71788228D01*
X126754147Y-71943100D01*
X126661015Y-72082481D01*
X126542481Y-72201015D01*
X126403100Y-72294147D01*
X126248228Y-72358297D01*
X126083816Y-72391000D01*
X125916184Y-72391000D01*
X125751772Y-72358297D01*
X125596900Y-72294147D01*
X125457519Y-72201015D01*
X125338985Y-72082481D01*
X125245853Y-71943100D01*
X125181703Y-71788228D01*
X125149000Y-71623816D01*
X125149000Y-71456184D01*
X125181703Y-71291772D01*
X125245853Y-71136900D01*
X125338985Y-70997519D01*
X125457519Y-70878985D01*
X125596900Y-70785853D01*
X125751772Y-70721703D01*
X125916184Y-70689000D01*
X126083816Y-70689000D01*
X126248228Y-70721703D01*
G37*
G36*
X123748228Y-70721703D02*
G01*
X123903100Y-70785853D01*
X124042481Y-70878985D01*
X124161015Y-70997519D01*
X124254147Y-71136900D01*
X124318297Y-71291772D01*
X124351000Y-71456184D01*
X124351000Y-71623816D01*
X124318297Y-71788228D01*
X124254147Y-71943100D01*
X124161015Y-72082481D01*
X124042481Y-72201015D01*
X123903100Y-72294147D01*
X123748228Y-72358297D01*
X123583816Y-72391000D01*
X123416184Y-72391000D01*
X123251772Y-72358297D01*
X123096900Y-72294147D01*
X122957519Y-72201015D01*
X122838985Y-72082481D01*
X122745853Y-71943100D01*
X122681703Y-71788228D01*
X122649000Y-71623816D01*
X122649000Y-71456184D01*
X122681703Y-71291772D01*
X122745853Y-71136900D01*
X122838985Y-70997519D01*
X122957519Y-70878985D01*
X123096900Y-70785853D01*
X123251772Y-70721703D01*
X123416184Y-70689000D01*
X123583816Y-70689000D01*
X123748228Y-70721703D01*
G37*
G36*
X158988228Y-68181703D02*
G01*
X159143100Y-68245853D01*
X159282481Y-68338985D01*
X159401015Y-68457519D01*
X159494147Y-68596900D01*
X159558297Y-68751772D01*
X159591000Y-68916184D01*
X159591000Y-69083816D01*
X159558297Y-69248228D01*
X159494147Y-69403100D01*
X159401015Y-69542481D01*
X159282481Y-69661015D01*
X159143100Y-69754147D01*
X158988228Y-69818297D01*
X158823816Y-69851000D01*
X158656184Y-69851000D01*
X158491772Y-69818297D01*
X158336900Y-69754147D01*
X158197519Y-69661015D01*
X158078985Y-69542481D01*
X157985853Y-69403100D01*
X157921703Y-69248228D01*
X157889000Y-69083816D01*
X157889000Y-68916184D01*
X157921703Y-68751772D01*
X157985853Y-68596900D01*
X158078985Y-68457519D01*
X158197519Y-68338985D01*
X158336900Y-68245853D01*
X158491772Y-68181703D01*
X158656184Y-68149000D01*
X158823816Y-68149000D01*
X158988228Y-68181703D01*
G37*
G36*
X138988228Y-68181703D02*
G01*
X139143100Y-68245853D01*
X139282481Y-68338985D01*
X139401015Y-68457519D01*
X139494147Y-68596900D01*
X139558297Y-68751772D01*
X139591000Y-68916184D01*
X139591000Y-69083816D01*
X139558297Y-69248228D01*
X139494147Y-69403100D01*
X139401015Y-69542481D01*
X139282481Y-69661015D01*
X139143100Y-69754147D01*
X138988228Y-69818297D01*
X138823816Y-69851000D01*
X138656184Y-69851000D01*
X138491772Y-69818297D01*
X138336900Y-69754147D01*
X138197519Y-69661015D01*
X138078985Y-69542481D01*
X137985853Y-69403100D01*
X137921703Y-69248228D01*
X137889000Y-69083816D01*
X137889000Y-68916184D01*
X137921703Y-68751772D01*
X137985853Y-68596900D01*
X138078985Y-68457519D01*
X138197519Y-68338985D01*
X138336900Y-68245853D01*
X138491772Y-68181703D01*
X138656184Y-68149000D01*
X138823816Y-68149000D01*
X138988228Y-68181703D01*
G37*
G36*
X144351000Y-69851000D02*
G01*
X142649000Y-69851000D01*
X142649000Y-68149000D01*
X144351000Y-68149000D01*
X144351000Y-69851000D01*
G37*
G36*
X161488228Y-68181703D02*
G01*
X161643100Y-68245853D01*
X161782481Y-68338985D01*
X161901015Y-68457519D01*
X161994147Y-68596900D01*
X162058297Y-68751772D01*
X162091000Y-68916184D01*
X162091000Y-69083816D01*
X162058297Y-69248228D01*
X161994147Y-69403100D01*
X161901015Y-69542481D01*
X161782481Y-69661015D01*
X161643100Y-69754147D01*
X161488228Y-69818297D01*
X161323816Y-69851000D01*
X161156184Y-69851000D01*
X160991772Y-69818297D01*
X160836900Y-69754147D01*
X160697519Y-69661015D01*
X160578985Y-69542481D01*
X160485853Y-69403100D01*
X160421703Y-69248228D01*
X160389000Y-69083816D01*
X160389000Y-68916184D01*
X160421703Y-68751772D01*
X160485853Y-68596900D01*
X160578985Y-68457519D01*
X160697519Y-68338985D01*
X160836900Y-68245853D01*
X160991772Y-68181703D01*
X161156184Y-68149000D01*
X161323816Y-68149000D01*
X161488228Y-68181703D01*
G37*
G36*
X126851000Y-69851000D02*
G01*
X125149000Y-69851000D01*
X125149000Y-68149000D01*
X126851000Y-68149000D01*
X126851000Y-69851000D01*
G37*
G36*
X124351000Y-69851000D02*
G01*
X122649000Y-69851000D01*
X122649000Y-68149000D01*
X124351000Y-68149000D01*
X124351000Y-69851000D01*
G37*
G36*
X141488228Y-68181703D02*
G01*
X141643100Y-68245853D01*
X141782481Y-68338985D01*
X141901015Y-68457519D01*
X141994147Y-68596900D01*
X142058297Y-68751772D01*
X142091000Y-68916184D01*
X142091000Y-69083816D01*
X142058297Y-69248228D01*
X141994147Y-69403100D01*
X141901015Y-69542481D01*
X141782481Y-69661015D01*
X141643100Y-69754147D01*
X141488228Y-69818297D01*
X141323816Y-69851000D01*
X141156184Y-69851000D01*
X140991772Y-69818297D01*
X140836900Y-69754147D01*
X140697519Y-69661015D01*
X140578985Y-69542481D01*
X140485853Y-69403100D01*
X140421703Y-69248228D01*
X140389000Y-69083816D01*
X140389000Y-68916184D01*
X140421703Y-68751772D01*
X140485853Y-68596900D01*
X140578985Y-68457519D01*
X140697519Y-68338985D01*
X140836900Y-68245853D01*
X140991772Y-68181703D01*
X141156184Y-68149000D01*
X141323816Y-68149000D01*
X141488228Y-68181703D01*
G37*
G36*
X146851000Y-69851000D02*
G01*
X145149000Y-69851000D01*
X145149000Y-68149000D01*
X146851000Y-68149000D01*
X146851000Y-69851000D01*
G37*
G36*
X147275880Y-61509776D02*
G01*
X147656593Y-61585504D01*
X148066249Y-61755189D01*
X148434929Y-62001534D01*
X148748466Y-62315071D01*
X148994811Y-62683751D01*
X149164496Y-63093407D01*
X149251000Y-63528296D01*
X149251000Y-63971704D01*
X149164496Y-64406593D01*
X148994811Y-64816249D01*
X148748466Y-65184929D01*
X148434929Y-65498466D01*
X148066249Y-65744811D01*
X147656593Y-65914496D01*
X147275880Y-65990224D01*
X147221705Y-66001000D01*
X146778295Y-66001000D01*
X146724120Y-65990224D01*
X146343407Y-65914496D01*
X145933751Y-65744811D01*
X145565071Y-65498466D01*
X145251534Y-65184929D01*
X145005189Y-64816249D01*
X144835504Y-64406593D01*
X144749000Y-63971704D01*
X144749000Y-63528296D01*
X144835504Y-63093407D01*
X145005189Y-62683751D01*
X145251534Y-62315071D01*
X145565071Y-62001534D01*
X145933751Y-61755189D01*
X146343407Y-61585504D01*
X146724120Y-61509776D01*
X146778295Y-61499000D01*
X147221705Y-61499000D01*
X147275880Y-61509776D01*
G37*
G36*
X128963512Y-63413927D02*
G01*
X129112812Y-63443624D01*
X129276784Y-63511544D01*
X129424354Y-63610147D01*
X129549853Y-63735646D01*
X129648456Y-63883216D01*
X129716376Y-64047188D01*
X129751000Y-64221259D01*
X129751000Y-64398741D01*
X129716376Y-64572812D01*
X129648456Y-64736784D01*
X129549853Y-64884354D01*
X129424354Y-65009853D01*
X129276784Y-65108456D01*
X129112812Y-65176376D01*
X128963512Y-65206073D01*
X128938742Y-65211000D01*
X128761258Y-65211000D01*
X128736488Y-65206073D01*
X128587188Y-65176376D01*
X128423216Y-65108456D01*
X128275646Y-65009853D01*
X128150147Y-64884354D01*
X128051544Y-64736784D01*
X127983624Y-64572812D01*
X127949000Y-64398741D01*
X127949000Y-64221259D01*
X127983624Y-64047188D01*
X128051544Y-63883216D01*
X128150147Y-63735646D01*
X128275646Y-63610147D01*
X128423216Y-63511544D01*
X128587188Y-63443624D01*
X128736488Y-63413927D01*
X128761258Y-63409000D01*
X128938742Y-63409000D01*
X128963512Y-63413927D01*
G37*
G36*
X134551000Y-63801000D02*
G01*
X132849000Y-63801000D01*
X132849000Y-62099000D01*
X134551000Y-62099000D01*
X134551000Y-63801000D01*
G37*
G36*
X136488228Y-62131703D02*
G01*
X136643100Y-62195853D01*
X136782481Y-62288985D01*
X136901015Y-62407519D01*
X136994147Y-62546900D01*
X137058297Y-62701772D01*
X137091000Y-62866184D01*
X137091000Y-63033816D01*
X137058297Y-63198228D01*
X136994147Y-63353100D01*
X136901015Y-63492481D01*
X136782481Y-63611015D01*
X136643100Y-63704147D01*
X136488228Y-63768297D01*
X136323816Y-63801000D01*
X136156184Y-63801000D01*
X135991772Y-63768297D01*
X135836900Y-63704147D01*
X135697519Y-63611015D01*
X135578985Y-63492481D01*
X135485853Y-63353100D01*
X135421703Y-63198228D01*
X135389000Y-63033816D01*
X135389000Y-62866184D01*
X135421703Y-62701772D01*
X135485853Y-62546900D01*
X135578985Y-62407519D01*
X135697519Y-62288985D01*
X135836900Y-62195853D01*
X135991772Y-62131703D01*
X136156184Y-62099000D01*
X136323816Y-62099000D01*
X136488228Y-62131703D01*
G37*
G36*
X139028228Y-62131703D02*
G01*
X139183100Y-62195853D01*
X139322481Y-62288985D01*
X139441015Y-62407519D01*
X139534147Y-62546900D01*
X139598297Y-62701772D01*
X139631000Y-62866184D01*
X139631000Y-63033816D01*
X139598297Y-63198228D01*
X139534147Y-63353100D01*
X139441015Y-63492481D01*
X139322481Y-63611015D01*
X139183100Y-63704147D01*
X139028228Y-63768297D01*
X138863816Y-63801000D01*
X138696184Y-63801000D01*
X138531772Y-63768297D01*
X138376900Y-63704147D01*
X138237519Y-63611015D01*
X138118985Y-63492481D01*
X138025853Y-63353100D01*
X137961703Y-63198228D01*
X137929000Y-63033816D01*
X137929000Y-62866184D01*
X137961703Y-62701772D01*
X138025853Y-62546900D01*
X138118985Y-62407519D01*
X138237519Y-62288985D01*
X138376900Y-62195853D01*
X138531772Y-62131703D01*
X138696184Y-62099000D01*
X138863816Y-62099000D01*
X139028228Y-62131703D01*
G37*
G36*
X141568228Y-62131703D02*
G01*
X141723100Y-62195853D01*
X141862481Y-62288985D01*
X141981015Y-62407519D01*
X142074147Y-62546900D01*
X142138297Y-62701772D01*
X142171000Y-62866184D01*
X142171000Y-63033816D01*
X142138297Y-63198228D01*
X142074147Y-63353100D01*
X141981015Y-63492481D01*
X141862481Y-63611015D01*
X141723100Y-63704147D01*
X141568228Y-63768297D01*
X141403816Y-63801000D01*
X141236184Y-63801000D01*
X141071772Y-63768297D01*
X140916900Y-63704147D01*
X140777519Y-63611015D01*
X140658985Y-63492481D01*
X140565853Y-63353100D01*
X140501703Y-63198228D01*
X140469000Y-63033816D01*
X140469000Y-62866184D01*
X140501703Y-62701772D01*
X140565853Y-62546900D01*
X140658985Y-62407519D01*
X140777519Y-62288985D01*
X140916900Y-62195853D01*
X141071772Y-62131703D01*
X141236184Y-62099000D01*
X141403816Y-62099000D01*
X141568228Y-62131703D01*
G37*
G36*
X128963512Y-60873927D02*
G01*
X129112812Y-60903624D01*
X129276784Y-60971544D01*
X129424354Y-61070147D01*
X129549853Y-61195646D01*
X129648456Y-61343216D01*
X129716376Y-61507188D01*
X129751000Y-61681259D01*
X129751000Y-61858741D01*
X129716376Y-62032812D01*
X129648456Y-62196784D01*
X129549853Y-62344354D01*
X129424354Y-62469853D01*
X129276784Y-62568456D01*
X129112812Y-62636376D01*
X128963512Y-62666073D01*
X128938742Y-62671000D01*
X128761258Y-62671000D01*
X128736488Y-62666073D01*
X128587188Y-62636376D01*
X128423216Y-62568456D01*
X128275646Y-62469853D01*
X128150147Y-62344354D01*
X128051544Y-62196784D01*
X127983624Y-62032812D01*
X127949000Y-61858741D01*
X127949000Y-61681259D01*
X127983624Y-61507188D01*
X128051544Y-61343216D01*
X128150147Y-61195646D01*
X128275646Y-61070147D01*
X128423216Y-60971544D01*
X128587188Y-60903624D01*
X128736488Y-60873927D01*
X128761258Y-60869000D01*
X128938742Y-60869000D01*
X128963512Y-60873927D01*
G37*
G36*
X128963512Y-58333927D02*
G01*
X129112812Y-58363624D01*
X129276784Y-58431544D01*
X129424354Y-58530147D01*
X129549853Y-58655646D01*
X129648456Y-58803216D01*
X129716376Y-58967188D01*
X129751000Y-59141259D01*
X129751000Y-59318741D01*
X129716376Y-59492812D01*
X129648456Y-59656784D01*
X129549853Y-59804354D01*
X129424354Y-59929853D01*
X129276784Y-60028456D01*
X129112812Y-60096376D01*
X128963512Y-60126073D01*
X128938742Y-60131000D01*
X128761258Y-60131000D01*
X128736488Y-60126073D01*
X128587188Y-60096376D01*
X128423216Y-60028456D01*
X128275646Y-59929853D01*
X128150147Y-59804354D01*
X128051544Y-59656784D01*
X127983624Y-59492812D01*
X127949000Y-59318741D01*
X127949000Y-59141259D01*
X127983624Y-58967188D01*
X128051544Y-58803216D01*
X128150147Y-58655646D01*
X128275646Y-58530147D01*
X128423216Y-58431544D01*
X128587188Y-58363624D01*
X128736488Y-58333927D01*
X128761258Y-58329000D01*
X128938742Y-58329000D01*
X128963512Y-58333927D01*
G37*
G36*
X128963512Y-55793927D02*
G01*
X129112812Y-55823624D01*
X129276784Y-55891544D01*
X129424354Y-55990147D01*
X129549853Y-56115646D01*
X129648456Y-56263216D01*
X129716376Y-56427188D01*
X129751000Y-56601259D01*
X129751000Y-56778741D01*
X129716376Y-56952812D01*
X129648456Y-57116784D01*
X129549853Y-57264354D01*
X129424354Y-57389853D01*
X129276784Y-57488456D01*
X129112812Y-57556376D01*
X128963512Y-57586073D01*
X128938742Y-57591000D01*
X128761258Y-57591000D01*
X128736488Y-57586073D01*
X128587188Y-57556376D01*
X128423216Y-57488456D01*
X128275646Y-57389853D01*
X128150147Y-57264354D01*
X128051544Y-57116784D01*
X127983624Y-56952812D01*
X127949000Y-56778741D01*
X127949000Y-56601259D01*
X127983624Y-56427188D01*
X128051544Y-56263216D01*
X128150147Y-56115646D01*
X128275646Y-55990147D01*
X128423216Y-55891544D01*
X128587188Y-55823624D01*
X128736488Y-55793927D01*
X128761258Y-55789000D01*
X128938742Y-55789000D01*
X128963512Y-55793927D01*
G37*
G36*
X147275880Y-52509776D02*
G01*
X147656593Y-52585504D01*
X148066249Y-52755189D01*
X148434929Y-53001534D01*
X148748466Y-53315071D01*
X148994811Y-53683751D01*
X149164496Y-54093407D01*
X149215336Y-54349000D01*
X149247700Y-54511703D01*
X149251000Y-54528296D01*
X149251000Y-54971704D01*
X149164496Y-55406593D01*
X148994811Y-55816249D01*
X148748466Y-56184929D01*
X148434929Y-56498466D01*
X148066249Y-56744811D01*
X147656593Y-56914496D01*
X147275880Y-56990224D01*
X147221705Y-57001000D01*
X146778295Y-57001000D01*
X146724120Y-56990224D01*
X146343407Y-56914496D01*
X145933751Y-56744811D01*
X145565071Y-56498466D01*
X145251534Y-56184929D01*
X145005189Y-55816249D01*
X144835504Y-55406593D01*
X144749000Y-54971704D01*
X144749000Y-54528296D01*
X144752301Y-54511703D01*
X144784664Y-54349000D01*
X144835504Y-54093407D01*
X145005189Y-53683751D01*
X145251534Y-53315071D01*
X145565071Y-53001534D01*
X145933751Y-52755189D01*
X146343407Y-52585504D01*
X146724120Y-52509776D01*
X146778295Y-52499000D01*
X147221705Y-52499000D01*
X147275880Y-52509776D01*
G37*
G36*
X141568228Y-54511703D02*
G01*
X141723100Y-54575853D01*
X141862481Y-54668985D01*
X141981015Y-54787519D01*
X142074147Y-54926900D01*
X142138297Y-55081772D01*
X142171000Y-55246184D01*
X142171000Y-55413816D01*
X142138297Y-55578228D01*
X142074147Y-55733100D01*
X141981015Y-55872481D01*
X141862481Y-55991015D01*
X141723100Y-56084147D01*
X141568228Y-56148297D01*
X141403816Y-56181000D01*
X141236184Y-56181000D01*
X141071772Y-56148297D01*
X140916900Y-56084147D01*
X140777519Y-55991015D01*
X140658985Y-55872481D01*
X140565853Y-55733100D01*
X140501703Y-55578228D01*
X140469000Y-55413816D01*
X140469000Y-55246184D01*
X140501703Y-55081772D01*
X140565853Y-54926900D01*
X140658985Y-54787519D01*
X140777519Y-54668985D01*
X140916900Y-54575853D01*
X141071772Y-54511703D01*
X141236184Y-54479000D01*
X141403816Y-54479000D01*
X141568228Y-54511703D01*
G37*
G36*
X139028228Y-54511703D02*
G01*
X139183100Y-54575853D01*
X139322481Y-54668985D01*
X139441015Y-54787519D01*
X139534147Y-54926900D01*
X139598297Y-55081772D01*
X139631000Y-55246184D01*
X139631000Y-55413816D01*
X139598297Y-55578228D01*
X139534147Y-55733100D01*
X139441015Y-55872481D01*
X139322481Y-55991015D01*
X139183100Y-56084147D01*
X139028228Y-56148297D01*
X138863816Y-56181000D01*
X138696184Y-56181000D01*
X138531772Y-56148297D01*
X138376900Y-56084147D01*
X138237519Y-55991015D01*
X138118985Y-55872481D01*
X138025853Y-55733100D01*
X137961703Y-55578228D01*
X137929000Y-55413816D01*
X137929000Y-55246184D01*
X137961703Y-55081772D01*
X138025853Y-54926900D01*
X138118985Y-54787519D01*
X138237519Y-54668985D01*
X138376900Y-54575853D01*
X138531772Y-54511703D01*
X138696184Y-54479000D01*
X138863816Y-54479000D01*
X139028228Y-54511703D01*
G37*
G36*
X136488228Y-54511703D02*
G01*
X136643100Y-54575853D01*
X136782481Y-54668985D01*
X136901015Y-54787519D01*
X136994147Y-54926900D01*
X137058297Y-55081772D01*
X137091000Y-55246184D01*
X137091000Y-55413816D01*
X137058297Y-55578228D01*
X136994147Y-55733100D01*
X136901015Y-55872481D01*
X136782481Y-55991015D01*
X136643100Y-56084147D01*
X136488228Y-56148297D01*
X136323816Y-56181000D01*
X136156184Y-56181000D01*
X135991772Y-56148297D01*
X135836900Y-56084147D01*
X135697519Y-55991015D01*
X135578985Y-55872481D01*
X135485853Y-55733100D01*
X135421703Y-55578228D01*
X135389000Y-55413816D01*
X135389000Y-55246184D01*
X135421703Y-55081772D01*
X135485853Y-54926900D01*
X135578985Y-54787519D01*
X135697519Y-54668985D01*
X135836900Y-54575853D01*
X135991772Y-54511703D01*
X136156184Y-54479000D01*
X136323816Y-54479000D01*
X136488228Y-54511703D01*
G37*
G36*
X133948228Y-54511703D02*
G01*
X134103100Y-54575853D01*
X134242481Y-54668985D01*
X134361015Y-54787519D01*
X134454147Y-54926900D01*
X134518297Y-55081772D01*
X134551000Y-55246184D01*
X134551000Y-55413816D01*
X134518297Y-55578228D01*
X134454147Y-55733100D01*
X134361015Y-55872481D01*
X134242481Y-55991015D01*
X134103100Y-56084147D01*
X133948228Y-56148297D01*
X133783816Y-56181000D01*
X133616184Y-56181000D01*
X133451772Y-56148297D01*
X133296900Y-56084147D01*
X133157519Y-55991015D01*
X133038985Y-55872481D01*
X132945853Y-55733100D01*
X132881703Y-55578228D01*
X132849000Y-55413816D01*
X132849000Y-55246184D01*
X132881703Y-55081772D01*
X132945853Y-54926900D01*
X133038985Y-54787519D01*
X133157519Y-54668985D01*
X133296900Y-54575853D01*
X133451772Y-54511703D01*
X133616184Y-54479000D01*
X133783816Y-54479000D01*
X133948228Y-54511703D01*
G37*
G36*
X129751000Y-55051000D02*
G01*
X127949000Y-55051000D01*
X127949000Y-53249000D01*
X129751000Y-53249000D01*
X129751000Y-55051000D01*
G37*
M02*
