G04 #@! TF.GenerationSoftware,KiCad,Pcbnew,(5.1.6)-1*
G04 #@! TF.CreationDate,2020-07-20T19:56:41+03:00*
G04 #@! TF.ProjectId,CPC_MultiROM_01,4350435f-4d75-46c7-9469-524f4d5f3031,rev?*
G04 #@! TF.SameCoordinates,Original*
G04 #@! TF.FileFunction,Copper,L1,Top*
G04 #@! TF.FilePolarity,Positive*
%FSLAX46Y46*%
G04 Gerber Fmt 4.6, Leading zero omitted, Abs format (unit mm)*
G04 Created by KiCad (PCBNEW (5.1.6)-1) date 2020-07-20 19:56:41*
%MOMM*%
%LPD*%
G01*
G04 APERTURE LIST*
G04 #@! TA.AperFunction,ComponentPad*
%ADD10O,1.600000X1.600000*%
G04 #@! TD*
G04 #@! TA.AperFunction,ComponentPad*
%ADD11C,1.600000*%
G04 #@! TD*
G04 #@! TA.AperFunction,ComponentPad*
%ADD12R,1.600000X1.600000*%
G04 #@! TD*
G04 #@! TA.AperFunction,ComponentPad*
%ADD13C,0.700000*%
G04 #@! TD*
G04 #@! TA.AperFunction,ComponentPad*
%ADD14C,4.400000*%
G04 #@! TD*
G04 #@! TA.AperFunction,ComponentPad*
%ADD15O,1.700000X1.700000*%
G04 #@! TD*
G04 #@! TA.AperFunction,ComponentPad*
%ADD16R,1.700000X1.700000*%
G04 #@! TD*
G04 #@! TA.AperFunction,ViaPad*
%ADD17C,0.900000*%
G04 #@! TD*
G04 #@! TA.AperFunction,Conductor*
%ADD18C,0.300000*%
G04 #@! TD*
G04 #@! TA.AperFunction,Conductor*
%ADD19C,0.400000*%
G04 #@! TD*
G04 APERTURE END LIST*
D10*
X153750000Y-91880000D03*
D11*
X153750000Y-99500000D03*
D10*
X150622000Y-91880000D03*
D11*
X150622000Y-99500000D03*
D10*
X130810000Y-91880000D03*
D11*
X130810000Y-99500000D03*
D10*
X134000000Y-91880000D03*
D11*
X134000000Y-99500000D03*
D10*
X133700000Y-55330000D03*
X141320000Y-62950000D03*
X136240000Y-55330000D03*
X138780000Y-62950000D03*
X138780000Y-55330000D03*
X136240000Y-62950000D03*
X141320000Y-55330000D03*
D12*
X133700000Y-62950000D03*
D13*
X148166726Y-53583274D03*
X147000000Y-53100000D03*
X145833274Y-53583274D03*
X145350000Y-54750000D03*
X145833274Y-55916726D03*
X147000000Y-56400000D03*
X148166726Y-55916726D03*
X148650000Y-54750000D03*
D14*
X147000000Y-54750000D03*
D13*
X148166726Y-62583274D03*
X147000000Y-62100000D03*
X145833274Y-62583274D03*
X145350000Y-63750000D03*
X145833274Y-64916726D03*
X147000000Y-65400000D03*
X148166726Y-64916726D03*
X148650000Y-63750000D03*
D14*
X147000000Y-63750000D03*
D15*
X128850000Y-64310000D03*
X128850000Y-61770000D03*
X128850000Y-59230000D03*
X128850000Y-56690000D03*
D16*
X128850000Y-54150000D03*
D10*
X158740000Y-69000000D03*
X143500000Y-102020000D03*
X158740000Y-71540000D03*
X143500000Y-99480000D03*
X158740000Y-74080000D03*
X143500000Y-96940000D03*
X158740000Y-76620000D03*
X143500000Y-94400000D03*
X158740000Y-79160000D03*
X143500000Y-91860000D03*
X158740000Y-81700000D03*
X143500000Y-89320000D03*
X158740000Y-84240000D03*
X143500000Y-86780000D03*
X158740000Y-86780000D03*
X143500000Y-84240000D03*
X158740000Y-89320000D03*
X143500000Y-81700000D03*
X158740000Y-91860000D03*
X143500000Y-79160000D03*
X158740000Y-94400000D03*
X143500000Y-76620000D03*
X158740000Y-96940000D03*
X143500000Y-74080000D03*
X158740000Y-99480000D03*
X143500000Y-71540000D03*
X158740000Y-102020000D03*
D12*
X143500000Y-69000000D03*
D15*
X145340000Y-105750000D03*
X147880000Y-105750000D03*
X150420000Y-105750000D03*
X152960000Y-105750000D03*
D16*
X155500000Y-105750000D03*
D10*
X161240000Y-69000000D03*
X146000000Y-102020000D03*
X161240000Y-71540000D03*
X146000000Y-99480000D03*
X161240000Y-74080000D03*
X146000000Y-96940000D03*
X161240000Y-76620000D03*
X146000000Y-94400000D03*
X161240000Y-79160000D03*
X146000000Y-91860000D03*
X161240000Y-81700000D03*
X146000000Y-89320000D03*
X161240000Y-84240000D03*
X146000000Y-86780000D03*
X161240000Y-86780000D03*
X146000000Y-84240000D03*
X161240000Y-89320000D03*
X146000000Y-81700000D03*
X161240000Y-91860000D03*
X146000000Y-79160000D03*
X161240000Y-94400000D03*
X146000000Y-76620000D03*
X161240000Y-96940000D03*
X146000000Y-74080000D03*
X161240000Y-99480000D03*
X146000000Y-71540000D03*
X161240000Y-102020000D03*
D12*
X146000000Y-69000000D03*
D10*
X138740000Y-69000000D03*
X123500000Y-107100000D03*
X138740000Y-71540000D03*
X123500000Y-104560000D03*
X138740000Y-74080000D03*
X123500000Y-102020000D03*
X138740000Y-76620000D03*
X123500000Y-99480000D03*
X138740000Y-79160000D03*
X123500000Y-96940000D03*
X138740000Y-81700000D03*
X123500000Y-94400000D03*
X138740000Y-84240000D03*
X123500000Y-91860000D03*
X138740000Y-86780000D03*
X123500000Y-89320000D03*
X138740000Y-89320000D03*
X123500000Y-86780000D03*
X138740000Y-91860000D03*
X123500000Y-84240000D03*
X138740000Y-94400000D03*
X123500000Y-81700000D03*
X138740000Y-96940000D03*
X123500000Y-79160000D03*
X138740000Y-99480000D03*
X123500000Y-76620000D03*
X138740000Y-102020000D03*
X123500000Y-74080000D03*
X138740000Y-104560000D03*
X123500000Y-71540000D03*
X138740000Y-107100000D03*
D12*
X123500000Y-69000000D03*
D10*
X141240000Y-69000000D03*
X126000000Y-102020000D03*
X141240000Y-71540000D03*
X126000000Y-99480000D03*
X141240000Y-74080000D03*
X126000000Y-96940000D03*
X141240000Y-76620000D03*
X126000000Y-94400000D03*
X141240000Y-79160000D03*
X126000000Y-91860000D03*
X141240000Y-81700000D03*
X126000000Y-89320000D03*
X141240000Y-84240000D03*
X126000000Y-86780000D03*
X141240000Y-86780000D03*
X126000000Y-84240000D03*
X141240000Y-89320000D03*
X126000000Y-81700000D03*
X141240000Y-91860000D03*
X126000000Y-79160000D03*
X141240000Y-94400000D03*
X126000000Y-76620000D03*
X141240000Y-96940000D03*
X126000000Y-74080000D03*
X141240000Y-99480000D03*
X126000000Y-71540000D03*
X141240000Y-102020000D03*
D12*
X126000000Y-69000000D03*
D17*
X135890000Y-101346000D03*
X134112000Y-107442000D03*
X134112000Y-102870000D03*
X143510000Y-104394000D03*
X134874000Y-59436000D03*
D18*
X135890000Y-101346000D02*
X131572000Y-101346000D01*
X130810000Y-100584000D02*
X130810000Y-99500000D01*
X131572000Y-101346000D02*
X130810000Y-100584000D01*
X134112000Y-107442000D02*
X134112000Y-102870000D01*
X134112000Y-102870000D02*
X134112000Y-102870000D01*
D19*
X130810000Y-91880000D02*
X134000000Y-91880000D01*
X134000000Y-91880000D02*
X134000000Y-71486000D01*
X136486000Y-69000000D02*
X138740000Y-69000000D01*
X134000000Y-71486000D02*
X136486000Y-69000000D01*
X138740000Y-69000000D02*
X141240000Y-69000000D01*
X157489999Y-70250001D02*
X158740000Y-69000000D01*
X143500000Y-69000000D02*
X144750001Y-70250001D01*
X158740000Y-69000000D02*
X161240000Y-69000000D01*
X150622000Y-91880000D02*
X153750000Y-91880000D01*
X153750000Y-70278000D02*
X153777999Y-70250001D01*
X153750000Y-91880000D02*
X153750000Y-70278000D01*
X144750001Y-70250001D02*
X153777999Y-70250001D01*
X153777999Y-70250001D02*
X157489999Y-70250001D01*
D18*
X139940001Y-74656001D02*
X139940001Y-72839999D01*
X139940001Y-72839999D02*
X141240000Y-71540000D01*
X138740000Y-76620000D02*
X138740000Y-75856002D01*
X138740000Y-75856002D02*
X139940001Y-74656001D01*
X124700001Y-103359999D02*
X124700001Y-100833833D01*
X124700001Y-100833833D02*
X126000000Y-99533834D01*
X123500000Y-104560000D02*
X124700001Y-103359999D01*
X126000000Y-99533834D02*
X126000000Y-99480000D01*
X139940001Y-77196001D02*
X139940001Y-75433833D01*
X138740000Y-79160000D02*
X138740000Y-78396002D01*
X138740000Y-78396002D02*
X139940001Y-77196001D01*
X141240000Y-74133834D02*
X141240000Y-74080000D01*
X139940001Y-75433833D02*
X141240000Y-74133834D01*
X124700001Y-100056001D02*
X124700001Y-98293833D01*
X123500000Y-101256002D02*
X124700001Y-100056001D01*
X126000000Y-96993834D02*
X126000000Y-96940000D01*
X124700001Y-98293833D02*
X126000000Y-96993834D01*
X123500000Y-102020000D02*
X123500000Y-101256002D01*
X138740000Y-80936002D02*
X140039999Y-79636003D01*
X138740000Y-81700000D02*
X138740000Y-80936002D01*
X140039999Y-79636003D02*
X140039999Y-77873835D01*
X141240000Y-76673834D02*
X141240000Y-76620000D01*
X140039999Y-77873835D02*
X141240000Y-76673834D01*
X124700001Y-95753833D02*
X126000000Y-94453834D01*
X126000000Y-94453834D02*
X126000000Y-94400000D01*
X123500000Y-98716002D02*
X124700001Y-97516001D01*
X124700001Y-97516001D02*
X124700001Y-95753833D01*
X123500000Y-99480000D02*
X123500000Y-98716002D01*
X139940001Y-80513833D02*
X141240000Y-79213834D01*
X141240000Y-79213834D02*
X141240000Y-79160000D01*
X139940001Y-82276001D02*
X139940001Y-80513833D01*
X138740000Y-83476002D02*
X139940001Y-82276001D01*
X138740000Y-84240000D02*
X138740000Y-83476002D01*
X123500000Y-96176002D02*
X124799999Y-94876003D01*
X124799999Y-93113835D02*
X126000000Y-91913834D01*
X123500000Y-96940000D02*
X123500000Y-96176002D01*
X126000000Y-91913834D02*
X126000000Y-91860000D01*
X124799999Y-94876003D02*
X124799999Y-93113835D01*
X139940001Y-84816001D02*
X139940001Y-83053833D01*
X139940001Y-83053833D02*
X141240000Y-81753834D01*
X138740000Y-86780000D02*
X138740000Y-86016002D01*
X138740000Y-86016002D02*
X139940001Y-84816001D01*
X141240000Y-81753834D02*
X141240000Y-81700000D01*
X124799999Y-90573835D02*
X126000000Y-89373834D01*
X123500000Y-94400000D02*
X123500000Y-93636002D01*
X126000000Y-89373834D02*
X126000000Y-89320000D01*
X124799999Y-92336003D02*
X124799999Y-90573835D01*
X123500000Y-93636002D02*
X124799999Y-92336003D01*
X139940001Y-87356001D02*
X139940001Y-85593833D01*
X139940001Y-85593833D02*
X141240000Y-84293834D01*
X138740000Y-88556002D02*
X139940001Y-87356001D01*
X141240000Y-84293834D02*
X141240000Y-84240000D01*
X138740000Y-89320000D02*
X138740000Y-88556002D01*
X124799999Y-89796003D02*
X124799999Y-88033835D01*
X126000000Y-86833834D02*
X126000000Y-86780000D01*
X123500000Y-91096002D02*
X124799999Y-89796003D01*
X124799999Y-88033835D02*
X126000000Y-86833834D01*
X123500000Y-91860000D02*
X123500000Y-91096002D01*
X140039999Y-88033835D02*
X141240000Y-86833834D01*
X138740000Y-91096002D02*
X140039999Y-89796003D01*
X141240000Y-86833834D02*
X141240000Y-86780000D01*
X138740000Y-91860000D02*
X138740000Y-91096002D01*
X140039999Y-89796003D02*
X140039999Y-88033835D01*
X124700001Y-85593833D02*
X126000000Y-84293834D01*
X126000000Y-84293834D02*
X126000000Y-84240000D01*
X124700001Y-87356001D02*
X124700001Y-85593833D01*
X123500000Y-88556002D02*
X124700001Y-87356001D01*
X123500000Y-89320000D02*
X123500000Y-88556002D01*
X139996010Y-92379992D02*
X139996010Y-90617824D01*
X139996010Y-90617824D02*
X141240000Y-89373834D01*
X138740000Y-93636002D02*
X139996010Y-92379992D01*
X138740000Y-94400000D02*
X138740000Y-93636002D01*
X141240000Y-89373834D02*
X141240000Y-89320000D01*
X124799999Y-84716003D02*
X124799999Y-82953835D01*
X124799999Y-82953835D02*
X126000000Y-81753834D01*
X126000000Y-81753834D02*
X126000000Y-81700000D01*
X123500000Y-86016002D02*
X124799999Y-84716003D01*
X123500000Y-86780000D02*
X123500000Y-86016002D01*
X140039999Y-94876003D02*
X140039999Y-93113835D01*
X141240000Y-91913834D02*
X141240000Y-91860000D01*
X138740000Y-96176002D02*
X140039999Y-94876003D01*
X138740000Y-96940000D02*
X138740000Y-96176002D01*
X140039999Y-93113835D02*
X141240000Y-91913834D01*
X126000000Y-79213834D02*
X126000000Y-79160000D01*
X124799999Y-80413835D02*
X126000000Y-79213834D01*
X124799999Y-82176003D02*
X124799999Y-80413835D01*
X123500000Y-83476002D02*
X124799999Y-82176003D01*
X123500000Y-84240000D02*
X123500000Y-83476002D01*
X138740000Y-98716002D02*
X140039999Y-97416003D01*
X141240000Y-94453834D02*
X141240000Y-94400000D01*
X140039999Y-95653835D02*
X141240000Y-94453834D01*
X138740000Y-99480000D02*
X138740000Y-98716002D01*
X140039999Y-97416003D02*
X140039999Y-95653835D01*
X124700001Y-77973833D02*
X126000000Y-76673834D01*
X126000000Y-76673834D02*
X126000000Y-76620000D01*
X123500000Y-80936002D02*
X124700001Y-79736001D01*
X123500000Y-81700000D02*
X123500000Y-80936002D01*
X124700001Y-79736001D02*
X124700001Y-77973833D01*
X140039999Y-99956003D02*
X140039999Y-98193835D01*
X140039999Y-98193835D02*
X141240000Y-96993834D01*
X138740000Y-101256002D02*
X140039999Y-99956003D01*
X141240000Y-96993834D02*
X141240000Y-96940000D01*
X138740000Y-102020000D02*
X138740000Y-101256002D01*
X124799999Y-75333835D02*
X126000000Y-74133834D01*
X126000000Y-74133834D02*
X126000000Y-74080000D01*
X124799999Y-77096003D02*
X124799999Y-75333835D01*
X123500000Y-79160000D02*
X123500000Y-78396002D01*
X123500000Y-78396002D02*
X124799999Y-77096003D01*
X138740000Y-104560000D02*
X139940001Y-103359999D01*
X139940001Y-103359999D02*
X139940001Y-100833833D01*
X141240000Y-99533834D02*
X141240000Y-99480000D01*
X139940001Y-100833833D02*
X141240000Y-99533834D01*
X124700001Y-74656001D02*
X124700001Y-72839999D01*
X123500000Y-75856002D02*
X124700001Y-74656001D01*
X124700001Y-72839999D02*
X126000000Y-71540000D01*
X123500000Y-76620000D02*
X123500000Y-75856002D01*
X141240000Y-104600000D02*
X141240000Y-102020000D01*
X138740000Y-107100000D02*
X141240000Y-104600000D01*
D19*
X123500000Y-69000000D02*
X126000000Y-69000000D01*
D18*
X143500000Y-99480000D02*
X146000000Y-99480000D01*
X158740000Y-74080000D02*
X161240000Y-74080000D01*
X143500000Y-96940000D02*
X146000000Y-96940000D01*
X158740000Y-76620000D02*
X161240000Y-76620000D01*
X143500000Y-94400000D02*
X146000000Y-94400000D01*
X158740000Y-79160000D02*
X161240000Y-79160000D01*
X143500000Y-91860000D02*
X146000000Y-91860000D01*
X158740000Y-81700000D02*
X161240000Y-81700000D01*
X143500000Y-89320000D02*
X146000000Y-89320000D01*
X158740000Y-84240000D02*
X161240000Y-84240000D01*
X143500000Y-86780000D02*
X146000000Y-86780000D01*
X158740000Y-86780000D02*
X161240000Y-86780000D01*
X143500000Y-84240000D02*
X146000000Y-84240000D01*
X158740000Y-89320000D02*
X161240000Y-89320000D01*
X143500000Y-81700000D02*
X146000000Y-81700000D01*
X158740000Y-91860000D02*
X161240000Y-91860000D01*
X143500000Y-79160000D02*
X146000000Y-79160000D01*
X158740000Y-94400000D02*
X161240000Y-94400000D01*
X143500000Y-76620000D02*
X146000000Y-76620000D01*
X158740000Y-96940000D02*
X161240000Y-96940000D01*
X143500000Y-74080000D02*
X146000000Y-74080000D01*
X158740000Y-99480000D02*
X161240000Y-99480000D01*
X143500000Y-71540000D02*
X146000000Y-71540000D01*
X158740000Y-102020000D02*
X161240000Y-102020000D01*
D19*
X123500000Y-107100000D02*
X125818000Y-107100000D01*
X126000000Y-106918000D02*
X126000000Y-102020000D01*
X125818000Y-107100000D02*
X126000000Y-106918000D01*
X143510000Y-102030000D02*
X143500000Y-102020000D01*
X143510000Y-104394000D02*
X143510000Y-102030000D01*
X143500000Y-102020000D02*
X146000000Y-102020000D01*
X146000000Y-102020000D02*
X153582000Y-102020000D01*
X155500000Y-103938000D02*
X155500000Y-105750000D01*
X153582000Y-102020000D02*
X155500000Y-103938000D01*
D18*
X128850000Y-61770000D02*
X132908010Y-65828010D01*
X132908010Y-65828010D02*
X139573360Y-65828010D01*
X141320000Y-64081370D02*
X141320000Y-62950000D01*
X139573360Y-65828010D02*
X141320000Y-64081370D01*
X128850000Y-59230000D02*
X131826000Y-62206000D01*
X131826000Y-63396002D02*
X133453998Y-65024000D01*
X131826000Y-62206000D02*
X131826000Y-63396002D01*
X133453998Y-65024000D02*
X138430000Y-65024000D01*
X138780000Y-64674000D02*
X138780000Y-62950000D01*
X138430000Y-65024000D02*
X138780000Y-64674000D01*
X129980000Y-56690000D02*
X136240000Y-62950000D01*
X128850000Y-56690000D02*
X129980000Y-56690000D01*
X128870001Y-54129999D02*
X128850000Y-54150000D01*
X128850000Y-54150000D02*
X129588000Y-54150000D01*
X129588000Y-54150000D02*
X134874000Y-59436000D01*
X134874000Y-59436000D02*
X134874000Y-59436000D01*
M02*
